<?xml version="1.0" encoding="UTF-8"?>
<svg width="486px" height="106px" viewBox="0 0 486 106" version="1.1" xmlns="http://www.w3.org/2000/svg" xmlns:xlink="http://www.w3.org/1999/xlink">
    <title>08 Productivity</title>
    <defs>
        <path d="M23.0833333,37.0833333 L16.9166667,37.0833333 C15.6833333,37.0833333 14.65,36.1833333 14.5,34.9666667 L14.05,31.8166667 C13.6,31.5833333 13.1666667,31.3333333 12.7333333,31.05 L9.73333333,32.25 C8.56666667,32.6833333 7.28333333,32.2 6.71666667,31.1666667 L3.66666667,25.8833333 C3.08333333,24.7833333 3.33333333,23.4833333 4.26666667,22.75 L6.81666667,20.7666667 C6.8,20.5166667 6.78333333,20.2666667 6.78333333,20 C6.78333333,19.75 6.8,19.4833333 6.81666667,19.2333333 L4.28333333,17.25 C3.3,16.5 3.05,15.15 3.66666667,14.1166667 L6.75,8.8 C7.31666667,7.76666667 8.6,7.3 9.73333333,7.75 L12.75,8.96666667 C13.1833333,8.68333333 13.6166667,8.43333333 14.05,8.2 L14.5,5.01666667 C14.65,3.85 15.6833333,2.93333333 16.9,2.93333333 L23.0666667,2.93333333 C24.3,2.93333333 25.3333333,3.83333333 25.4833333,5.05 L25.9333333,8.2 C26.3833333,8.43333333 26.8166667,8.68333333 27.25,8.96666667 L30.25,7.76666667 C31.4333333,7.33333333 32.7166667,7.81666667 33.2833333,8.85 L36.35,14.15 C36.95,15.25 36.6833333,16.55 35.75,17.2833333 L33.2166667,19.2666667 C33.2333333,19.5166667 33.25,19.7666667 33.25,20.0333333 C33.25,20.3 33.2333333,20.55 33.2166667,20.8 L35.75,22.7833333 C36.6833333,23.5333333 36.95,24.8333333 36.3666667,25.8833333 L33.2666667,31.25 C32.7,32.2833333 31.4166667,32.75 30.2666667,32.3 L27.2666667,31.1 C26.8333333,31.3833333 26.4,31.6333333 25.9666667,31.8666667 L25.5166667,35.05 C25.35,36.1833333 24.3166667,37.0833333 23.0833333,37.0833333 Z M17.7,33.75 L22.3,33.75 L22.9166667,29.5 L23.8,29.1333333 C24.5333333,28.8333333 25.2666667,28.4 26.0333333,27.8333333 L26.7833333,27.2666667 L30.75,28.8666667 L33.05,24.8666667 L29.6666667,22.2333333 L29.7833333,21.3 C29.8333333,20.8666667 29.8833333,20.45 29.8833333,20 C29.8833333,19.55 29.8333333,19.1166667 29.7833333,18.7 L29.6666667,17.7666667 L33.05,15.1333333 L30.7333333,11.1333333 L26.75,12.7333333 L26,12.15 C25.3,11.6166667 24.55,11.1833333 23.7833333,10.8666667 L22.9166667,10.5 L22.3,6.25 L17.7,6.25 L17.0833333,10.5 L16.2,10.85 C15.4666667,11.1666667 14.7333333,11.5833333 13.9666667,12.1666667 L13.2166667,12.7166667 L9.25,11.1333333 L6.93333333,15.1166667 L10.3166667,17.75 L10.2,18.6833333 C10.15,19.1166667 10.1,19.5666667 10.1,20 C10.1,20.4333333 10.1333333,20.8833333 10.2,21.3 L10.3166667,22.2333333 L6.93333333,24.8666667 L9.23333333,28.8666667 L13.2166667,27.2666667 L13.9666667,27.85 C14.6833333,28.4 15.4,28.8166667 16.1833333,29.1333333 L17.0666667,29.5 L17.7,33.75 Z M20,25.8333333 C23.221661,25.8333333 25.8333333,23.221661 25.8333333,20 C25.8333333,16.778339 23.221661,14.1666667 20,14.1666667 C16.778339,14.1666667 14.1666667,16.778339 14.1666667,20 C14.1666667,23.221661 16.778339,25.8333333 20,25.8333333 Z" id="path-1"></path>
        <path d="M7.65,11.4833333 C8.81666667,10.3 9.98333333,9.23333333 10.5,9.45 C11.3333333,9.78333333 10.5,11.1666667 10,11.9833333 C9.58333333,12.6833333 5.23333333,18.4666667 5.23333333,22.5 C5.23333333,24.6333333 6.03333333,26.4 7.46666667,27.4666667 C8.71666667,28.4 10.3666667,28.6833333 11.8666667,28.2333333 C13.65,27.7166667 15.1166667,25.9 16.9666667,23.6166667 C18.9833333,21.1333333 21.6833333,17.8833333 23.7666667,17.8833333 C26.4833333,17.8833333 26.5166667,19.5666667 26.7,20.8666667 C20.4,21.9333333 17.7333333,26.9833333 17.7333333,29.8166667 C17.7333333,32.65 20.1333333,34.9666667 23.0833333,34.9666667 C25.8,34.9666667 30.2333333,32.75 30.9,24.8 L35,24.8 L35,20.6333333 L30.8833333,20.6333333 C30.6333333,17.8833333 29.0666667,13.6333333 24.1666667,13.6333333 C20.4166667,13.6333333 17.2,16.8166667 15.9333333,18.3666667 C14.9666667,19.5833333 12.5,22.5 12.1166667,22.9 C11.7,23.4 10.9833333,24.3 10.2666667,24.3 C9.51666667,24.3 9.06666667,22.9166667 9.66666667,21.1 C10.25,19.2833333 12,16.3333333 12.75,15.2333333 C14.05,13.3333333 14.9166667,12.0333333 14.9166667,9.76666667 C14.9166667,6.15 12.1833333,5 10.7333333,5 C8.53333333,5 6.61666667,6.66666667 6.2,7.08333333 C5.6,7.68333333 5.1,8.18333333 4.73333333,8.63333333 L7.65,11.4833333 Z M23.1333333,30.9166667 C22.6166667,30.9166667 21.9,30.4833333 21.9,29.7166667 C21.9,28.7166667 23.1166667,26.05 26.6833333,25.1166667 C26.1833333,29.6 24.3,30.9166667 23.1333333,30.9166667 Z" id="path-3"></path>
        <path d="M33.3333333,11.6666667 L33.3333333,28.3333333 L6.66666667,28.3333333 L6.66666667,11.6666667 L33.3333333,11.6666667 L33.3333333,11.6666667 Z M33.3333333,8.33333333 L6.66666667,8.33333333 C4.83333333,8.33333333 3.35,9.83333333 3.35,11.6666667 L3.33333333,28.3333333 C3.33333333,30.1666667 4.83333333,31.6666667 6.66666667,31.6666667 L33.3333333,31.6666667 C35.1666667,31.6666667 36.6666667,30.1666667 36.6666667,28.3333333 L36.6666667,11.6666667 C36.6666667,9.83333333 35.1666667,8.33333333 33.3333333,8.33333333 L33.3333333,8.33333333 Z M18.3333333,13.3333333 L21.6666667,13.3333333 L21.6666667,16.6666667 L18.3333333,16.6666667 L18.3333333,13.3333333 Z M18.3333333,18.3333333 L21.6666667,18.3333333 L21.6666667,21.6666667 L18.3333333,21.6666667 L18.3333333,18.3333333 Z M13.3333333,13.3333333 L16.6666667,13.3333333 L16.6666667,16.6666667 L13.3333333,16.6666667 L13.3333333,13.3333333 Z M13.3333333,18.3333333 L16.6666667,18.3333333 L16.6666667,21.6666667 L13.3333333,21.6666667 L13.3333333,18.3333333 Z M8.33333333,18.3333333 L11.6666667,18.3333333 L11.6666667,21.6666667 L8.33333333,21.6666667 L8.33333333,18.3333333 Z M8.33333333,13.3333333 L11.6666667,13.3333333 L11.6666667,16.6666667 L8.33333333,16.6666667 L8.33333333,13.3333333 Z M13.3333333,23.3333333 L26.6666667,23.3333333 L26.6666667,26.6666667 L13.3333333,26.6666667 L13.3333333,23.3333333 Z M23.3333333,18.3333333 L26.6666667,18.3333333 L26.6666667,21.6666667 L23.3333333,21.6666667 L23.3333333,18.3333333 Z M23.3333333,13.3333333 L26.6666667,13.3333333 L26.6666667,16.6666667 L23.3333333,16.6666667 L23.3333333,13.3333333 Z M28.3333333,18.3333333 L31.6666667,18.3333333 L31.6666667,21.6666667 L28.3333333,21.6666667 L28.3333333,18.3333333 Z M28.3333333,13.3333333 L31.6666667,13.3333333 L31.6666667,16.6666667 L28.3333333,16.6666667 L28.3333333,13.3333333 Z" id="path-5"></path>
        <path d="M19.9833333,3.33333333 C10.7833333,3.33333333 3.33333333,10.8 3.33333333,20 C3.33333333,29.2 10.7833333,36.6666667 19.9833333,36.6666667 C29.2,36.6666667 36.6666667,29.2 36.6666667,20 C36.6666667,10.8 29.2,3.33333333 19.9833333,3.33333333 Z M20,33.3333333 C12.6333333,33.3333333 6.66666667,27.3666667 6.66666667,20 C6.66666667,12.6333333 12.6333333,6.66666667 20,6.66666667 C27.3666667,6.66666667 33.3333333,12.6333333 33.3333333,20 C33.3333333,27.3666667 27.3666667,33.3333333 20,33.3333333 Z M27.4833333,27.2666667 L18.3333333,21.7833333 L18.3333333,10.7 L21.6666667,10.7 L21.6666667,19.8833333 L29.1833333,24.4 L27.4833333,27.2666667 Z" id="path-7"></path>
    </defs>
    <g id="Illustrations" stroke="none" stroke-width="1" fill="none" fill-rule="evenodd">
        <g id="Productivity" transform="translate(-312.000000, -76.000000)">
            <g id="08-Productivity" transform="translate(312.000000, 76.000000)">
                <g id="icon-1" transform="translate(84.000000, 22.000000)">
                    <circle id="Oval-Copy-2" fill="#1A73E8" cx="30" cy="30" r="30"></circle>
                    <g id="action/settings_24px" transform="translate(10.000000, 10.000000)">
                        <mask id="mask-2" fill="white">
                            <use xlink:href="#path-1"></use>
                        </mask>
                        <g id="ic_settings_24px" fill-rule="nonzero"></g>
                        <g id="Group" mask="url(#mask-2)" fill="#FFFFFF" fill-rule="nonzero">
                            <g id="↪︎-Icon-color">
                                <rect id="_Color/01_Grey/000-White" x="0" y="0" width="40" height="40"></rect>
                            </g>
                        </g>
                    </g>
                </g>
                <g id="icon-2" transform="translate(168.000000, 22.000000)">
                    <circle id="Oval-Copy-6" fill="#1A73E8" cx="30" cy="30" r="30"></circle>
                    <g id="action/check_circle_24px-copy-4" transform="translate(10.000000, 10.000000)">
                        <mask id="mask-4" fill="white">
                            <use xlink:href="#path-3"></use>
                        </mask>
                        <g id="ic_gesture_24px" fill-rule="nonzero"></g>
                        <g id="Group" mask="url(#mask-4)" fill="#FFFFFF" fill-rule="nonzero">
                            <g id="↪︎-Icon-color">
                                <rect id="_Color/01_Grey/000-White" x="0" y="0" width="40" height="40"></rect>
                            </g>
                        </g>
                    </g>
                </g>
                <g id="icon-3" transform="translate(252.000000, 22.000000)">
                    <circle id="Oval-Copy-5" fill="#1A73E8" cx="30" cy="30" r="30"></circle>
                    <g id="hardware/keyboard_24px" transform="translate(10.000000, 10.000000)">
                        <mask id="mask-6" fill="white">
                            <use xlink:href="#path-5"></use>
                        </mask>
                        <g id="ic_keyboard_24px" fill-rule="nonzero"></g>
                        <g id="Group" mask="url(#mask-6)" fill="#FFFFFF" fill-rule="nonzero">
                            <g id="↪︎-Icon-color">
                                <rect id="_Color/01_Grey/000-White" x="0" y="0" width="40" height="40"></rect>
                            </g>
                        </g>
                    </g>
                </g>
                <g id="icon-4" transform="translate(336.000000, 22.000000)">
                    <circle id="Oval-Copy-3" fill="#1A73E8" cx="30" cy="30" r="30"></circle>
                    <g id="device/access_time_24px" transform="translate(10.000000, 10.000000)">
                        <mask id="mask-8" fill="white">
                            <use xlink:href="#path-7"></use>
                        </mask>
                        <g id="ic_access_time_24px" fill-rule="nonzero"></g>
                        <g id="Group" mask="url(#mask-8)" fill="#FFFFFF" fill-rule="nonzero">
                            <g id="↪︎-Icon-color">
                                <rect id="_Color/01_Grey/000-White" x="0" y="0" width="40" height="40"></rect>
                            </g>
                        </g>
                    </g>
                </g>
                <polygon id="bracket" fill="#FBBC04" fill-rule="nonzero" points="432.558704 0 420 12.455 460.793522 53 420 93.545 432.558704 106 486 53"></polygon>
                <polygon id="bracket" fill="#FBBC04" fill-rule="nonzero" points="53.4412955 106 66 93.545 25.2064777 53 66 12.455 53.4412955 0 0 53"></polygon>
            </g>
        </g>
    </g>
</svg>