<?xml version="1.0" encoding="UTF-8"?>
<svg width="704px" height="182px" viewBox="0 0 704 182" version="1.1" xmlns="http://www.w3.org/2000/svg" xmlns:xlink="http://www.w3.org/1999/xlink">
<style>.st12,.st2{fill:#fff}.st12{fill-rule:evenodd;clip-rule:evenodd}.st28{fill:#e8eaed}.st45{fill-rule:evenodd;clip-rule:evenodd;fill:#5f6368}</style><g id="Illustrations"><g id="Publish-Copy" transform="translate(-160 -38)"><g id="_x30_4-Publish" transform="translate(160 38)"><g id="icon" transform="translate(304 60)"><circle id="Oval-Copy-5" cx="30" cy="30" r="30" fill="#1a73e8" fill-rule="evenodd" clip-rule="evenodd"/><path fill="none" d="M-16.7-4.8h24v24h-24v-24z"/><path d="M16.6 35H20v5h20v-5h3.3v5c0 1.8-1.5 3.3-3.3 3.3H20c-1.8 0-3.3-1.5-3.3-3.3M24 27.3l4.3-4.3v13.7h3.3V23l4.3 4.3 2.4-2.4-8.3-8.3-8.4 8.4 2.4 2.3z" class="st2"/></g><g id="Apps" transform="translate(0 23)"><linearGradient id="Rectangle_3_" x1="214" x2="214" y1="269.57" y2="268.57" gradientTransform="matrix(62 0 0 -62 -13237 16713.32)" gradientUnits="userSpaceOnUse"><stop offset="0" stop-color="#4285f4"/><stop offset="1" stop-color="#1a73e8"/></linearGradient><path id="Rectangle" fill="url(#Rectangle_3_)" fill-rule="evenodd" d="M12 0h38c6.6 0 12 5.4 12 12v38c0 6.6-5.4 12-12 12H12C5.4 62 0 56.6 0 50V12C0 5.4 5.4 0 12 0z" clip-rule="evenodd"/><linearGradient id="Rectangle-Copy-17_1_" x1="214" x2="214" y1="269.57" y2="268.57" gradientTransform="matrix(62 0 0 -62 -13097 16785.32)" gradientUnits="userSpaceOnUse"><stop offset="0" stop-color="#4285f4"/><stop offset="1" stop-color="#1a73e8"/></linearGradient><path id="Rectangle-Copy-17" fill="url(#Rectangle-Copy-17_1_)" fill-rule="evenodd" d="M152 72h38c6.6 0 12 5.4 12 12v38c0 6.6-5.4 12-12 12h-38c-6.6 0-12-5.4-12-12V84c0-6.6 5.4-12 12-12z" clip-rule="evenodd"/><linearGradient id="Rectangle-Copy-2_2_" x1="214" x2="214" y1="269.553" y2="268.57" gradientTransform="matrix(62 0 0 -62 -13167 16713.32)" gradientUnits="userSpaceOnUse"><stop offset="0" stop-color="#ee675c"/><stop offset="1" stop-color="#ea4335"/></linearGradient><path id="Rectangle-Copy-2" fill="url(#Rectangle-Copy-2_2_)" fill-rule="evenodd" d="M82 0h38c6.6 0 12 5.4 12 12v38c0 6.6-5.4 12-12 12H82c-6.6 0-12-5.4-12-12V12c0-6.6 5.4-12 12-12z" clip-rule="evenodd"/><linearGradient id="Rectangle-Copy-18_1_" x1="214" x2="214" y1="269.553" y2="268.57" gradientTransform="matrix(62 0 0 -62 -13027 16785.32)" gradientUnits="userSpaceOnUse"><stop offset="0" stop-color="#ee675c"/><stop offset="1" stop-color="#ea4335"/></linearGradient><path id="Rectangle-Copy-18" fill="url(#Rectangle-Copy-18_1_)" fill-rule="evenodd" d="M222 72h38c6.6 0 12 5.4 12 12v38c0 6.6-5.4 12-12 12h-38c-6.6 0-12-5.4-12-12V84c0-6.6 5.4-12 12-12z" clip-rule="evenodd"/><linearGradient id="Rectangle-Copy-5_2_" x1="214" x2="214" y1="269.57" y2="268.57" gradientTransform="matrix(62 0 0 -62 -13027 16713.32)" gradientUnits="userSpaceOnUse"><stop offset="0" stop-color="#fdd663"/><stop offset="1" stop-color="#fbbc04"/></linearGradient><path id="Rectangle-Copy-5" fill="url(#Rectangle-Copy-5_2_)" fill-rule="evenodd" d="M222 0h38c6.6 0 12 5.4 12 12v38c0 6.6-5.4 12-12 12h-38c-6.6 0-12-5.4-12-12V12c0-6.6 5.4-12 12-12z" clip-rule="evenodd"/><linearGradient id="Rectangle-Copy-14_1_" x1="214" x2="214" y1="269.57" y2="268.57" gradientTransform="matrix(62 0 0 -62 -13167 16785.32)" gradientUnits="userSpaceOnUse"><stop offset="0" stop-color="#fdd663"/><stop offset="1" stop-color="#fbbc04"/></linearGradient><path id="Rectangle-Copy-14" fill="url(#Rectangle-Copy-14_1_)" fill-rule="evenodd" d="M82 72h38c6.6 0 12 5.4 12 12v38c0 6.6-5.4 12-12 12H82c-6.6 0-12-5.4-12-12V84c0-6.6 5.4-12 12-12z" clip-rule="evenodd"/><linearGradient id="Rectangle-Copy-15_1_" x1="214" x2="214" y1="269.57" y2="268.57" gradientTransform="matrix(62 0 0 -62 -13097 16713.32)" gradientUnits="userSpaceOnUse"><stop offset="0" stop-color="#5bb974"/><stop offset="1" stop-color="#34a853"/></linearGradient><path id="Rectangle-Copy-15" fill="url(#Rectangle-Copy-15_1_)" fill-rule="evenodd" d="M152 0h38c6.6 0 12 5.4 12 12v38c0 6.6-5.4 12-12 12h-38c-6.6 0-12-5.4-12-12V12c0-6.6 5.4-12 12-12z" clip-rule="evenodd"/><linearGradient id="Rectangle-Copy-16_1_" x1="214" x2="214" y1="269.57" y2="268.57" gradientTransform="matrix(62 0 0 -62 -13237 16785.32)" gradientUnits="userSpaceOnUse"><stop offset="0" stop-color="#5bb974"/><stop offset="1" stop-color="#34a853"/></linearGradient><path id="Rectangle-Copy-16" fill="url(#Rectangle-Copy-16_1_)" fill-rule="evenodd" d="M12 72h38c6.6 0 12 5.4 12 12v38c0 6.6-5.4 12-12 12H12c-6.6 0-12-5.4-12-12V84c0-6.6 5.4-12 12-12z" clip-rule="evenodd"/><g id="action_x2F_account_x5F_balance_x5F_24px" transform="translate(15 15)"><defs><filter id="Adobe_OpacityMaskFilter" width="32" height="32" x="0" y="0" filterUnits="userSpaceOnUse"><feColorMatrix values="1 0 0 0 0 0 1 0 0 0 0 0 1 0 0 0 0 0 1 0"/></filter></defs><mask id="mask-8_1_" width="32" height="32" x="0" y="0" maskUnits="userSpaceOnUse"><g filter="url(#Adobe_OpacityMaskFilter)"><path id="path-7_1_" d="M9.3 13.3h-4v9.3h4v-9.3zm8 0h-4v9.3h4v-9.3zm10.7 12H2.7V28H28v-2.7zm-2.7-12h-4v9.3h4v-9.3zm-10-9l7 3.7H8.4l6.9-3.7zm0-3L2.7 8v2.7H28V8L15.3 1.3z" class="st12"/></g></mask><g id="Group_1_" mask="url(#mask-8_1_)"><g id="_x21AA__xFE0E_-Icon-color_1_"><path id="_x5F_Color_x2F_01_x5F_Grey_x2F_000-White_1_" d="M0 0h32v32H0z" class="st2"/></g></g></g><g id="av_x2F_equalizer_x5F_24px" transform="translate(85 15)"><defs><filter id="Adobe_OpacityMaskFilter_1_" width="32" height="32" x="0" y="0" filterUnits="userSpaceOnUse"><feColorMatrix values="1 0 0 0 0 0 1 0 0 0 0 0 1 0 0 0 0 0 1 0"/></filter></defs><mask id="mask-10_1_" width="32" height="32" x="0" y="0" maskUnits="userSpaceOnUse"><g filter="url(#Adobe_OpacityMaskFilter_1_)"><path id="path-9_1_" d="M5.3 16h5.3v10.7H5.3V16zm8-10.7h5.3v21.3h-5.3V5.3zm8 6.7h5.3v14.7h-5.3V12z" class="st12"/></g></mask><g id="Group_2_" mask="url(#mask-10_1_)"><g id="_x21AA__xFE0E_-Icon-color_2_"><path id="_x5F_Color_x2F_01_x5F_Grey_x2F_000-White_2_" d="M0 0h32v32H0z" class="st2"/></g></g></g><g id="places_x2F_ac_x5F_unit_x5F_24px" transform="translate(155 87)"><defs><filter id="Adobe_OpacityMaskFilter_2_" width="32" height="32" x="0" y="0" filterUnits="userSpaceOnUse"><feColorMatrix values="1 0 0 0 0 0 1 0 0 0 0 0 1 0 0 0 0 0 1 0"/></filter></defs><mask id="mask-12_1_" width="32" height="32" x="0" y="0" maskUnits="userSpaceOnUse"><g filter="url(#Adobe_OpacityMaskFilter_2_)"><path id="path-11_1_" d="M29.3 14.7h-5.5l4.3-4.4-1.9-1.8-6.2 6.2h-2.7V12l6.2-6.2-1.8-1.9-4.4 4.3V2.7h-2.6v5.5l-4.4-4.3-1.8 1.9 6.2 6.2v2.7H12L5.8 8.5l-1.9 1.8 4.3 4.4H2.7v2.6h5.5l-4.3 4.4 1.9 1.8 6.2-6.2h2.7V20l-6.2 6.2 1.8 1.9 4.4-4.3v5.5h2.6v-5.5l4.4 4.3 1.8-1.9-6.2-6.2v-2.7H20l6.2 6.2 1.9-1.8-4.3-4.4h5.5z" class="st12"/></g></mask><g id="Group_3_" mask="url(#mask-12_1_)"><g id="_x21AA__xFE0E_-Icon-color_3_"><path id="_x5F_Color_x2F_01_x5F_Grey_x2F_000-White_3_" d="M0 0h32v32H0z" class="st2"/></g></g></g><g id="maps_x2F_flight_x5F_24px" transform="translate(85 87)"><defs><filter id="Adobe_OpacityMaskFilter_3_" width="32" height="32" x="0" y="0" filterUnits="userSpaceOnUse"><feColorMatrix values="1 0 0 0 0 0 1 0 0 0 0 0 1 0 0 0 0 0 1 0"/></filter></defs><mask id="mask-14_1_" width="32" height="32" x="0" y="0" maskUnits="userSpaceOnUse"><g filter="url(#Adobe_OpacityMaskFilter_3_)"><path id="path-13_1_" d="M28 21.3v-2.7L17.3 12V4.7c0-1.1-.9-2-2-2s-2 .9-2 2V12L2.7 18.7v2.7L13.3 18v7.3l-2.7 2v2l4.7-1.3 4.7 1.3v-2l-2.7-2V18L28 21.3z" class="st12"/></g></mask><g id="Group_4_" mask="url(#mask-14_1_)"><g id="_x21AA__xFE0E_-Icon-color_4_"><path id="_x5F_Color_x2F_01_x5F_Grey_x2F_000-White_4_" d="M0 0h32v32H0z" class="st2"/></g></g></g><g id="places_x2F_flatware_x5F_24px" transform="translate(155 15)"><defs><filter id="Adobe_OpacityMaskFilter_4_" width="32" height="32" x="0" y="0" filterUnits="userSpaceOnUse"><feColorMatrix values="1 0 0 0 0 0 1 0 0 0 0 0 1 0 0 0 0 0 1 0"/></filter></defs><mask id="mask-16_1_" width="32" height="32" x="0" y="0" maskUnits="userSpaceOnUse"><g filter="url(#Adobe_OpacityMaskFilter_4_)"><path id="path-15_1_" d="M20.7 9.4c0 2.4-1.1 4.3-2.7 5.1V28h-2.7V14.5c-1.5-.8-2.7-2.7-2.7-5.1 0-3 1.8-5.4 4-5.4 2.3 0 4.1 2.4 4.1 5.4zm2-5.4v24h2.7V17.3H28v-8C28 7 26.3 4 22.7 4zM11 4c-.5 0-1 .4-1 1v4.4H9V5c0-.5-.4-1-1-1s-1 .4-1 1v4.4H5.9V5c0-.5-.4-1-1-1S4 4.4 4 5v7c0 1.5 1.2 2.7 2.7 2.7V28h2.7V14.7c1.5 0 2.7-1.2 2.7-2.7V5c-.1-.6-.5-1-1.1-1z" class="st12"/></g></mask><g id="Group_5_" mask="url(#mask-16_1_)"><g id="_x21AA__xFE0E_-Icon-color_5_"><path id="_x5F_Color_x2F_01_x5F_Grey_x2F_000-White_5_" d="M0 0h32v32H0z" class="st2"/></g></g></g><g id="image_x2F_flash_x5F_on_x5F_24px" transform="translate(225 15)"><defs><filter id="Adobe_OpacityMaskFilter_5_" width="32" height="32" x="0" y="0" filterUnits="userSpaceOnUse"><feColorMatrix values="1 0 0 0 0 0 1 0 0 0 0 0 1 0 0 0 0 0 1 0"/></filter></defs><mask id="mask-18_1_" width="32" height="32" x="0" y="0" maskUnits="userSpaceOnUse"><g filter="url(#Adobe_OpacityMaskFilter_5_)"><path id="path-17_1_" d="M9.3 2.7v14.6h4v12l9.4-16h-5.4l4-10.6z" class="st12"/></g></mask><g id="Group_6_" mask="url(#mask-18_1_)"><g id="_x21AA__xFE0E_-Icon-color_6_"><path id="_x5F_Color_x2F_01_x5F_Grey_x2F_000-White_6_" d="M0 0h32v32H0z" class="st2"/></g></g></g><g id="image_x2F_audiotrack_x5F_24px" transform="translate(225 87)"><defs><filter id="Adobe_OpacityMaskFilter_6_" width="32" height="32" x="0" y="0" filterUnits="userSpaceOnUse"><feColorMatrix values="1 0 0 0 0 0 1 0 0 0 0 0 1 0 0 0 0 0 1 0"/></filter></defs><mask id="mask-20_1_" width="32" height="32" x="0" y="0" maskUnits="userSpaceOnUse"><g filter="url(#Adobe_OpacityMaskFilter_6_)"><path id="path-19_1_" d="M16 4v14.1c-.8-.5-1.7-.7-2.7-.7-2.9 0-5.3 2.4-5.3 5.3s2.4 5.3 5.3 5.3 5.3-2.4 5.3-5.3V9.3H24V4h-8z" class="st12"/></g></mask><g id="Group_7_" mask="url(#mask-20_1_)"><g id="_x21AA__xFE0E_-Icon-color_7_"><path id="_x5F_Color_x2F_01_x5F_Grey_x2F_000-White_7_" d="M0 0h32v32H0z" class="st2"/></g></g></g><g id="editor_x2F_attach_x5F_money_x5F_24px" transform="translate(15 87)"><defs><filter id="Adobe_OpacityMaskFilter_7_" width="32" height="32" x="0" y="0" filterUnits="userSpaceOnUse"><feColorMatrix values="1 0 0 0 0 0 1 0 0 0 0 0 1 0 0 0 0 0 1 0"/></filter></defs><mask id="mask-22_1_" width="32" height="32" x="0" y="0" maskUnits="userSpaceOnUse"><g filter="url(#Adobe_OpacityMaskFilter_7_)"><path id="path-21_1_" d="M21 16.6c-.8-.9-2-1.5-3.6-2.1l-1.1-.4c-1.1-.4-1.9-.7-2.3-1.1-.5-.4-.7-.9-.7-1.5 0-.7.3-1.2.8-1.6.6-.4 1.2-.6 2.1-.6.8 0 1.5.2 2 .7.5.4.9.9 1.1 1.5l2.5-1.1c-.3-.9-.9-1.8-1.9-2.6-.7-.5-1.5-.9-2.5-1V4h-2.7v2.8c-.5.1-1.1.3-1.5.5-.9.4-1.5 1-2 1.8s-.7 1.6-.7 2.5c0 1.3.4 2.3 1.2 3.1.8.8 1.8 1.4 3 1.8l1.1.4c1.3.5 2.3 1 2.8 1.4.5.5.8 1.1.8 1.8 0 .8-.3 1.4-.9 1.9-.6.5-1.4.7-2.2.7-.9 0-1.8-.3-2.4-.9-.7-.6-1.1-1.4-1.4-2.4l-2.6 1.1c.5 1.6 1.3 2.8 2.4 3.6.8.6 1.6.9 2.5 1.1V28h2.7v-2.8c.6-.1 1.2-.2 1.7-.5.9-.4 1.7-1 2.3-1.8.6-.8.9-1.8.9-2.9-.2-1.4-.6-2.5-1.4-3.4z" class="st12"/></g></mask><g id="Group_8_" mask="url(#mask-22_1_)"><g id="_x21AA__xFE0E_-Icon-color_8_"><path id="_x5F_Color_x2F_01_x5F_Grey_x2F_000-White_8_" d="M0 0h32v32H0z" class="st2"/></g></g></g></g><g id="Laptop-Frame" transform="translate(370)"><path id="frame-bottom" d="M299.7 0H29.3C26.9 0 25 1.9 25 4.3V175h279V4.3c0-2.4-1.9-4.3-4.3-4.3zm-3.8 162.3h-263V13.4H296v148.9z" class="st28"/><g id="DESIGN-HERE" transform="translate(29 12)"><g id="Mask"><path id="path-23_1_" d="M0 .1h270V153H0z" class="st12"/></g><defs><filter id="Adobe_OpacityMaskFilter_8_" width="38.6" height="155" x="3.5" y=".3" filterUnits="userSpaceOnUse"><feColorMatrix values="1 0 0 0 0 0 1 0 0 0 0 0 1 0 0 0 0 0 1 0"/></filter></defs><mask id="mask-24_1_" width="38.6" height="155" x="3.5" y=".3" maskUnits="userSpaceOnUse"><g filter="url(#Adobe_OpacityMaskFilter_8_)"><path id="path-23_2_" d="M0 .1h270V153H0z" class="st12"/></g></mask><path id="Rectangle_1_" fill="#f1f3f4" fill-rule="evenodd" d="M3.5.3h38.6v155H3.5z" clip-rule="evenodd" mask="url(#mask-24_1_)"/><defs><filter id="Adobe_OpacityMaskFilter_9_" width="16" height="16" x="15" y="8" filterUnits="userSpaceOnUse"><feColorMatrix values="1 0 0 0 0 0 1 0 0 0 0 0 1 0 0 0 0 0 1 0"/></filter></defs><mask id="mask-24_2_" width="16" height="16" x="15" y="8" maskUnits="userSpaceOnUse"><g filter="url(#Adobe_OpacityMaskFilter_9_)"><path id="path-23_3_" d="M0 .1h270V153H0z" class="st12"/></g></mask><g id="play_prism_24dp" mask="url(#mask-24_2_)"><g transform="translate(15 8)"><path id="Path" fill="#fff" fill-opacity="0" d="M0 0h16v16H0z"/><linearGradient id="Path_7_" x1="-225.825" x2="-226.171" y1="266.543" y2="265.874" gradientTransform="matrix(7.3708 0 0 -14.295 1670.72 3811.828)" gradientUnits="userSpaceOnUse"><stop offset="0" stop-color="#00a0ff"/><stop offset=".007" stop-color="#00a1ff"/><stop offset=".26" stop-color="#00beff"/><stop offset=".512" stop-color="#00d2ff"/><stop offset=".76" stop-color="#00dfff"/><stop offset="1" stop-color="#00e3ff"/></linearGradient><path id="Path_1_" fill="url(#Path_7_)" d="M1.9.9c-.1.2-.2.4-.2.8v12.6c0 .4.1.6.3.8l7-7v-.2L1.9.9z"/><linearGradient id="Path_9_" x1="-233.365" x2="-235.745" y1="251.102" y2="251.102" gradientTransform="matrix(5.7958 0 0 -4.8775 1367.816 1232.753)" gradientUnits="userSpaceOnUse"><stop offset="0" stop-color="#ffe000"/><stop offset=".409" stop-color="#ffbd00"/><stop offset=".775" stop-color="orange"/><stop offset="1" stop-color="#ff9c00"/></linearGradient><path id="Path_2_" fill="url(#Path_9_)" d="M11.4 10.4L9 8.1v-.2l2.4-2.4h.1l2.8 1.6c.8.5.8 1.2 0 1.6l-2.9 1.7z"/><linearGradient id="Path_10_" x1="-219.01" x2="-220.374" y1="259" y2="257.949" gradientTransform="matrix(9.515 0 0 -7.3334 2093.386 1908.994)" gradientUnits="userSpaceOnUse"><stop offset="0" stop-color="#ff3a44"/><stop offset="1" stop-color="#c31162"/></linearGradient><path id="Path_3_" fill="url(#Path_10_)" d="M11.4 10.4L9 8l-7.1 7.1c.3.3.7.3 1.2 0l8.3-4.7"/><linearGradient id="Path_11_" x1="-220.06" x2="-219.451" y1="259.257" y2="258.788" gradientTransform="matrix(9.515 0 0 -7.3334 2093.386 1901.66)" gradientUnits="userSpaceOnUse"><stop offset="0" stop-color="#32a071"/><stop offset=".069" stop-color="#2da771"/><stop offset=".476" stop-color="#15cf74"/><stop offset=".801" stop-color="#06e775"/><stop offset="1" stop-color="#00f076"/></linearGradient><path id="Path_4_" fill="url(#Path_11_)" d="M11.4 5.6L3.1.9C2.6.6 2.2.7 1.9.9L9 8l2.4-2.4z"/><path id="Path_5_" d="M11.4 10.4l-8.3 4.7c-.5.3-.9.2-1.1 0 .3.2.7.3 1.1 0l8.3-4.7z" enable-background="new" opacity=".2"/><path id="Shape" d="M1.9 15c-.2-.2-.3-.4-.3-.8v.1c.1.4.2.6.3.7zm12.3-6.3l-2.8 1.6.1.1 2.7-1.7c.4-.1.6-.4.6-.7 0 .3-.2.5-.6.7z" enable-background="new" opacity=".12"/><path id="Path_6_" fill="#fff" d="M3.1.9l11.1 6.3c.4.2.6.5.6.7 0-.3-.2-.6-.6-.8L3.1.9c-.8-.5-1.4-.1-1.4.8v.1c0-.9.6-1.3 1.4-.9z" enable-background="new" opacity=".25"/></g></g><defs><filter id="Adobe_OpacityMaskFilter_10_" width="14" height="14" x="15.4" y="32.8" filterUnits="userSpaceOnUse"><feColorMatrix values="1 0 0 0 0 0 1 0 0 0 0 0 1 0 0 0 0 0 1 0"/></filter></defs><mask id="mask-24_3_" width="14" height="14" x="15.4" y="32.8" maskUnits="userSpaceOnUse"><g filter="url(#Adobe_OpacityMaskFilter_10_)"><path id="path-23_4_" d="M0 .1h270V153H0z" class="st12"/></g></mask><g id="Group_10_" mask="url(#mask-24_3_)"><g id="action_x2F_account_x5F_circle_x5F_filled_x5F_24px-copy" transform="translate(15.364 32.793)"><defs><filter id="Adobe_OpacityMaskFilter_11_" width="14" height="14" x="0" y="0" filterUnits="userSpaceOnUse"><feColorMatrix values="1 0 0 0 0 0 1 0 0 0 0 0 1 0 0 0 0 0 1 0"/></filter></defs><mask id="mask-30_1_" width="14" height="14" x="0" y="0" maskUnits="userSpaceOnUse"><g filter="url(#Adobe_OpacityMaskFilter_11_)"><path id="path-29_1_" d="M12.3 3.5H1.8C1.1 3.5.6 4 .6 4.7v4.7c0 .6.5 1.2 1.2 1.2h10.5c.6 0 1.2-.5 1.2-1.2V4.7c-.1-.7-.6-1.2-1.2-1.2zM5.8 7.6H4.7v1.2c0 .3-.3.6-.6.6s-.6-.3-.6-.6V7.6H2.3c-.3 0-.5-.3-.5-.6s.3-.6.6-.6h1.2V5.3c0-.3.3-.6.6-.6s.6.3.6.6v1.2H6c.3 0 .6.3.6.6-.2.2-.4.5-.8.5zm3.3 1.2c-.5 0-.9-.4-.9-.9s.4-.9.9-.9.9.4.9.9-.5.9-.9.9zM11.4 7c-.5 0-.9-.4-.9-.9s.4-.9.9-.9.9.4.9.9-.4.9-.9.9z" class="st12"/></g></mask><g id="Group_9_" mask="url(#mask-30_1_)"><g id="_x21B3_-Color"><path id="_x5F_Color_x2F_01_x5F_Grey_x2F_700" d="M0 0h14v14H0z" class="st45"/></g></g></g></g><defs><filter id="Adobe_OpacityMaskFilter_12_" width="14" height="14" x="15.4" y="99.8" filterUnits="userSpaceOnUse"><feColorMatrix values="1 0 0 0 0 0 1 0 0 0 0 0 1 0 0 0 0 0 1 0"/></filter></defs><mask id="mask-24_4_" width="14" height="14" x="15.4" y="99.8" maskUnits="userSpaceOnUse"><g filter="url(#Adobe_OpacityMaskFilter_12_)"><path id="path-23_5_" d="M0 .1h270V153H0z" class="st12"/></g></mask><g id="Group_12_" mask="url(#mask-24_4_)"><g id="action_x2F_account_x5F_circle_x5F_filled_x5F_24px-copy-3" transform="translate(15.364 99.818)"><defs><filter id="Adobe_OpacityMaskFilter_13_" width="14" height="14" x="0" y="0" filterUnits="userSpaceOnUse"><feColorMatrix values="1 0 0 0 0 0 1 0 0 0 0 0 1 0 0 0 0 0 1 0"/></filter></defs><mask id="mask-32_1_" width="14" height="14" x="0" y="0" maskUnits="userSpaceOnUse"><g filter="url(#Adobe_OpacityMaskFilter_13_)"><path id="path-31_1_" d="M11.7 1.8h-1.2V3H9.4V1.8H4.7V3H3.5V1.8H2.3v10.5h1.2v-1.2h1.2v1.2h4.7v-1.2h1.2v1.2h1.2V1.8h-.1zM9.4 5.3V4.1h1.2v1.2H9.4zm-5.9 0V4.1h1.2v1.2H3.5zm5.9 2.3V6.4h1.2v1.2H9.4zm-5.9 0V6.4h1.2v1.2H3.5zm5.9 2.3V8.8h1.2V10H9.4v-.1zm-5.9 0V8.8h1.2V10H3.5v-.1z" class="st12"/></g></mask><g id="Group_11_" mask="url(#mask-32_1_)"><g id="_x21AA__xFE0E_-Icon-color_9_"><path id="swatch" d="M0 0h14v14H0z" class="st45"/></g></g></g></g><defs><filter id="Adobe_OpacityMaskFilter_14_" width="14" height="14" x="15.4" y="77.5" filterUnits="userSpaceOnUse"><feColorMatrix values="1 0 0 0 0 0 1 0 0 0 0 0 1 0 0 0 0 0 1 0"/></filter></defs><mask id="mask-24_5_" width="14" height="14" x="15.4" y="77.5" maskUnits="userSpaceOnUse"><g filter="url(#Adobe_OpacityMaskFilter_14_)"><path id="path-23_6_" d="M0 .1h270V153H0z" class="st12"/></g></mask><g id="Group_14_" mask="url(#mask-24_5_)"><g id="action_x2F_account_x5F_circle_x5F_filled_x5F_24px-copy-4" transform="translate(15.364 77.476)"><defs><filter id="Adobe_OpacityMaskFilter_15_" width="14" height="14" x="0" y="0" filterUnits="userSpaceOnUse"><feColorMatrix values="1 0 0 0 0 0 1 0 0 0 0 0 1 0 0 0 0 0 1 0"/></filter></defs><mask id="mask-34_1_" width="14" height="14" x="0" y="0" maskUnits="userSpaceOnUse"><g filter="url(#Adobe_OpacityMaskFilter_15_)"><path id="path-33_1_" d="M10.5 1.2h-7c-.6 0-1.2.5-1.2 1.2v9.3c0 .6.5 1.2 1.2 1.2h7c.6 0 1.2-.5 1.2-1.2V2.3c0-.6-.5-1.1-1.2-1.1zm-7 1.1h2.9V7L5 6.1 3.5 7V2.3z" class="st12"/></g></mask><g id="Group_13_" mask="url(#mask-34_1_)"><g id="_x21B3_-Color_1_"><path id="_x5F_Color_x2F_01_x5F_Grey_x2F_700_1_" d="M0 0h14v14H0z" class="st45"/></g></g></g></g><defs><filter id="Adobe_OpacityMaskFilter_16_" width="14" height="14" x="15.4" y="55.1" filterUnits="userSpaceOnUse"><feColorMatrix values="1 0 0 0 0 0 1 0 0 0 0 0 1 0 0 0 0 0 1 0"/></filter></defs><mask id="mask-24_6_" width="14" height="14" x="15.4" y="55.1" maskUnits="userSpaceOnUse"><g filter="url(#Adobe_OpacityMaskFilter_16_)"><path id="path-23_7_" d="M0 .1h270V153H0z" class="st12"/></g></mask><g id="Group_16_" mask="url(#mask-24_6_)"><g id="action_x2F_account_x5F_circle_x5F_filled_x5F_24px-copy-2" transform="translate(15.364 55.134)"><defs><filter id="Adobe_OpacityMaskFilter_17_" width="14" height="14" x="0" y="0" filterUnits="userSpaceOnUse"><feColorMatrix values="1 0 0 0 0 0 1 0 0 0 0 0 1 0 0 0 0 0 1 0"/></filter></defs><mask id="mask-36_1_" width="14" height="14" x="0" y="0" maskUnits="userSpaceOnUse"><g filter="url(#Adobe_OpacityMaskFilter_17_)"><path id="path-35_1_" d="M3.5 4.7c.6 0 1.2-.5 1.2-1.2 0-.6-.5-1.2-1.2-1.2-.6 0-1.2.5-1.2 1.2 0 .6.6 1.2 1.2 1.2zm3.5 7c.6 0 1.2-.5 1.2-1.2 0-.6-.5-1.2-1.2-1.2-.6 0-1.2.5-1.2 1.2 0 .6.6 1.2 1.2 1.2zm-3.5 0c.6 0 1.2-.5 1.2-1.2 0-.6-.5-1.2-1.2-1.2-.6 0-1.2.5-1.2 1.2 0 .6.6 1.2 1.2 1.2zm0-3.5c.6 0 1.2-.5 1.2-1.2 0-.6-.5-1.2-1.2-1.2-.6 0-1.2.6-1.2 1.2s.6 1.2 1.2 1.2zm3.5 0c.6 0 1.2-.5 1.2-1.2 0-.6-.5-1.2-1.2-1.2-.6 0-1.2.6-1.2 1.2S6.4 8.2 7 8.2zm2.4-4.7c0 .6.5 1.2 1.2 1.2.6 0 1.2-.5 1.2-1.2 0-.6-.5-1.2-1.2-1.2s-1.2.6-1.2 1.2zM7 4.7c.6 0 1.2-.5 1.2-1.2 0-.6-.5-1.2-1.2-1.2-.6 0-1.2.5-1.2 1.2 0 .6.6 1.2 1.2 1.2zm3.5 3.5c.6 0 1.2-.5 1.2-1.2 0-.6-.5-1.2-1.2-1.2-.6 0-1.1.6-1.1 1.2s.5 1.2 1.1 1.2zm0 3.5c.6 0 1.2-.5 1.2-1.2 0-.6-.5-1.2-1.2-1.2-.6 0-1.2.5-1.2 1.2.1.6.6 1.2 1.2 1.2z" class="st12"/></g></mask><g id="Group_15_" mask="url(#mask-36_1_)"><g id="_x21AA__xFE0E_-Icon-color_10_"><path id="swatch_1_" d="M0 0h14v14H0z" class="st45"/></g></g></g></g><defs><filter id="Adobe_OpacityMaskFilter_18_" width="184.7" height="135.4" x="66.6" y="7.1" filterUnits="userSpaceOnUse"><feColorMatrix values="1 0 0 0 0 0 1 0 0 0 0 0 1 0 0 0 0 0 1 0"/></filter></defs><mask id="mask-24_7_" width="184.7" height="135.4" x="66.6" y="7.1" maskUnits="userSpaceOnUse"><g filter="url(#Adobe_OpacityMaskFilter_18_)"><path id="path-23_8_" d="M0 .1h270V153H0z" class="st12"/></g></mask><g id="Group_19_" mask="url(#mask-24_7_)"><g transform="translate(66.623 7.114)"><linearGradient id="Rectangle_4_" x1="-256.195" x2="-256.195" y1="271.11" y2="270.11" gradientTransform="matrix(26.8831 0 0 -26.8429 6900.771 7353.263)" gradientUnits="userSpaceOnUse"><stop offset="0" stop-color="#4285f4"/><stop offset="1" stop-color="#1a73e8"/></linearGradient><path id="Rectangle_2_" fill="url(#Rectangle_4_)" fill-rule="evenodd" d="M4.4 75.9h18.2c2.4 0 4.4 2 4.4 4.4v18.1c0 2.4-2 4.4-4.4 4.4H4.4c-2.4 0-4.4-2-4.4-4.4V80.2c0-2.4 2-4.3 4.4-4.3z" clip-rule="evenodd"/><linearGradient id="Rectangle-Copy-13_1_" x1="-249.298" x2="-249.298" y1="272.448" y2="271.451" gradientTransform="matrix(184.6753 0 0 -39.6809 46131.602 10837.83)" gradientUnits="userSpaceOnUse"><stop offset="0" stop-color="#fde293"/><stop offset="1" stop-color="#fcc934"/></linearGradient><path id="Rectangle-Copy-13" fill="url(#Rectangle-Copy-13_1_)" fill-rule="evenodd" d="M4.4 26.8h175.9c2.4 0 4.4 2 4.4 4.4v31c0 2.4-2 4.4-4.4 4.4H4.4c-2.4 0-4.4-2-4.4-4.4v-31c0-2.4 2-4.4 4.4-4.4z" clip-rule="evenodd"/><linearGradient id="Rectangle-Copy-3_1_" x1="-256.195" x2="-256.195" y1="271.11" y2="270.11" gradientTransform="matrix(26.8831 0 0 -26.8429 7027.005 7353.263)" gradientUnits="userSpaceOnUse"><stop offset="0" stop-color="#4285f4"/><stop offset="1" stop-color="#1a73e8"/></linearGradient><path id="Rectangle-Copy-3" fill="url(#Rectangle-Copy-3_1_)" fill-rule="evenodd" d="M130.6 75.9h18.2c2.4 0 4.4 2 4.4 4.4v18.1c0 2.4-2 4.4-4.4 4.4h-18.2c-2.4 0-4.4-2-4.4-4.4V80.2c0-2.4 2-4.3 4.4-4.3z" clip-rule="evenodd"/><linearGradient id="Rectangle-Copy-7_1_" x1="-256.195" x2="-256.195" y1="271.11" y2="270.11" gradientTransform="matrix(26.8831 0 0 -26.8429 6963.888 7385.941)" gradientUnits="userSpaceOnUse"><stop offset="0" stop-color="#4285f4"/><stop offset="1" stop-color="#1a73e8"/></linearGradient><path id="Rectangle-Copy-7" fill="url(#Rectangle-Copy-7_1_)" fill-rule="evenodd" d="M67.5 108.5h18.2c2.4 0 4.4 2 4.4 4.4V131c0 2.4-2 4.4-4.4 4.4H67.5c-2.4 0-4.4-2-4.4-4.4v-18.1c0-2.4 2-4.4 4.4-4.4z" clip-rule="evenodd"/><linearGradient id="Rectangle-Copy-2_3_" x1="-256.195" x2="-256.195" y1="271.094" y2="270.11" gradientTransform="matrix(26.8831 0 0 -26.8429 6932.33 7353.263)" gradientUnits="userSpaceOnUse"><stop offset="0" stop-color="#ee675c"/><stop offset="1" stop-color="#ea4335"/></linearGradient><path id="Rectangle-Copy-2_1_" fill="url(#Rectangle-Copy-2_3_)" fill-rule="evenodd" d="M35.9 75.9h18.2c2.4 0 4.4 2 4.4 4.4v18.1c0 2.4-2 4.4-4.4 4.4H35.9c-2.4 0-4.4-2-4.4-4.4V80.2c.1-2.4 2-4.3 4.4-4.3z" clip-rule="evenodd"/><linearGradient id="Rectangle-Copy-6_1_" x1="-256.195" x2="-256.195" y1="271.094" y2="270.11" gradientTransform="matrix(26.8831 0 0 -26.8429 7058.564 7353.263)" gradientUnits="userSpaceOnUse"><stop offset="0" stop-color="#ee675c"/><stop offset="1" stop-color="#ea4335"/></linearGradient><path id="Rectangle-Copy-6" fill="url(#Rectangle-Copy-6_1_)" fill-rule="evenodd" d="M162.2 75.9h18.2c2.4 0 4.4 2 4.4 4.4v18.1c0 2.4-2 4.4-4.4 4.4h-18.2c-2.4 0-4.4-2-4.4-4.4V80.2c0-2.4 1.9-4.3 4.4-4.3z" clip-rule="evenodd"/><linearGradient id="Rectangle-Copy-8_1_" x1="-256.195" x2="-256.195" y1="271.094" y2="270.11" gradientTransform="matrix(26.8831 0 0 -26.8429 6995.447 7385.941)" gradientUnits="userSpaceOnUse"><stop offset="0" stop-color="#ee675c"/><stop offset="1" stop-color="#ea4335"/></linearGradient><path id="Rectangle-Copy-8" fill="url(#Rectangle-Copy-8_1_)" fill-rule="evenodd" d="M99 108.5h18.2c2.4 0 4.4 2 4.4 4.4V131c0 2.4-2 4.4-4.4 4.4H99c-2.4 0-4.4-2-4.4-4.4v-18.1c.1-2.4 2-4.4 4.4-4.4z" clip-rule="evenodd"/><linearGradient id="Rectangle-Copy-5_3_" x1="-256.195" x2="-256.195" y1="271.11" y2="270.11" gradientTransform="matrix(26.8831 0 0 -26.8429 6963.888 7353.263)" gradientUnits="userSpaceOnUse"><stop offset="0" stop-color="#fdd663"/><stop offset="1" stop-color="#fbbc04"/></linearGradient><path id="Rectangle-Copy-5_1_" fill="url(#Rectangle-Copy-5_3_)" fill-rule="evenodd" d="M67.5 75.9h18.2c2.4 0 4.4 2 4.4 4.4v18.1c0 2.4-2 4.4-4.4 4.4H67.5c-2.4 0-4.4-2-4.4-4.4V80.2c0-2.4 2-4.3 4.4-4.3z" clip-rule="evenodd"/><linearGradient id="Rectangle-Copy-11_1_" x1="-256.195" x2="-256.195" y1="271.11" y2="270.11" gradientTransform="matrix(26.8831 0 0 -26.8429 7027.005 7385.941)" gradientUnits="userSpaceOnUse"><stop offset="0" stop-color="#fdd663"/><stop offset="1" stop-color="#fbbc04"/></linearGradient><path id="Rectangle-Copy-11" fill="url(#Rectangle-Copy-11_1_)" fill-rule="evenodd" d="M130.6 108.5h18.2c2.4 0 4.4 2 4.4 4.4V131c0 2.4-2 4.4-4.4 4.4h-18.2c-2.4 0-4.4-2-4.4-4.4v-18.1c0-2.4 2-4.4 4.4-4.4z" clip-rule="evenodd"/><linearGradient id="Rectangle-Copy-9_1_" x1="-256.195" x2="-256.195" y1="271.11" y2="270.11" gradientTransform="matrix(26.8831 0 0 -26.8429 6900.771 7385.941)" gradientUnits="userSpaceOnUse"><stop offset="0" stop-color="#fdd663"/><stop offset="1" stop-color="#fbbc04"/></linearGradient><path id="Rectangle-Copy-9" fill="url(#Rectangle-Copy-9_1_)" fill-rule="evenodd" d="M4.4 108.5h18.2c2.4 0 4.4 2 4.4 4.4V131c0 2.4-2 4.4-4.4 4.4H4.4c-2.4 0-4.4-2-4.4-4.4v-18.1c0-2.4 2-4.4 4.4-4.4z" clip-rule="evenodd"/><linearGradient id="Rectangle-Copy-4_1_" x1="-256.195" x2="-256.195" y1="271.11" y2="270.11" gradientTransform="matrix(26.8831 0 0 -26.8429 6995.447 7353.263)" gradientUnits="userSpaceOnUse"><stop offset="0" stop-color="#5bb974"/><stop offset="1" stop-color="#34a853"/></linearGradient><path id="Rectangle-Copy-4" fill="url(#Rectangle-Copy-4_1_)" fill-rule="evenodd" d="M99 75.9h18.2c2.4 0 4.4 2 4.4 4.4v18.1c0 2.4-2 4.4-4.4 4.4H99c-2.4 0-4.4-2-4.4-4.4V80.2c.1-2.4 2-4.3 4.4-4.3z" clip-rule="evenodd"/><linearGradient id="Rectangle-Copy-12_1_" x1="-256.195" x2="-256.195" y1="271.11" y2="270.11" gradientTransform="matrix(26.8831 0 0 -26.8429 7058.564 7385.941)" gradientUnits="userSpaceOnUse"><stop offset="0" stop-color="#5bb974"/><stop offset="1" stop-color="#34a853"/></linearGradient><path id="Rectangle-Copy-12" fill="url(#Rectangle-Copy-12_1_)" fill-rule="evenodd" d="M162.2 108.5h18.2c2.4 0 4.4 2 4.4 4.4V131c0 2.4-2 4.4-4.4 4.4h-18.2c-2.4 0-4.4-2-4.4-4.4v-18.1c0-2.4 1.9-4.4 4.4-4.4z" clip-rule="evenodd"/><linearGradient id="Rectangle-Copy-10_1_" x1="-256.195" x2="-256.195" y1="271.11" y2="270.11" gradientTransform="matrix(26.8831 0 0 -26.8429 6932.33 7385.941)" gradientUnits="userSpaceOnUse"><stop offset="0" stop-color="#5bb974"/><stop offset="1" stop-color="#34a853"/></linearGradient><path id="Rectangle-Copy-10" fill="url(#Rectangle-Copy-10_1_)" fill-rule="evenodd" d="M35.9 108.5h18.2c2.4 0 4.4 2 4.4 4.4V131c0 2.4-2 4.4-4.4 4.4H35.9c-2.4 0-4.4-2-4.4-4.4v-18.1c.1-2.4 2-4.4 4.4-4.4z" clip-rule="evenodd"/><path id="Rectangle-Copy" fill="#f1f3f4" fill-rule="evenodd" d="M9.3 0h166c5.2 0 9.3 4.2 9.3 9.3 0 5.2-4.2 9.3-9.3 9.3H9.3C4.2 18.7 0 14.5 0 9.3 0 4.2 4.2 0 9.3 0z" clip-rule="evenodd"/><g id="Group_18_" transform="translate(8.182 2.334)"><g id="action_x2F_account_x5F_circle_x5F_filled_x5F_24px-copy-5"><defs><filter id="Adobe_OpacityMaskFilter_19_" width="14" height="14" x="0" y="0" filterUnits="userSpaceOnUse"><feColorMatrix values="1 0 0 0 0 0 1 0 0 0 0 0 1 0 0 0 0 0 1 0"/></filter></defs><mask id="mask-43_1_" width="14" height="14" x="0" y="0" maskUnits="userSpaceOnUse"><g filter="url(#Adobe_OpacityMaskFilter_19_)"><path id="path-42_1_" d="M12 11.1L8.6 7.7c.5-.6.7-1.4.7-2.2 0-2.1-1.7-3.8-3.8-3.8S1.8 3.4 1.8 5.5s1.7 3.8 3.8 3.8c.8 0 1.6-.3 2.2-.7l3.3 3.3.9-.8zM2.9 5.5c0-1.5 1.2-2.6 2.6-2.6s2.6 1.2 2.6 2.6S7 8.2 5.6 8.2 2.9 7 2.9 5.5z" class="st12"/></g></mask><g id="Group_17_" mask="url(#mask-43_1_)"><g id="_x21AA__xFE0E_-Icon-color_11_"><path id="swatch_2_" d="M0 0h14v14H0z" class="st45"/></g></g></g></g></g></g><defs><filter id="Adobe_OpacityMaskFilter_20_" width="16" height="16" x="72" y="88" filterUnits="userSpaceOnUse"><feColorMatrix values="1 0 0 0 0 0 1 0 0 0 0 0 1 0 0 0 0 0 1 0"/></filter></defs><mask id="mask-24_8_" width="16" height="16" x="72" y="88" maskUnits="userSpaceOnUse"><g filter="url(#Adobe_OpacityMaskFilter_20_)"><path id="path-23_9_" d="M0 .1h270V153H0z" class="st12"/></g></mask><g id="Group_21_" mask="url(#mask-24_8_)"><g id="action_x2F_account_x5F_balance_x5F_24px-copy" transform="translate(72 88)"><defs><filter id="Adobe_OpacityMaskFilter_21_" width="16" height="16" x="0" y="0" filterUnits="userSpaceOnUse"><feColorMatrix values="1 0 0 0 0 0 1 0 0 0 0 0 1 0 0 0 0 0 1 0"/></filter></defs><mask id="mask-45_1_" width="16" height="16" x="0" y="0" maskUnits="userSpaceOnUse"><g filter="url(#Adobe_OpacityMaskFilter_21_)"><path id="path-44_1_" d="M4.7 6.7h-2v4.7h2V6.7zm4 0h-2v4.7h2V6.7zm5.3 6H1.3V14H14v-1.3zm-1.3-6h-2v4.7h2V6.7zm-5-4.5L11.1 4H4.2l3.5-1.8zm0-1.5L1.3 4v1.3H14V4L7.7.7z" class="st12"/></g></mask><g id="Group_20_" mask="url(#mask-45_1_)"><g id="_x21AA__xFE0E_-Icon-color_12_"><path id="_x5F_Color_x2F_01_x5F_Grey_x2F_000-White_9_" d="M0 0h16v16H0z" class="st2"/></g></g></g></g><defs><filter id="Adobe_OpacityMaskFilter_22_" width="16" height="16" x="104" y="88" filterUnits="userSpaceOnUse"><feColorMatrix values="1 0 0 0 0 0 1 0 0 0 0 0 1 0 0 0 0 0 1 0"/></filter></defs><mask id="mask-24_9_" width="16" height="16" x="104" y="88" maskUnits="userSpaceOnUse"><g filter="url(#Adobe_OpacityMaskFilter_22_)"><path id="path-23_10_" d="M0 .1h270V153H0z" class="st12"/></g></mask><g id="Group_23_" mask="url(#mask-24_9_)"><g id="av_x2F_equalizer_x5F_24px-copy" transform="translate(104 88)"><defs><filter id="Adobe_OpacityMaskFilter_23_" width="16" height="16" x="0" y="0" filterUnits="userSpaceOnUse"><feColorMatrix values="1 0 0 0 0 0 1 0 0 0 0 0 1 0 0 0 0 0 1 0"/></filter></defs><mask id="mask-47_1_" width="16" height="16" x="0" y="0" maskUnits="userSpaceOnUse"><g filter="url(#Adobe_OpacityMaskFilter_23_)"><path id="path-46_1_" d="M2.7 8h2.7v5.3H2.7V8zm4-5.3h2.7v10.7H6.7V2.7zm4 3.3h2.7v7.3h-2.7V6z" class="st12"/></g></mask><g id="Group_22_" mask="url(#mask-47_1_)"><g id="_x21AA__xFE0E_-Icon-color_13_"><path id="_x5F_Color_x2F_01_x5F_Grey_x2F_000-White_10_" d="M0 0h16v16H0z" class="st2"/></g></g></g></g><defs><filter id="Adobe_OpacityMaskFilter_24_" width="16" height="16" x="198" y="88" filterUnits="userSpaceOnUse"><feColorMatrix values="1 0 0 0 0 0 1 0 0 0 0 0 1 0 0 0 0 0 1 0"/></filter></defs><mask id="mask-24_10_" width="16" height="16" x="198" y="88" maskUnits="userSpaceOnUse"><g filter="url(#Adobe_OpacityMaskFilter_24_)"><path id="path-23_11_" d="M0 .1h270V153H0z" class="st12"/></g></mask><g id="Group_25_" mask="url(#mask-24_10_)"><g id="av_x2F_mic_x5F_24px" transform="translate(198 88)"><defs><filter id="Adobe_OpacityMaskFilter_25_" width="16" height="16" x="0" y="0" filterUnits="userSpaceOnUse"><feColorMatrix values="1 0 0 0 0 0 1 0 0 0 0 0 1 0 0 0 0 0 1 0"/></filter></defs><mask id="mask-49_1_" width="16" height="16" x="0" y="0" maskUnits="userSpaceOnUse"><g filter="url(#Adobe_OpacityMaskFilter_25_)"><path id="path-48_1_" d="M8 9.3c1.1 0 2-.9 2-2v-4c0-1.1-.9-2-2-2s-2 .9-2 2v4c0 1.1.9 2 2 2zm3.3-2c0 1.8-1.5 3.3-3.3 3.3S4.7 9.2 4.7 7.3H3.3c0 2.4 1.7 4.3 4 4.6V14h1.3v-2.1c2.3-.3 4-2.3 4-4.6h-1.3z" class="st12"/></g></mask><g id="Group_24_" mask="url(#mask-49_1_)"><g id="_x21AA__xFE0E_-Icon-color_14_"><path id="_x5F_Color_x2F_01_x5F_Grey_x2F_000-White_11_" d="M0 0h16v16H0z" class="st2"/></g></g></g></g><defs><filter id="Adobe_OpacityMaskFilter_26_" width="16" height="16" x="198" y="121" filterUnits="userSpaceOnUse"><feColorMatrix values="1 0 0 0 0 0 1 0 0 0 0 0 1 0 0 0 0 0 1 0"/></filter></defs><mask id="mask-24_11_" width="16" height="16" x="198" y="121" maskUnits="userSpaceOnUse"><g filter="url(#Adobe_OpacityMaskFilter_26_)"><path id="path-23_12_" d="M0 .1h270V153H0z" class="st12"/></g></mask><g id="Group_27_" mask="url(#mask-24_11_)"><g id="av_x2F_mic_x5F_24px-copy-2" transform="translate(198 121)"><defs><filter id="Adobe_OpacityMaskFilter_27_" width="16" height="16" x="0" y="0" filterUnits="userSpaceOnUse"><feColorMatrix values="1 0 0 0 0 0 1 0 0 0 0 0 1 0 0 0 0 0 1 0"/></filter></defs><mask id="mask-51_1_" width="16" height="16" x="0" y="0" maskUnits="userSpaceOnUse"><g filter="url(#Adobe_OpacityMaskFilter_27_)"><path id="path-50_1_" d="M11.7 4.7c-1.7 0-3 1.3-3 3 0 .6.2 1.2.5 1.7H6.8c.3-.5.5-1 .5-1.7 0-1.7-1.3-3-3-3s-3 1.3-3 3 1.3 3 3 3h7.3c1.7 0 3-1.3 3-3s-1.3-3-2.9-3zm-9 3c0-1 .7-1.7 1.6-1.7S6 6.7 6 7.7s-.7 1.6-1.7 1.6-1.6-.7-1.6-1.6zm9 1.6c-.9 0-1.7-.7-1.7-1.7S10.7 6 11.7 6s1.7.7 1.7 1.7-.8 1.6-1.7 1.6z" class="st12"/></g></mask><g id="Group_26_" mask="url(#mask-51_1_)"><g id="_x21AA__xFE0E_-Icon-color_15_"><path id="_x5F_Color_x2F_01_x5F_Grey_x2F_000-White_12_" d="M0 0h16v16H0z" class="st2"/></g></g></g></g><defs><filter id="Adobe_OpacityMaskFilter_28_" width="16" height="16" x="230" y="88" filterUnits="userSpaceOnUse"><feColorMatrix values="1 0 0 0 0 0 1 0 0 0 0 0 1 0 0 0 0 0 1 0"/></filter></defs><mask id="mask-24_12_" width="16" height="16" x="230" y="88" maskUnits="userSpaceOnUse"><g filter="url(#Adobe_OpacityMaskFilter_28_)"><path id="path-23_13_" d="M0 .1h270V153H0z" class="st12"/></g></mask><g id="Group_29_" mask="url(#mask-24_12_)"><g id="av_x2F_mic_x5F_24px-copy" transform="translate(230 88)"><defs><filter id="Adobe_OpacityMaskFilter_29_" width="16" height="16" x="0" y="0" filterUnits="userSpaceOnUse"><feColorMatrix values="1 0 0 0 0 0 1 0 0 0 0 0 1 0 0 0 0 0 1 0"/></filter></defs><mask id="mask-53_1_" width="16" height="16" x="0" y="0" maskUnits="userSpaceOnUse"><g filter="url(#Adobe_OpacityMaskFilter_29_)"><path id="path-52_1_" d="M13.3 1.3H2.7c-.7 0-1.3.6-1.3 1.3v12L4 12h9.3c.7 0 1.3-.6 1.3-1.3v-8c.1-.8-.5-1.4-1.3-1.4z" class="st12"/></g></mask><g id="Group_28_" mask="url(#mask-53_1_)"><g id="_x21AA__xFE0E_-Icon-color_16_"><path id="_x5F_Color_x2F_01_x5F_Grey_x2F_000-White_13_" d="M0 0h16v16H0z" class="st2"/></g></g></g></g><defs><filter id="Adobe_OpacityMaskFilter_30_" width="16" height="16" x="230" y="121" filterUnits="userSpaceOnUse"><feColorMatrix values="1 0 0 0 0 0 1 0 0 0 0 0 1 0 0 0 0 0 1 0"/></filter></defs><mask id="mask-24_13_" width="16" height="16" x="230" y="121" maskUnits="userSpaceOnUse"><g filter="url(#Adobe_OpacityMaskFilter_30_)"><path id="path-23_14_" d="M0 .1h270V153H0z" class="st12"/></g></mask><g id="Group_31_" mask="url(#mask-24_13_)"><g id="av_x2F_mic_x5F_24px-copy-3" transform="translate(230 121)"><defs><filter id="Adobe_OpacityMaskFilter_31_" width="16" height="16" x="0" y="0" filterUnits="userSpaceOnUse"><feColorMatrix values="1 0 0 0 0 0 1 0 0 0 0 0 1 0 0 0 0 0 1 0"/></filter></defs><mask id="mask-55_1_" width="16" height="16" x="0" y="0" maskUnits="userSpaceOnUse"><g filter="url(#Adobe_OpacityMaskFilter_31_)"><path id="path-54_1_" d="M14.6 7.3c-.3-3.1-2.8-5.7-6-6h-.7c-3.7 0-6.7 3-6.7 6.7v.7c.3 3.1 2.8 5.6 6 6h.7c3.7 0 6.7-3 6.7-6.7.1-.2.1-.4 0-.7zM7 10l1-1 3.3 3.3c-.8.6-1.7 1-2.7 1.1-.3-1.3-.9-2.5-1.6-3.4zm2-4L8 7 4.7 3.8c.8-.6 1.7-1 2.7-1.1.3 1.2.9 2.4 1.6 3.3zM7.1 8L6 9c-.9-.8-2.1-1.3-3.3-1.5.1-1 .5-2 1.1-2.7L7.1 8zm1.8 0l1-1c.9.8 2.1 1.3 3.3 1.6-.1 1-.5 2-1.1 2.7L8.9 8zm2-2l1.3-1.3c.5.7.9 1.5 1.1 2.4-.9-.2-1.7-.5-2.4-1.1zm.4-2.2L10 5.1c-.6-.7-.9-1.5-1.2-2.4.9.2 1.8.6 2.5 1.1zM5.1 10l-1.3 1.3c-.5-.7-.9-1.5-1.1-2.4.9.2 1.7.5 2.4 1.1zm-.4 2.2L6 10.9c.5.7.9 1.5 1.1 2.3-.8-.1-1.7-.5-2.4-1z" class="st12"/></g></mask><g id="Group_30_" mask="url(#mask-55_1_)"><g id="_x21AA__xFE0E_-Icon-color_17_"><path id="_x5F_Color_x2F_01_x5F_Grey_x2F_000-White_14_" d="M0 0h16v16H0z" class="st2"/></g></g></g></g><defs><filter id="Adobe_OpacityMaskFilter_32_" width="16" height="16" x="135" y="121" filterUnits="userSpaceOnUse"><feColorMatrix values="1 0 0 0 0 0 1 0 0 0 0 0 1 0 0 0 0 0 1 0"/></filter></defs><mask id="mask-24_14_" width="16" height="16" x="135" y="121" maskUnits="userSpaceOnUse"><g filter="url(#Adobe_OpacityMaskFilter_32_)"><path id="path-23_15_" d="M0 .1h270V153H0z" class="st12"/></g></mask><g id="Group_33_" mask="url(#mask-24_14_)"><g id="places_x2F_ac_x5F_unit_x5F_24px-copy" transform="translate(135 121)"><defs><filter id="Adobe_OpacityMaskFilter_33_" width="16" height="16" x="0" y="0" filterUnits="userSpaceOnUse"><feColorMatrix values="1 0 0 0 0 0 1 0 0 0 0 0 1 0 0 0 0 0 1 0"/></filter></defs><mask id="mask-57_1_" width="16" height="16" x="0" y="0" maskUnits="userSpaceOnUse"><g filter="url(#Adobe_OpacityMaskFilter_33_)"><path id="path-56_1_" d="M14.7 7.3h-2.8L14 5.2l-.9-1L10 7.3H8.7V6l3.1-3.1-1-.9-2.1 2.1V1.3H7.3v2.8L5.2 2l-1 .9L7.3 6v1.3H6L2.9 4.2l-.9 1 2.1 2.1H1.3v1.4h2.8L2 10.8l.9 1L6 8.7h1.3V10l-3.1 3.1 1 .9 2.1-2.1v2.8h1.4v-2.8l2.1 2.1 1-.9L8.7 10V8.7H10l3.1 3.1.9-1-2.1-2.1h2.8z" class="st12"/></g></mask><g id="Group_32_" mask="url(#mask-57_1_)"><g id="_x21AA__xFE0E_-Icon-color_18_"><path id="_x5F_Color_x2F_01_x5F_Grey_x2F_000-White_15_" d="M0 0h16v16H0z" class="st2"/></g></g></g></g><defs><filter id="Adobe_OpacityMaskFilter_34_" width="16" height="16" x="104" y="121" filterUnits="userSpaceOnUse"><feColorMatrix values="1 0 0 0 0 0 1 0 0 0 0 0 1 0 0 0 0 0 1 0"/></filter></defs><mask id="mask-24_15_" width="16" height="16" x="104" y="121" maskUnits="userSpaceOnUse"><g filter="url(#Adobe_OpacityMaskFilter_34_)"><path id="path-23_16_" d="M0 .1h270V153H0z" class="st12"/></g></mask><g id="Group_35_" mask="url(#mask-24_15_)"><g id="maps_x2F_flight_x5F_24px-copy" transform="translate(104 121)"><defs><filter id="Adobe_OpacityMaskFilter_35_" width="16" height="16" x="0" y="0" filterUnits="userSpaceOnUse"><feColorMatrix values="1 0 0 0 0 0 1 0 0 0 0 0 1 0 0 0 0 0 1 0"/></filter></defs><mask id="mask-59_1_" width="16" height="16" x="0" y="0" maskUnits="userSpaceOnUse"><g filter="url(#Adobe_OpacityMaskFilter_35_)"><path id="path-58_1_" d="M14 10.7V9.3L8.7 6V2.3c0-.6-.4-1-1-1s-1 .4-1 1V6L1.3 9.3v1.3L6.7 9v3.7l-1.3 1v1l2.3-.7 2.3.7v-1l-1.3-1V9l5.3 1.7z" class="st12"/></g></mask><g id="Group_34_" mask="url(#mask-59_1_)"><g id="_x21AA__xFE0E_-Icon-color_19_"><path id="_x5F_Color_x2F_01_x5F_Grey_x2F_000-White_16_" d="M0 0h16v16H0z" class="st2"/></g></g></g></g><defs><filter id="Adobe_OpacityMaskFilter_36_" width="16" height="16" x="135" y="88" filterUnits="userSpaceOnUse"><feColorMatrix values="1 0 0 0 0 0 1 0 0 0 0 0 1 0 0 0 0 0 1 0"/></filter></defs><mask id="mask-24_16_" width="16" height="16" x="135" y="88" maskUnits="userSpaceOnUse"><g filter="url(#Adobe_OpacityMaskFilter_36_)"><path id="path-23_17_" d="M0 .1h270V153H0z" class="st12"/></g></mask><g id="Group_37_" mask="url(#mask-24_16_)"><g id="places_x2F_flatware_x5F_24px-copy" transform="translate(135 88)"><defs><filter id="Adobe_OpacityMaskFilter_37_" width="16" height="16" x="0" y="0" filterUnits="userSpaceOnUse"><feColorMatrix values="1 0 0 0 0 0 1 0 0 0 0 0 1 0 0 0 0 0 1 0"/></filter></defs><mask id="mask-61_1_" width="16" height="16" x="0" y="0" maskUnits="userSpaceOnUse"><g filter="url(#Adobe_OpacityMaskFilter_37_)"><path id="path-60_1_" d="M10.3 4.7c0 1.2-.6 2.2-1.3 2.5V14H7.7V7.3c-.8-.4-1.4-1.4-1.4-2.6 0-1.5.9-2.7 2-2.7s2 1.2 2 2.7zm1-2.7v12h1.3V8.7H14v-4c0-1.2-.8-2.7-2.7-2.7zM5.5 2c-.2 0-.5.2-.5.5v2.2h-.5V2.5c0-.3-.2-.5-.5-.5s-.5.2-.5.5v2.2H3V2.5c0-.3-.3-.5-.5-.5s-.5.2-.5.5V6c0 .7.6 1.3 1.3 1.3V14h1.3V7.3C5.4 7.3 6 6.7 6 6V2.5c0-.3-.2-.5-.5-.5z" class="st12"/></g></mask><g id="Group_36_" mask="url(#mask-61_1_)"><g id="_x21AA__xFE0E_-Icon-color_20_"><path id="_x5F_Color_x2F_01_x5F_Grey_x2F_000-White_17_" d="M0 0h16v16H0z" class="st2"/></g></g></g></g><defs><filter id="Adobe_OpacityMaskFilter_38_" width="16" height="16" x="167" y="89" filterUnits="userSpaceOnUse"><feColorMatrix values="1 0 0 0 0 0 1 0 0 0 0 0 1 0 0 0 0 0 1 0"/></filter></defs><mask id="mask-24_17_" width="16" height="16" x="167" y="89" maskUnits="userSpaceOnUse"><g filter="url(#Adobe_OpacityMaskFilter_38_)"><path id="path-23_18_" d="M0 .1h270V153H0z" class="st12"/></g></mask><g id="Group_39_" mask="url(#mask-24_17_)"><g id="image_x2F_flash_x5F_on_x5F_24px-copy" transform="translate(167 89)"><defs><filter id="Adobe_OpacityMaskFilter_39_" width="16" height="16" x="0" y="0" filterUnits="userSpaceOnUse"><feColorMatrix values="1 0 0 0 0 0 1 0 0 0 0 0 1 0 0 0 0 0 1 0"/></filter></defs><mask id="mask-63_1_" width="16" height="16" x="0" y="0" maskUnits="userSpaceOnUse"><g filter="url(#Adobe_OpacityMaskFilter_39_)"><path id="path-62_1_" d="M4.7 1.3v7.4h2v6l4.6-8H8.7l2-5.4z" class="st12"/></g></mask><g id="Group_38_" mask="url(#mask-63_1_)"><g id="_x21AA__xFE0E_-Icon-color_21_"><path id="_x5F_Color_x2F_01_x5F_Grey_x2F_000-White_18_" d="M0 0h16v16H0z" class="st2"/></g></g></g></g><defs><filter id="Adobe_OpacityMaskFilter_40_" width="16" height="16" x="167" y="121" filterUnits="userSpaceOnUse"><feColorMatrix values="1 0 0 0 0 0 1 0 0 0 0 0 1 0 0 0 0 0 1 0"/></filter></defs><mask id="mask-24_18_" width="16" height="16" x="167" y="121" maskUnits="userSpaceOnUse"><g filter="url(#Adobe_OpacityMaskFilter_40_)"><path id="path-23_19_" d="M0 .1h270V153H0z" class="st12"/></g></mask><g id="Group_41_" mask="url(#mask-24_18_)"><g id="image_x2F_audiotrack_x5F_24px-copy" transform="translate(167 121)"><defs><filter id="Adobe_OpacityMaskFilter_41_" width="16" height="16" x="0" y="0" filterUnits="userSpaceOnUse"><feColorMatrix values="1 0 0 0 0 0 1 0 0 0 0 0 1 0 0 0 0 0 1 0"/></filter></defs><mask id="mask-65_1_" width="16" height="16" x="0" y="0" maskUnits="userSpaceOnUse"><g filter="url(#Adobe_OpacityMaskFilter_41_)"><path id="path-64_1_" d="M8 2v7c-.4-.2-.8-.3-1.3-.3C5.2 8.7 4 9.9 4 11.3S5.2 14 6.7 14s2.7-1.2 2.7-2.7V4.7H12V2H8z" class="st12"/></g></mask><g id="Group_40_" mask="url(#mask-65_1_)"><g id="_x21AA__xFE0E_-Icon-color_22_"><path id="_x5F_Color_x2F_01_x5F_Grey_x2F_000-White_19_" d="M0 0h16v16H0z" class="st2"/></g></g></g></g><defs><filter id="Adobe_OpacityMaskFilter_42_" width="16" height="16" x="72" y="121" filterUnits="userSpaceOnUse"><feColorMatrix values="1 0 0 0 0 0 1 0 0 0 0 0 1 0 0 0 0 0 1 0"/></filter></defs><mask id="mask-24_19_" width="16" height="16" x="72" y="121" maskUnits="userSpaceOnUse"><g filter="url(#Adobe_OpacityMaskFilter_42_)"><path id="path-23_20_" d="M0 .1h270V153H0z" class="st12"/></g></mask><g id="Group_43_" mask="url(#mask-24_19_)"><g id="editor_x2F_attach_x5F_money_x5F_24px-copy" transform="translate(72 121)"><defs><filter id="Adobe_OpacityMaskFilter_43_" width="16" height="16" x="0" y="0" filterUnits="userSpaceOnUse"><feColorMatrix values="1 0 0 0 0 0 1 0 0 0 0 0 1 0 0 0 0 0 1 0"/></filter></defs><mask id="mask-67_1_" width="16" height="16" x="0" y="0" maskUnits="userSpaceOnUse"><g filter="url(#Adobe_OpacityMaskFilter_43_)"><path id="path-66_1_" d="M10.5 8.3c-.4-.4-1-.8-1.8-1l-.6-.2c-.5-.2-.9-.4-1.1-.6-.3-.2-.4-.4-.4-.7 0-.4.1-.6.4-.8s.6-.3 1-.3.7.1 1 .3c.3.2.4.5.5.7l1.3-.5c-.2-.5-.5-.9-.9-1.3-.3-.3-.7-.4-1.2-.5V2H7.3v1.4c-.2.1-.5.1-.7.3-.4.2-.8.5-1 .9-.3.3-.4.7-.4 1.2 0 .6.2 1.2.6 1.5.4.4.9.7 1.5.9l.6.2c.7.3 1.1.5 1.4.7.3.2.4.5.4.9s-.2.7-.5.9c-.3.2-.7.3-1.1.3-.5 0-.9-.2-1.2-.5-.3-.3-.6-.7-.7-1.2l-1.3.5c.2 1 .6 1.6 1.2 2 .4.3.8.5 1.2.6V14h1.3v-1.4c.3 0 .6-.1.9-.2.5-.2.8-.5 1.1-.9s.4-.9.4-1.5c.1-.7-.1-1.3-.5-1.7z" class="st12"/></g></mask><g id="Group_42_" mask="url(#mask-67_1_)"><g id="_x21AA__xFE0E_-Icon-color_23_"><path id="_x5F_Color_x2F_01_x5F_Grey_x2F_000-White_20_" d="M0 0h16v16H0z" class="st2"/></g></g></g></g></g><g id="frame-top" transform="translate(0 1)"><linearGradient id="top_1_" x1="-153.281" x2="-153.281" y1="291.613" y2="292.427" gradientTransform="matrix(278 0 0 -173.4845 42777 50782.426)" gradientUnits="userSpaceOnUse"><stop offset="0" stop-color="#bdc1c6"/><stop offset="1" stop-color="#e8eaed"/></linearGradient><path id="top" fill="url(#top_1_)" d="M299.7 0H30.3C27.9 0 26 1.9 26 4.3v169.2h278V4.3c0-2.4-1.9-4.3-4.3-4.3zM297 161.5H33V12h264v149.5z"/><g id="base" transform="translate(0 173.33)"><path id="laptop-bottom" fill="#dadce0" d="M0 0v4.7c0 .4.2.7.4 1 .3.3.6.4 1 .4l131-.2s2.7-.5 3.3-.5H196s3.5-.1 5 .6l131.6.2c.8 0 1.4-.6 1.4-1.4V0H0z"/><path id="shadow" fill="#bdc1c6" d="M0 0h334v1H0z"/><path id="bezel" d="M132.2 6.2V1s.7-.4 2.6-.4h62.5s2.2.1 2.5.5v5s-1.8-.3-3.3-.3l-59.8.1s-1.1-.1-1.4-.1l-3.1.4z" class="st28"/></g></g></g></g></g></g>
</svg>