<svg xmlns="http://www.w3.org/2000/svg" viewBox="0 0 93.95 93.95"><defs><linearGradient id="linear-gradient" x1="51.52" y1="8.64" x2="14.27" y2="73.15" gradientTransform="matrix(1 0 0 -1 0 96)" gradientUnits="userSpaceOnUse"><stop offset="0" stop-color="#1e8e3e"/><stop offset="1" stop-color="#34a853"/></linearGradient><linearGradient id="linear-gradient-2" x1="42.32" y1="8.7" x2="79.57" y2="73.22" gradientTransform="matrix(1 0 0 -1 0 96)" gradientUnits="userSpaceOnUse"><stop offset="0" stop-color="#fcc934"/><stop offset="1" stop-color="#fbbc04"/></linearGradient><linearGradient id="linear-gradient-3" x1="9.73" y1="65.29" x2="84.22" y2="65.29" gradientTransform="matrix(1 0 0 -1 0 96)" gradientUnits="userSpaceOnUse"><stop offset="0" stop-color="#d93025"/><stop offset="1" stop-color="#ea4335"/></linearGradient><clipPath id="clip-path"><circle cx="46.97" cy="46.98" r="43.05" style="fill:none"/></clipPath><style>.cls-5{fill:#fff}</style></defs><path d="M47 68.48A21.45 21.45 0 0 1 28.5 58a4.51 4.51 0 0 1-.29-.52l-18.48-32A43 43 0 0 0 47 90l18.45-32A21.46 21.46 0 0 1 47 68.48Z" style="fill:url(#linear-gradient)"/><path d="M84.22 25.47H47a21.51 21.51 0 0 1 18.79 32l-.29.52L47 90a43 43 0 0 0 37.22-64.53Z" style="fill:url(#linear-gradient-2)"/><path d="M84.22 25.47a43 43 0 0 0-74.49 0l18.46 32a21.51 21.51 0 0 1 18.81-32Z" style="fill:url(#linear-gradient-3)"/><path class="cls-5" d="M68.48 47a21.51 21.51 0 1 0-40.29 10.45l.29.52a21.51 21.51 0 0 0 37 0l.29-.52A21.31 21.31 0 0 0 68.48 47Z"/><path d="M64.61 47a17.64 17.64 0 1 0-33 8.61l.24.43a17.63 17.63 0 0 0 30.31 0l.24-.43A17.55 17.55 0 0 0 64.61 47Z" style="fill:#1a73e8"/><g style="clip-path:url(#clip-path)"><path style="fill:#424242" d="M3.85 54.13h86.17v35.91H3.85z"/></g><path class="cls-5" d="M46.32 73.29a6.16 6.16 0 0 1-8.7 0 6.43 6.43 0 0 1 0-8.81 6.14 6.14 0 0 1 8.68 0 6.41 6.41 0 0 1 0 8.8Zm-7.58-1a4.59 4.59 0 0 0 6.46 0 5.09 5.09 0 0 0 0-6.82 4.56 4.56 0 0 0-6.45 0 5.09 5.09 0 0 0-.01 6.82ZM53.23 75.09a4.44 4.44 0 0 1-2.53-.85 3.88 3.88 0 0 1-1.61-2.33l1.39-.56a3.29 3.29 0 0 0 1 1.65 2.57 2.57 0 0 0 1.73.67 2.75 2.75 0 0 0 1.7-.56 1.67 1.67 0 0 0 .71-1.42 1.81 1.81 0 0 0-.71-1.53 7.11 7.11 0 0 0-2.23-1 6.15 6.15 0 0 1-2.37-1.25 2.69 2.69 0 0 1-.81-2 3 3 0 0 1 1-2.22 3.71 3.71 0 0 1 2.64-.95 3.83 3.83 0 0 1 2.46.76 3.47 3.47 0 0 1 1.22 1.65l-1.39.58a2.11 2.11 0 0 0-.74-1 2.36 2.36 0 0 0-1.52-.48 2.39 2.39 0 0 0-1.5.49 1.52 1.52 0 0 0-.62 1.26 1.38 1.38 0 0 0 .57 1.12 5.3 5.3 0 0 0 1.69.82 15.08 15.08 0 0 1 1.46.55 6.84 6.84 0 0 1 1.2.7 2.78 2.78 0 0 1 .91 1.1 3.48 3.48 0 0 1 .31 1.52 3.17 3.17 0 0 1-.36 1.54 2.94 2.94 0 0 1-.92 1 4.93 4.93 0 0 1-1.27.6 4.82 4.82 0 0 1-1.41.14Z"/></svg>