<svg xmlns="http://www.w3.org/2000/svg" height="18px" width="18px">
  <defs>
    <style>
      .svg-icon { display: none }
      .svg-icon:target { display: inline }
    </style>
  </defs>
  <svg id="chevron-left" class="svg-icon" viewBox="0 0 24 24"><path d="M16.41 5.41L15 4l-8 8 8 8 1.41-1.41L9.83 12"></path></svg>
  <svg id="chevron-right" class="svg-icon" viewBox="0 0 24 24"><path d="M7.59 18.59L9 20l8-8-8-8-1.41 1.41L14.17 12"></path></svg>
  <svg id="expand-less" class="svg-icon" viewBox="0 0 24 24"><path d="M18.59 16.41L20 15l-8-8-8 8 1.41 1.41L12 9.83"></path></svg>
  <svg id="expand-more" class="svg-icon" viewBox="0 0 24 24"><path d="M5.41 7.59L4 9l8 8 8-8-1.41-1.41L12 14.17"></path></svg>
  <svg id="arrow-back" class="svg-icon" viewBox="0 0 24 24"><path d="M20 11H7.83l5.59-5.59L12 4l-8 8 8 8 1.41-1.41L7.83 13H20v-2z"></path></svg>
  <svg id="arrow-forward" class="svg-icon" viewBox="0 0 24 24"><path d="M12 4l-1.41 1.41L16.17 11H4v2h12.17l-5.58 5.59L12 20l8-8-8-8z"></path></svg>
  <svg id="arrow-external" class="svg-icon" viewBox="0 0 24 24"><path d="M6,6.5v2l7.9,0l-8.6,8.6l1.4,1.4l8.6-8.6l0,7.9h2V6.5H6z"/></svg>
  <svg id="arrow-upward" class="svg-icon" viewBox="0 0 24 24"><path d="M4 12l1.41 1.41L11 7.83V20h2V7.83l5.58 5.59L20 12l-8-8-8 8z"></path></svg>
  <svg id="arrow-downward" class="svg-icon" viewBox="0 0 24 24"><path d="M20 12l-1.41-1.41L13 16.17V4h-2v12.17l-5.58-5.59L4 12l8 8 8-8z"></path></svg>
  <svg id="arrow-left" class="svg-icon" viewBox="0 0 24 24"><path d="M14 7l-5 5 5 5V7z"></path></svg>
  <svg id="arrow-right" class="svg-icon" viewBox="0 0 24 24"><path d="M10 17l5-5-5-5v10z"></path></svg>
  <svg id="arrow-drop-up" class="svg-icon" viewBox="0 0 24 24"><path d="M7 14l5-5 5 5H7z"></path></svg>
  <svg id="arrow-drop-down" class="svg-icon" viewBox="0 0 24 24"><path d="M7 10l5 5 5-5H7z"></path></svg>
  <svg id="publish" class="svg-icon" viewBox="0 0 24 24"><path d="M0 0h24v24H0V0z" fill="none"/><path d="M20 9h-2V6H6v3H4V6c0-1.1.9-2 2-2h12c1.1 0 2 .9 2 2M8.41 14.41L11 11.83V20h2v-8.17l2.59 2.59L17 13l-5-5-5 5 1.41 1.41z"/></svg>
  <svg id="cloud-off" class="svg-icon" viewBox="0 0 24 24"><path d="M0 0h24v24H0z" fill="none"/><path d="M19.35 10.04C18.67 6.59 15.64 4 12 4c-1.48 0-2.85.43-4.01 1.17l1.46 1.46C10.21 6.23 11.08 6 12 6c3.04 0 5.5 2.46 5.5 5.5v.5H19c1.66 0 3 1.34 3 3 0 1.13-.64 2.11-1.56 2.62l1.45 1.45C23.16 18.16 24 16.68 24 15c0-2.64-2.05-4.78-4.65-4.96zM3 5.27l2.75 2.74C2.56 8.15 0 10.77 0 14c0 3.31 2.69 6 6 6h11.73l2 2L21 20.73 4.27 4 3 5.27zM7.73 10l8 8H6c-2.21 0-4-1.79-4-4s1.79-4 4-4h1.73z"/></svg>
  <svg id="help" class="svg-icon" viewBox="0 0 24 24"><path d="M12 2C6.48 2 2 6.48 2 12s4.48 10 10 10 10-4.48 10-10S17.52 2 12 2zm1 17h-2v-2h2v2zm2.07-7.75l-.9.92C13.45 12.9 13 13.5 13 15h-2v-.5c0-1.1.45-2.1 1.17-2.83l1.24-1.26c.37-.36.59-.86.59-1.41 0-1.1-.9-2-2-2s-2 .9-2 2H8c0-2.21 1.79-4 4-4s4 1.79 4 4c0 .88-.36 1.68-.93 2.25z"></path></svg>
  <svg id="loader" class="svg-icon" viewBox="0 0 24 24"><path d="M12 22C6.49 22 2 17.51 2 12S6.49 2 12 2c.55 0 1 .45 1 1s-.45 1-1 1c-4.41 0-8 3.59-8 8s3.59 8 8 8 8-3.59 8-8c0-.55.45-1 1-1s1 .45 1 1c0 5.51-4.49 10-10 10z"/><path d="M0 0h24v24H0z" fill="none"/></svg>
  <svg id="menu" class="svg-icon" viewBox="0 0 24 24"><path d="M3 18h18v-2H3v2zm0-5h18v-2H3v2zm0-7v2h18V6H3z"></path></svg>
  <svg id="more-vert" class="svg-icon" viewBox="0 0 24 24"><path d="M12 8c1.1 0 2-.9 2-2s-.9-2-2-2-2 .9-2 2 .9 2 2 2zm0 2c-1.1 0-2 .9-2 2s.9 2 2 2 2-.9 2-2-.9-2-2-2zm0 6c-1.1 0-2 .9-2 2s.9 2 2 2 2-.9 2-2-.9-2-2-2z"></path></svg>
  <svg id="drive-pdf" class="svg-icon" viewBox="0 0 24 24"><path d="M7 11.5h1v-1H7v1zM19 3H5c-1.1 0-2 .9-2 2v14c0 1.1.9 2 2 2h14c1.1 0 2-.9 2-2V5c0-1.1-.9-2-2-2zm-9.5 8.5c0 .83-.67 1.5-1.5 1.5H7v2H5.5V9H8c.83 0 1.5.67 1.5 1.5v1zm10-1H17v1h1.5V13H17v2h-1.5V9h4v1.5zm-5 3c0 .83-.67 1.5-1.5 1.5h-2.5V9H13c.83 0 1.5.67 1.5 1.5v3zm-2.5 0h1v-3h-1v3z"></path></svg>
  <svg id="file-download" class="svg-icon" viewBox="0 0 24 24"><path d="M4 15h2v3h12v-3h2v3c0 1.1-.9 2-2 2H6c-1.1 0-2-.9-2-2m11.59-8.41L13 12.17V4h-2v8.17L8.41 9.59 7 11l5 5 5-5-1.41-1.41z"></path></svg>
  <svg id="open-in-new" class="svg-icon" viewBox="0 0 24 24"><path d="M19 19H5V5h7V3H5a2 2 0 0 0-2 2v14a2 2 0 0 0 2 2h14c1.1 0 2-.9 2-2v-7h-2v7zM14 3v2h3.59l-9.83 9.83 1.41 1.41L19 6.41V10h2V3h-7z"></path></svg>
  <svg id="phone" class="svg-icon" viewBox="0 0 24 24"><path d="M16.01 14.46l-2.62 2.62a16.141 16.141 0 0 1-6.5-6.5l2.62-2.62a.98.98 0 0 0 .27-.9L9.13 3.8c-.09-.46-.5-.8-.98-.8H4c-.56 0-1.03.47-1 1.03a17.92 17.92 0 0 0 2.43 8.01 18.08 18.08 0 0 0 6.5 6.5 17.92 17.92 0 0 0 8.01 2.43c.56.03 1.03-.44 1.03-1v-4.15c0-.48-.34-.89-.8-.98l-3.26-.65a.99.99 0 0 0-.9.27z"></path></svg>
  <svg id="email" class="svg-icon" viewBox="0 0 24 24"><path d="M20 4H4c-1.1 0-2 .9-2 2v12c0 1.1.9 2 2 2h16c1.1 0 2-.9 2-2V6c0-1.1-.9-2-2-2zm-.8 2L12 10.8 4.8 6h14.4zM4 18V7.87l8 5.33 8-5.33V18H4z"></path></svg>
  <svg id="instagram" class="svg-icon" viewBox="0 0 24 24"><path d="M12,0 C15.3,0 15.7,0 17,0 C18.3,0.1 19.1,0.3 19.9,0.6 C20.7,0.9 21.3,1.3 22,2 C22.7,2.7 23.1,3.4 23.3,4.2 C23.6,5 23.8,5.8 23.9,7.1 C24,8.3 24,8.7 24,12 C24,15.3 24,15.7 23.9,16.9 C23.8,18.2 23.6,19 23.3,19.8 C23,20.6 22.6,21.2 21.9,21.9 C21.3,22.6 20.6,23 19.8,23.3 C19,23.6 18.2,23.8 16.9,23.9 C15.7,24 15.3,24 12,24 C8.7,24 8.3,24 7,24 C5.7,23.9 4.9,23.7 4.1,23.4 C3.3,23.1 2.7,22.7 2,22 C1.3,21.3 0.9,20.6 0.7,19.8 C0.4,19 0.2,18.2 0.1,16.9 C0,15.7 0,15.3 0,12 C0,8.7 0,8.3 0.1,7.1 C0.1,5.8 0.3,4.9 0.6,4.1 C0.9,3.4 1.3,2.7 2,2 C2.7,1.3 3.4,0.9 4.1,0.6 C4.9,0.3 5.8,0.1 7.1,0.1 C8.3,0 8.7,0 12,0 Z M12,2.2 C8.8,2.2 8.4,2.2 7.2,2.2 C6,2.3 5.3,2.5 4.9,2.6 C4.4,2.9 4,3.1 3.5,3.5 C3.1,3.9 2.8,4.3 2.6,4.9 C2.5,5.3 2.3,6 2.3,7.2 C2.2,8.4 2.2,8.8 2.2,12 C2.2,15.2 2.2,15.5 2.3,16.8 C2.3,17.9 2.5,18.6 2.7,19 C2.9,19.6 3.2,20 3.6,20.4 C4,20.8 4.4,21.1 5,21.3 C5.4,21.5 6,21.6 7.2,21.7 C8.4,21.8 8.8,21.8 12,21.8 C15.2,21.8 15.5,21.8 16.8,21.7 C17.9,21.7 18.6,21.5 19,21.3 C19.6,21.1 20,20.8 20.4,20.4 C20.8,20 21.1,19.6 21.3,19 C21.5,18.6 21.6,18 21.7,16.8 C21.8,15.6 21.8,15.2 21.8,12 C21.8,8.8 21.8,8.5 21.7,7.2 C21.7,6.1 21.5,5.4 21.3,5 C21.1,4.4 20.8,4 20.4,3.6 C20,3.2 19.6,2.9 19,2.7 C18.6,2.5 18,2.4 16.8,2.3 C15.6,2.2 15.2,2.2 12,2.2 Z M12,5.8 C15.4,5.8 18.2,8.6 18.2,12 C18.2,15.4 15.4,18.2 12,18.2 C8.6,18.2 5.8,15.4 5.8,12 C5.8,8.6 8.6,5.8 12,5.8 Z M12,16 C14.2,16 16,14.2 16,12 C16,9.8 14.2,8 12,8 C9.8,8 8,9.8 8,12 C8,14.2 9.8,16 12,16 Z M18.4,7 C17.6268014,7 17,6.37319865 17,5.6 C17,4.82680135 17.6268014,4.2 18.4,4.2 C19.1731986,4.2 19.8,4.82680135 19.8,5.6 C19.8,6.37319865 19.1731986,7 18.4,7 Z"></path></svg>
  <svg id="link" class="svg-icon" viewBox="0 0 24 24"><path d="M17 7h-4v2h4c1.65 0 3 1.35 3 3s-1.35 3-3 3h-4v2h4c2.76 0 5-2.24 5-5s-2.24-5-5-5zm-6 8H7c-1.65 0-3-1.35-3-3s1.35-3 3-3h4V7H7c-2.76 0-5 2.24-5 5s2.24 5 5 5h4v-2z"></path><path d="M8 11h8v2H8z"></path></svg>
  <svg id="post-blogger" class="svg-icon" viewBox="0 0 24 24"><path d="M20 2H4c-1.1 0-1.99.9-1.99 2L2 20c0 1.1.9 2 2 2h16c1.1 0 2-.9 2-2V4c0-1.1-.9-2-2-2zm-4 7v1c0 .55.45 1 1 1s1 .45 1 1v3c0 1.66-1.34 3-3 3H9c-1.66 0-3-1.34-3-3V8c0-1.66 1.34-3 3-3h4c1.66 0 3 1.34 3 3v1zm-6.05 1h2.6c.55 0 1-.45 1-1s-.45-1-1-1h-2.6c-.55 0-1 .45-1 1s.45 1 1 1zM14 13H9.95c-.55 0-1 .45-1 1s.45 1 1 1H14c.55 0 1-.45 1-1s-.45-1-1-1z"></path></svg>
  <svg id="post-facebook" class="svg-icon" viewBox="0 0 24 24"><path d="M20 2H4c-1.1 0-1.99.9-1.99 2L2 20c0 1.1.9 2 2 2h16c1.1 0 2-.9 2-2V4c0-1.1-.9-2-2-2zm-1 2v3h-2c-.55 0-1 .45-1 1v2h3v3h-3v7h-3v-7h-2v-3h2V7.5C13 5.57 14.57 4 16.5 4H19z"></path></svg>
  <svg id="post-linkedin" class="svg-icon" viewBox="0 0 24 24"><path d="M20 2H4c-1.1 0-1.99.9-1.99 2L2 20c0 1.1.9 2 2 2h16c1.1 0 2-.9 2-2V4c0-1.1-.9-2-2-2zM8 19H5v-9h3v9zM6.5 8.31c-1 0-1.81-.81-1.81-1.81S5.5 4.69 6.5 4.69s1.81.81 1.81 1.81S7.5 8.31 6.5 8.31zM19 19h-3v-5.3c0-.83-.67-1.5-1.5-1.5s-1.5.67-1.5 1.5V19h-3v-9h3v1.2c.52-.84 1.59-1.4 2.5-1.4 1.93 0 3.5 1.57 3.5 3.5V19z"></path></svg>
  <svg id="share" class="svg-icon" viewBox="0 0 24 24"><path d="M18 16c-.79 0-1.5.31-2.03.81L8.91 12.7c.05-.23.09-.46.09-.7s-.04-.47-.09-.7l7.05-4.11c.53.5 1.25.81 2.04.81 1.66 0 3-1.34 3-3s-1.34-3-3-3-3 1.34-3 3c0 .24.04.48.09.7L8.04 9.81C7.5 9.31 6.79 9 6 9c-1.66 0-3 1.34-3 3s1.34 3 3 3c.79 0 1.5-.31 2.04-.81l7.05 4.12c-.05.22-.09.45-.09.69 0 1.66 1.34 3 3 3s3-1.34 3-3-1.34-3-3-3zm0-12c.55 0 1 .45 1 1s-.45 1-1 1-1-.45-1-1 .45-1 1-1zM6 13c-.55 0-1-.45-1-1s.45-1 1-1 1 .45 1 1-.45 1-1 1zm12 7c-.55 0-1-.45-1-1s.45-1 1-1 1 .45 1 1-.45 1-1 1z"></path></svg>
  <svg id="twitter" class="svg-icon" viewBox="0 0 24 24"><path d="M7.5,21.8c9.1,0,14-7.5,14-14c0-0.2,0-0.4,0-0.6c1-0.7,1.8-1.6,2.5-2.5c-0.9,0.4-1.8,0.7-2.8,0.8c1-0.6,1.8-1.6,2.2-2.7 c-1,0.6-2,1-3.1,1.2c-0.9-1-2.2-1.6-3.6-1.6c-2.7,0-4.9,2.2-4.9,4.9c0,0.4,0,0.8,0.1,1.1C7.7,8.1,4.1,6.1,1.7,3.1 C1.2,3.9,1,4.7,1,5.6c0,1.7,0.9,3.2,2.2,4.1C2.4,9.7,1.6,9.5,1,9.1c0,0,0,0,0,0.1c0,2.4,1.7,4.4,4,4.8c-0.4,0.1-0.8,0.2-1.3,0.2 c-0.3,0-0.6,0-0.9-0.1c0.6,2,2.4,3.4,4.6,3.4c-1.7,1.3-3.8,2.1-6.1,2.1c-0.4,0-0.8,0-1.2-0.1C2.2,20.9,4.8,21.8,7.5,21.8"></path></svg>
  <svg id="video-youtube" class="svg-icon" viewBox="0 0 24 24"><path d="M23.74 7.1s-.23-1.65-.95-2.37c-.91-.96-1.93-.96-2.4-1.02C17.04 3.47 12 3.5 12 3.5s-5.02-.03-8.37.21c-.46.06-1.48.06-2.39 1.02C.52 5.45.28 7.1.28 7.1S.04 9.05 0 10.98V13c.04 1.94.28 3.87.28 3.87s.24 1.65.96 2.38c.91.95 2.1.92 2.64 1.02 1.88.18 7.91.22 8.12.22 0 0 5.05.01 8.4-.23.46-.06 1.48-.06 2.39-1.02.72-.72.96-2.37.96-2.37s.24-1.94.25-3.87v-2.02c-.02-1.93-.26-3.88-.26-3.88zM9.57 15.5V8.49L16 12.13 9.57 15.5z"></path></svg>
  <svg id="video-youtube-white" class="svg-icon" viewBox="0 0 24 24"><path fill="#fff" d="M23.74 7.1s-.23-1.65-.95-2.37c-.91-.96-1.93-.96-2.4-1.02C17.04 3.47 12 3.5 12 3.5s-5.02-.03-8.37.21c-.46.06-1.48.06-2.39 1.02C.52 5.45.28 7.1.28 7.1S.04 9.05 0 10.98V13c.04 1.94.28 3.87.28 3.87s.24 1.65.96 2.38c.91.95 2.1.92 2.64 1.02 1.88.18 7.91.22 8.12.22 0 0 5.05.01 8.4-.23.46-.06 1.48-.06 2.39-1.02.72-.72.96-2.37.96-2.37s.24-1.94.25-3.87v-2.02c-.02-1.93-.26-3.88-.26-3.88zM9.57 15.5V8.49L16 12.13 9.57 15.5z"></path></svg>
  <svg id="video-youtube-black" class="svg-icon" viewBox="0 0 24 24"><path fill="#000" d="M23.74 7.1s-.23-1.65-.95-2.37c-.91-.96-1.93-.96-2.4-1.02C17.04 3.47 12 3.5 12 3.5s-5.02-.03-8.37.21c-.46.06-1.48.06-2.39 1.02C.52 5.45.28 7.1.28 7.1S.04 9.05 0 10.98V13c.04 1.94.28 3.87.28 3.87s.24 1.65.96 2.38c.91.95 2.1.92 2.64 1.02 1.88.18 7.91.22 8.12.22 0 0 5.05.01 8.4-.23.46-.06 1.48-.06 2.39-1.02.72-.72.96-2.37.96-2.37s.24-1.94.25-3.87v-2.02c-.02-1.93-.26-3.88-.26-3.88zM9.57 15.5V8.49L16 12.13 9.57 15.5z"></path><polygon fill="#fff" points="9.6,15.5 9.6,8.5 16,12.1 "></polygon></svg>
  <svg id="video-youtube-red" class="svg-icon" viewBox="0 0 24 24"><path fill="#f00" d="M23.74 7.1s-.23-1.65-.95-2.37c-.91-.96-1.93-.96-2.4-1.02C17.04 3.47 12 3.5 12 3.5s-5.02-.03-8.37.21c-.46.06-1.48.06-2.39 1.02C.52 5.45.28 7.1.28 7.1S.04 9.05 0 10.98V13c.04 1.94.28 3.87.28 3.87s.24 1.65.96 2.38c.91.95 2.1.92 2.64 1.02 1.88.18 7.91.22 8.12.22 0 0 5.05.01 8.4-.23.46-.06 1.48-.06 2.39-1.02.72-.72.96-2.37.96-2.37s.24-1.94.25-3.87v-2.02c-.02-1.93-.26-3.88-.26-3.88zM9.57 15.5V8.49L16 12.13 9.57 15.5z"></path><polygon fill="#fff" points="9.6,15.5 9.6,8.5 16,12.1 "></polygon></svg>
  <svg id="video-youtube-white" class="svg-icon" viewBox="0 0 24 24"><path fill="#fff" d="M23.74 7.1s-.23-1.65-.95-2.37c-.91-.96-1.93-.96-2.4-1.02C17.04 3.47 12 3.5 12 3.5s-5.02-.03-8.37.21c-.46.06-1.48.06-2.39 1.02C.52 5.45.28 7.1.28 7.1S.04 9.05 0 10.98V13c.04 1.94.28 3.87.28 3.87s.24 1.65.96 2.38c.91.95 2.1.92 2.64 1.02 1.88.18 7.91.22 8.12.22 0 0 5.05.01 8.4-.23.46-.06 1.48-.06 2.39-1.02.72-.72.96-2.37.96-2.37s.24-1.94.25-3.87v-2.02c-.02-1.93-.26-3.88-.26-3.88zM9.57 15.5V8.49L16 12.13 9.57 15.5z"></path></svg>
  <svg id="close" class="svg-icon" viewBox="0 0 24 24"><path d="M19 6.41L17.59 5 12 10.59 6.41 5 5 6.41 10.59 12 5 17.59 6.41 19 12 13.41 17.59 19 19 17.59 13.41 12 19 6.41z"></path></svg>
  <svg id="add" class="svg-icon" viewBox="0 0 24 24"><path d="M20 13h-7v7h-2v-7H4v-2h7V4h2v7h7v2z"/></svg>
  <svg id="expand-all" class="svg-icon" viewBox="0 0 24 24"><path d="M16.59 9.41L18 8l-6-6-6 6 1.41 1.41L12 4.83l4.59 4.58zM12 19.17l-4.59-4.58L6 16l6 6 6-6-1.41-1.41L12 19.17z"></path></svg>
  <svg id="play-circle-filled" class="svg-icon" viewBox="0 0 24 24"><path d="M12 2C6.48 2 2 6.48 2 12s4.48 10 10 10 10-4.48 10-10S17.52 2 12 2zm-2 14.5v-9l6 4.5-6 4.5z"></path></svg>
  <svg id="search" class="svg-icon" viewBox="0 0 24 24"><path d="M20.49 19l-5.73-5.73C15.53 12.2 16 10.91 16 9.5A6.5 6.5 0 1 0 9.5 16c1.41 0 2.7-.47 3.77-1.24L19 20.49 20.49 19zM5 9.5C5 7.01 7.01 5 9.5 5S14 7.01 14 9.5 11.99 14 9.5 14 5 11.99 5 9.5z"></path></svg>
  <svg id="google-color-logo" class="svg-icon" viewBox="0 0 74 24"><path fill="#4285F4" d="M9.24 8.19v2.46h5.88c-.18 1.38-.64 2.39-1.34 3.1-.86.86-2.2 1.8-4.54 1.8-3.62 0-6.45-2.92-6.45-6.54s2.83-6.54 6.45-6.54c1.95 0 3.38.77 4.43 1.76L15.4 2.5C13.94 1.08 11.98 0 9.24 0 4.28 0 .11 4.04.11 9s4.17 9 9.13 9c2.68 0 4.7-.88 6.28-2.52 1.62-1.62 2.13-3.91 2.13-5.75 0-.57-.04-1.1-.13-1.54H9.24z"></path><path fill="#EA4335" d="M25 6.19c-3.21 0-5.83 2.44-5.83 5.81 0 3.34 2.62 5.81 5.83 5.81s5.83-2.46 5.83-5.81c0-3.37-2.62-5.81-5.83-5.81zm0 9.33c-1.76 0-3.28-1.45-3.28-3.52 0-2.09 1.52-3.52 3.28-3.52s3.28 1.43 3.28 3.52c0 2.07-1.52 3.52-3.28 3.52z"></path><path fill="#4285F4" d="M53.58 7.49h-.09c-.57-.68-1.67-1.3-3.06-1.3C47.53 6.19 45 8.72 45 12c0 3.26 2.53 5.81 5.43 5.81 1.39 0 2.49-.62 3.06-1.32h.09v.81c0 2.22-1.19 3.41-3.1 3.41-1.56 0-2.53-1.12-2.93-2.07l-2.22.92c.64 1.54 2.33 3.43 5.15 3.43 2.99 0 5.52-1.76 5.52-6.05V6.49h-2.42v1zm-2.93 8.03c-1.76 0-3.1-1.5-3.1-3.52 0-2.05 1.34-3.52 3.1-3.52 1.74 0 3.1 1.5 3.1 3.54.01 2.03-1.36 3.5-3.1 3.5z"></path><path fill="#FBBC05" d="M38 6.19c-3.21 0-5.83 2.44-5.83 5.81 0 3.34 2.62 5.81 5.83 5.81s5.83-2.46 5.83-5.81c0-3.37-2.62-5.81-5.83-5.81zm0 9.33c-1.76 0-3.28-1.45-3.28-3.52 0-2.09 1.52-3.52 3.28-3.52s3.28 1.43 3.28 3.52c0 2.07-1.52 3.52-3.28 3.52z"></path><path fill="#34A853" d="M58 .24h2.51v17.57H58z"></path><path fill="#EA4335" d="M68.26 15.52c-1.3 0-2.22-.59-2.82-1.76l7.77-3.21-.26-.66c-.48-1.3-1.96-3.7-4.97-3.7-2.99 0-5.48 2.35-5.48 5.81 0 3.26 2.46 5.81 5.76 5.81 2.66 0 4.2-1.63 4.84-2.57l-1.98-1.32c-.66.96-1.56 1.6-2.86 1.6zm-.18-7.15c1.03 0 1.91.53 2.2 1.28l-5.25 2.17c0-2.44 1.73-3.45 3.05-3.45z"></path></svg>
  <svg id="google-solid-logo" class="svg-icon" viewBox="0 0 74 24"><path d="M9.24 8.19v2.46h5.88c-.18 1.38-.64 2.39-1.34 3.1-.86.86-2.2 1.8-4.54 1.8-3.62 0-6.45-2.92-6.45-6.54s2.83-6.54 6.45-6.54c1.95 0 3.38.77 4.43 1.76L15.4 2.5C13.94 1.08 11.98 0 9.24 0 4.28 0 .11 4.04.11 9s4.17 9 9.13 9c2.68 0 4.7-.88 6.28-2.52 1.62-1.62 2.13-3.91 2.13-5.75 0-.57-.04-1.1-.13-1.54H9.24zm15.76-2c-3.21 0-5.83 2.44-5.83 5.81 0 3.34 2.62 5.81 5.83 5.81s5.83-2.46 5.83-5.81c0-3.37-2.62-5.81-5.83-5.81zm0 9.33c-1.76 0-3.28-1.45-3.28-3.52 0-2.09 1.52-3.52 3.28-3.52s3.28 1.43 3.28 3.52c0 2.07-1.52 3.52-3.28 3.52zm28.58-8.03h-.09c-.57-.68-1.67-1.3-3.06-1.3C47.53 6.19 45 8.72 45 12c0 3.26 2.53 5.81 5.43 5.81 1.39 0 2.49-.62 3.06-1.32h.09v.81c0 2.22-1.19 3.41-3.1 3.41-1.56 0-2.53-1.12-2.93-2.07l-2.22.92c.64 1.54 2.33 3.43 5.15 3.43 2.99 0 5.52-1.76 5.52-6.05V6.49h-2.42v1zm-2.93 8.03c-1.76 0-3.1-1.5-3.1-3.52 0-2.05 1.34-3.52 3.1-3.52 1.74 0 3.1 1.5 3.1 3.54.01 2.03-1.36 3.5-3.1 3.5zM38 6.19c-3.21 0-5.83 2.44-5.83 5.81 0 3.34 2.62 5.81 5.83 5.81s5.83-2.46 5.83-5.81c0-3.37-2.62-5.81-5.83-5.81zm0 9.33c-1.76 0-3.28-1.45-3.28-3.52 0-2.09 1.52-3.52 3.28-3.52s3.28 1.43 3.28 3.52c0 2.07-1.52 3.52-3.28 3.52zM58 .24h2.51v17.57H58zm10.26 15.28c-1.3 0-2.22-.59-2.82-1.76l7.77-3.21-.26-.66c-.48-1.3-1.96-3.7-4.97-3.7-2.99 0-5.48 2.35-5.48 5.81 0 3.26 2.46 5.81 5.76 5.81 2.66 0 4.2-1.63 4.84-2.57l-1.98-1.32c-.66.96-1.56 1.6-2.86 1.6zm-.18-7.15c1.03 0 1.91.53 2.2 1.28l-5.25 2.17c0-2.44 1.73-3.45 3.05-3.45z"></path></svg>
  <svg id="wrench" class="svg-icon" viewBox="0 0 24 24"><path d="M22.7 19l-9.1-9.1c.9-2.3.4-5-1.5-6.9-2-2-5-2.4-7.4-1.3L9 6 6 9 1.6 4.7C.4 7.1.9 10.1 2.9 12.1c1.9 1.9 4.6 2.4 6.9 1.5l9.1 9.1c.4.4 1 .4 1.4 0l2.3-2.3c.5-.4.5-1.1.1-1.4z"/></svg>
  <svg id="game-controller" class="svg-icon" viewBox="0 0 24 24"><path d="M0 0v24h24V0H0zm23 16c0 1.1-.9 2-2 2H3c-1.1 0-2-.9-2-2V8c0-1.1.9-2 2-2h18c1.1 0 2 .9 2 2v8z" fill="none"/><path d="M21 6H3c-1.1 0-2 .9-2 2v8c0 1.1.9 2 2 2h18c1.1 0 2-.9 2-2V8c0-1.1-.9-2-2-2zm-10 7H8v3H6v-3H3v-2h3V8h2v3h3v2zm4.5 2c-.83 0-1.5-.67-1.5-1.5s.67-1.5 1.5-1.5 1.5.67 1.5 1.5-.67 1.5-1.5 1.5zm4-3c-.83 0-1.5-.67-1.5-1.5S18.67 9 19.5 9s1.5.67 1.5 1.5-.67 1.5-1.5 1.5z"/></svg>
  <svg id="trending-up" class="svg-icon" viewBox="0 0 24 24" ><path d="M16 6l2.29 2.29-4.88 4.88-4-4L2 16.59 3.41 18l6-6 4 4 6.3-6.29L22 12V6z"/><path d="M0 0h24v24H0z" fill="none"/></svg>
  <svg id="warning-sign" class="svg-icon" viewBox="0 0 24 24"><path d="M12 5.99L19.53 19H4.47L12 5.99M12 2L1 21h22L12 2zm1 14h-2v2h2v-2zm0-6h-2v4h2v-4z"/><path d="M0 0h24v24H0V0z" fill="none"/></svg>
  <svg id="note-sign" class="svg-icon" viewBox="0 0 24 24"><path d="M11 15h2v2h-2v-2zm0-8h2v6h-2V7zm.99-5C6.47 2 2 6.48 2 12s4.47 10 9.99 10C17.52 22 22 17.52 22 12S17.52 2 11.99 2zM12 20c-4.42 0-8-3.58-8-8s3.58-8 8-8 8 3.58 8 8-3.58 8-8 8z"/><path d="M0 0h24v24H0V0z" fill="none"/></svg>
  <svg id="info-sign" class="svg-icon" viewBox="0 0 24 24"><path d="M11 7h2v2h-2zm0 4h2v6h-2zm1-9C6.48 2 2 6.48 2 12s4.48 10 10 10 10-4.48 10-10S17.52 2 12 2zm0 18c-4.41 0-8-3.59-8-8s3.59-8 8-8 8 3.59 8 8-3.59 8-8 8z"/><path d="M0 0h24v24H0V0z" fill="none"/></svg>
  <svg id="tip-sign" class="svg-icon" viewBox="0 0 24 24"><path d="M12 2C6.48 2 2 6.48 2 12s4.48 10 10 10 10-4.48 10-10S17.52 2 12 2zm0 18c-4.41 0-8-3.59-8-8s3.59-8 8-8 8 3.59 8 8-3.59 8-8 8zm-2-5.8l-2.6-2.6L6 13l4 4 8-8-1.4-1.4z"/><path d="M0 0h24v24H0V0z" fill="none"/></svg>
  <svg id="play-button" class="svg-icon" viewBox="0 0 59 59" fill="none"><path d="M25.1445 21.4584C25.1445 20.6597 26.0347 20.1833 26.6992 20.6263L38.3965 28.4245C38.9902 28.8203 38.9902 29.6927 38.3965 30.0886L26.6992 37.8867C26.0347 38.3297 25.1445 37.8534 25.1445 37.0547V21.4584Z" fill="white"/></svg>
  <svg id="multi-device" class="svg-icon" viewBox="0 0 30 22" fill="none"><path d="M2.49414 20.7V17.1H4.89414V3.9C4.89414 3.24 5.12914 2.675 5.59914 2.205C6.06914 1.735 6.63414 1.5 7.29414 1.5H25.2941V3.9H7.29414V17.1H14.4941V20.7H2.49414ZM18.0941 20.7C17.7541 20.7 17.4691 20.585 17.2391 20.355C17.0091 20.125 16.8941 19.84 16.8941 19.5V7.5C16.8941 7.16 17.0091 6.875 17.2391 6.645C17.4691 6.415 17.7541 6.3 18.0941 6.3H25.2941C25.6341 6.3 25.9191 6.415 26.1491 6.645C26.3791 6.875 26.4941 7.16 26.4941 7.5V19.5C26.4941 19.84 26.3791 20.125 26.1491 20.355C25.9191 20.585 25.6341 20.7 25.2941 20.7H18.0941ZM19.2941 17.1H24.0941V8.7H19.2941V17.1Z" fill="white"/></svg>
  <svg id="bracket-monitor" class="svg-icon" viewBox="0 0 25 23" fill="none"><path d="M0.994141 5.33204V2.93204C0.994141 2.27204 1.22914 1.70704 1.69914 1.23704C2.16914 0.767044 2.73414 0.532043 3.39414 0.532043H22.5941C23.2541 0.532043 23.8191 0.767044 24.2891 1.23704C24.7591 1.70704 24.9941 2.27204 24.9941 2.93204V5.33204H22.5941V2.93204H3.39414V5.33204H0.994141ZM8.19414 22.132V19.732H3.39414C2.73414 19.732 2.16914 19.497 1.69914 19.027C1.22914 18.557 0.994141 17.992 0.994141 17.332V14.932H3.39414V17.332H22.5941V14.932H24.9941V17.332C24.9941 17.992 24.7591 18.557 24.2891 19.027C23.8191 19.497 23.2541 19.732 22.5941 19.732H17.7941V22.132H8.19414ZM5.79414 5.33204L0.994141 10.132L5.79414 14.932L7.47414 13.252L4.35414 10.132L7.47414 7.01204L5.79414 5.33204ZM18.5141 7.01204L21.6341 10.132L18.5141 13.252L20.1941 14.932L24.9941 10.132L20.1941 5.33204L18.5141 7.01204Z" fill="white"/></svg>
  <svg id="upload" class="svg-icon" viewBox="0 0 25 20" fill="none"><path fill-rule="evenodd" clip-rule="evenodd" d="M2.77695 0.399902H21.977C23.297 0.399902 24.377 1.4799 24.377 2.7999V17.1999C24.377 18.5319 23.297 19.5999 21.977 19.5999H15.977V17.1999H21.977V6.3999H2.77695V17.1999H8.77695V19.5999H2.77695C1.45695 19.5999 0.376953 18.5319 0.376953 17.1999V2.7999C0.376953 1.4799 1.45695 0.399902 2.77695 0.399902ZM12.3762 7.59985L17.4282 12.6519L15.7242 14.3439L13.5762 12.1959V19.5999H11.1762V12.1959L9.02822 14.3439L7.32422 12.6519L12.3762 7.59985Z" fill="white"/></svg>
  <svg id="angle-yellow" class="svg-icon" viewBox="0 0 26 20" fill="none"><path d="M20.6815 15.5352C21.0265 15.8802 21.5744 15.8802 21.9194 15.5352C22.2644 15.1902 22.2644 14.6423 21.9194 14.2973L15.7908 8.16869L21.5947 2.36479C21.9397 2.0198 21.9397 1.47188 21.5947 1.12689C21.4324 0.964543 21.1888 0.863065 20.9656 0.863065C20.7424 0.863065 20.5192 0.944248 20.3365 1.12689L13.9035 7.5599C13.5585 7.90489 13.5585 8.45281 13.9035 8.7978L20.6815 15.5352Z" fill="#fbbd03"/><path d="M6.53679 8.4934L0.732885 14.2973C0.387898 14.6423 0.387898 15.1902 0.732885 15.5352C1.07787 15.8802 1.62579 15.8802 1.97078 15.5352L8.40378 9.10221C8.74876 8.75722 8.74876 8.20929 8.40378 7.86431L1.64608 1.10659C1.48373 0.944246 1.24022 0.842784 1.01699 0.842784C0.793765 0.842784 0.570543 0.923952 0.387903 1.10659C0.0429156 1.45158 0.0429156 1.99951 0.387902 2.34449L6.53679 8.4934Z" fill="#fbbd03"/></svg>
  <svg id="bracket-green" class="svg-icon" viewBox="0 0 16 23" fill="none"><path d="M-2.60981 14.9525C-3.1358 14.9525 -3.57031 15.3888 -3.57031 15.9171C-3.57031 16.4454 -3.1358 16.8818 -2.60981 16.8818C1.11786 16.8818 1.11786 13.9648 1.11786 12.2193C1.11786 10.1292 1.20933 9.4861 2.92451 9.4861C3.4505 9.4861 3.88502 9.0497 3.88502 8.52144C3.88502 7.99318 3.4505 7.55679 2.92451 7.55679C1.20933 7.55679 1.11786 6.89072 1.11786 4.82361C1.11786 3.07805 1.11786 0.161133 -2.60981 0.161133C-3.1358 0.161133 -3.57031 0.597523 -3.57031 1.12578C-3.57031 1.65405 -3.1358 2.09044 -2.60981 2.09044C-0.894627 2.09044 -0.80315 2.7565 -0.80315 4.82361C-0.80315 5.92607 -0.80315 7.51085 0.157352 8.52144C-0.80315 9.53203 -0.80315 11.1168 -0.80315 12.2193C-0.80315 14.3094 -0.894627 14.9525 -2.60981 14.9525Z" fill="#4bad4b"/><path d="M15.6853 2.06749C16.2113 2.06749 16.6458 1.6311 16.6458 1.10283C16.6458 0.574574 16.2113 0.138184 15.6853 0.138184C11.9576 0.138184 11.9576 3.05511 11.9576 4.80067C11.9576 6.89075 11.8661 7.53385 10.1509 7.53385C9.62494 7.53385 9.19043 7.97024 9.19043 8.4985C9.19043 9.02676 9.62494 9.46315 10.1509 9.46315C11.8661 9.46315 11.9576 10.1292 11.9576 12.1963C11.9576 13.9419 11.9576 16.8588 15.6853 16.8588C16.2113 16.8588 16.6458 16.4224 16.6458 15.8942C16.6458 15.3659 16.2113 14.9295 15.6853 14.9295C13.9701 14.9295 13.8786 14.2634 13.8786 12.1963C13.8786 11.0939 13.8786 9.50909 12.9181 8.4985C13.8786 7.48791 13.8786 5.90313 13.8786 4.80067C13.8786 2.73356 13.9472 2.06749 15.6853 2.06749Z" fill="#4bad4b"/></svg>
  <svg id="bracket-blue" class="svg-icon" viewBox="0 0 16 23" fill="none"><path d="M-2.60981 14.9525C-3.1358 14.9525 -3.57031 15.3888 -3.57031 15.9171C-3.57031 16.4454 -3.1358 16.8818 -2.60981 16.8818C1.11786 16.8818 1.11786 13.9648 1.11786 12.2193C1.11786 10.1292 1.20933 9.4861 2.92451 9.4861C3.4505 9.4861 3.88502 9.0497 3.88502 8.52144C3.88502 7.99318 3.4505 7.55679 2.92451 7.55679C1.20933 7.55679 1.11786 6.89072 1.11786 4.82361C1.11786 3.07805 1.11786 0.161133 -2.60981 0.161133C-3.1358 0.161133 -3.57031 0.597523 -3.57031 1.12578C-3.57031 1.65405 -3.1358 2.09044 -2.60981 2.09044C-0.894627 2.09044 -0.80315 2.7565 -0.80315 4.82361C-0.80315 5.92607 -0.80315 7.51085 0.157352 8.52144C-0.80315 9.53203 -0.80315 11.1168 -0.80315 12.2193C-0.80315 14.3094 -0.894627 14.9525 -2.60981 14.9525Z" fill="#3474e0"/><path d="M15.6853 2.06749C16.2113 2.06749 16.6458 1.6311 16.6458 1.10283C16.6458 0.574574 16.2113 0.138184 15.6853 0.138184C11.9576 0.138184 11.9576 3.05511 11.9576 4.80067C11.9576 6.89075 11.8661 7.53385 10.1509 7.53385C9.62494 7.53385 9.19043 7.97024 9.19043 8.4985C9.19043 9.02676 9.62494 9.46315 10.1509 9.46315C11.8661 9.46315 11.9576 10.1292 11.9576 12.1963C11.9576 13.9419 11.9576 16.8588 15.6853 16.8588C16.2113 16.8588 16.6458 16.4224 16.6458 15.8942C16.6458 15.3659 16.2113 14.9295 15.6853 14.9295C13.9701 14.9295 13.8786 14.2634 13.8786 12.1963C13.8786 11.0939 13.8786 9.50909 12.9181 8.4985C13.8786 7.48791 13.8786 5.90313 13.8786 4.80067C13.8786 2.73356 13.9472 2.06749 15.6853 2.06749Z" fill="#3474e0"/></svg>
  <svg id="slash-blue" class="svg-icon" viewBox="0 0 24 21" fill="none"><path d="M0.977501 20.6534C1.14572 20.7374 1.31393 20.7654 1.48214 20.7654C1.93072 20.7654 2.35125 20.5135 2.57554 20.0938L11.3507 1.70931C11.6311 1.12168 11.3788 0.394139 10.79 0.114315C10.2013 -0.16551 9.47232 0.0863323 9.19197 0.673964L0.416774 19.0584C0.108381 19.6741 0.360715 20.3736 0.977501 20.6534Z" fill="#3474e0"/><path d="M0.977501 20.6534C1.14572 20.7374 1.31393 20.7654 1.48214 20.7654C1.93072 20.7654 2.35125 20.5135 2.57554 20.0938L11.3507 1.70931C11.6311 1.12168 11.3788 0.394139 10.79 0.114315C10.2013 -0.16551 9.47232 0.0863323 9.19197 0.673964L0.416774 19.0584C0.108381 19.6741 0.360715 20.3736 0.977501 20.6534Z" fill="#3474e0" style="transform: translateX(8px)"/></svg>
  <svg id="games" class="svg-icon" viewBox="0 0 36 36"> <circle cx="18" cy="18" r="18" fill="#fff"/> <circle cx="18" cy="18" r="18" fill="#EFB8C8"/> <path d="m27.58 22.09-1.09-7.66A3.996 3.996 0 0 0 22.53 11h-9.06c-1.99 0-3.68 1.46-3.96 3.43l-1.09 7.66a2.545 2.545 0 0 0 4.32 2.16L15 22h6l2.25 2.25c.48.48 1.13.75 1.8.75 1.56 0 2.75-1.37 2.53-2.91Zm-2.1.72a.54.54 0 0 1-.42.19c-.15 0-.29-.06-.39-.16L21.83 20h-7.66l-2.84 2.84c-.1.1-.24.16-.39.16a.54.54 0 0 1-.42-.19.52.52 0 0 1-.13-.44l1.09-7.66c.15-.97 1-1.71 1.99-1.71h9.06c.99 0 1.84.74 1.98 1.72l1.09 7.66c.03.2-.05.34-.12.43Z" fill="#4A2532"/> <path d="M15 14h-1v2h-2v1h2v2h1v-2h2v-1h-2v-2Zm8 5a1 1 0 1 0 0-2 1 1 0 0 0 0 2Zm-2-3a1 1 0 1 0 0-2 1 1 0 0 0 0 2Z" fill="#4A2532"/> </svg>
  <svg id="pwa" class="svg-icon" viewBox="0 0 36 36"> <circle cx="18" cy="18" r="18" fill="white"/> <circle cx="18" cy="18" r="18" fill="#CFEDFF"/> <path fill-rule="evenodd" clip-rule="evenodd" d="M26 23V24H30V26H6V24H10V23C8.9 23 8 22.1 8 21V11C8 9.9 8.9 9 10 9H26C27.1 9 28 9.9 28 11L27.99 21C27.99 22.1 27.1 23 26 23ZM26 11H10V21H26V11Z" fill="#1C50B9"/> </svg>
  <svg id="web" class="svg-icon" viewBox="0 0 36 36"> <circle cx="18" cy="18" r="18" fill="white"/> <circle cx="18" cy="18" r="18" fill="#CFEDFF"/> <path fill-rule="evenodd" clip-rule="evenodd" d="M26 23V24H30V26H6V24H10V23C8.9 23 8 22.1 8 21V11C8 9.9 8.9 9 10 9H26C27.1 9 28 9.9 28 11L27.99 21C27.99 22.1 27.1 23 26 23ZM26 11H10V21H26V11Z" fill="#1C50B9"/> </svg>
  <svg id="android" class="svg-icon" viewBox="0 0 36 36"> <circle cx="18" cy="18" r="18" fill="white"/> <circle cx="18" cy="18" r="18" fill="#D9F4D7"/> <path d="M23.6 15.4802L25.44 12.3002C25.6 11.9902 25.48 11.6102 25.18 11.4502C24.89 11.3002 24.53 11.3902 24.35 11.6702L22.47 14.9102C19.61 13.7002 16.39 13.7002 13.53 14.9102L11.65 11.6702C11.46 11.3802 11.07 11.2902 10.78 11.4702C10.5 11.6502 10.41 12.0102 10.56 12.3002L12.4 15.4802C9.3 17.2502 7.28 20.4402 7 24.0002H29C28.72 20.4402 26.7 17.2502 23.6 15.4802ZM13 21.2502C12.31 21.2502 11.75 20.6902 11.75 20.0002C11.75 19.3102 12.31 18.7502 13 18.7502C13.69 18.7502 14.25 19.3102 14.25 20.0002C14.25 20.6902 13.69 21.2502 13 21.2502ZM23 21.2502C22.31 21.2502 21.75 20.6902 21.75 20.0002C21.75 19.3102 22.31 18.7502 23 18.7502C23.69 18.7502 24.25 19.3102 24.25 20.0002C24.25 20.6902 23.69 21.2502 23 21.2502Z" fill="#1A7236"/> </svg>
  <svg id="base-os" class="svg-icon" viewBox="0 0 36 36"> <circle cx="18" cy="18" r="18" fill="#FFE99B"/> <path d="M21 15H15V21H21V15ZM19 19H17V17H19V19ZM27 17V15H25V13C25 11.9 24.1 11 23 11H21V9H19V11H17V9H15V11H13C11.9 11 11 11.9 11 13V15H9V17H11V19H9V21H11V23C11 24.1 11.9 25 13 25H15V27H17V25H19V27H21V25H23C24.1 25 25 24.1 25 23V21H27V19H25V17H27ZM23 23H13V13H23V23Z" fill="#E98622"/> </svg>
  <svg id="event" class="svg-icon" viewBox="0 0 36 36"> <circle cx="18" cy="18" r="18" fill="white"/> <circle cx="18" cy="18" r="18" fill="#F0FC00"/> <path d="M23 17H13V19H23V17ZM25 10H24V8H22V10H14V8H12V10H11C9.89 10 9.01 10.9 9.01 12L9 26C9 27.1 9.89 28 11 28H25C26.1 28 27 27.1 27 26V12C27 10.9 26.1 10 25 10ZM25 26H11V15H25V26ZM20 21H13V23H20V21Z" fill="#616200"/> </svg>
  <svg id="announcement" class="svg-icon" viewBox="0 0 36 36"> <circle cx="18" cy="18" r="18" fill="white"/> <circle cx="18" cy="18" r="18" fill="#FDDAD3"/> <path d="M24 17C24 17.67 24 18.33 24 19C25.2 19 26.76 19 28 19C28 18.33 28 17.67 28 17C26.76 17 25.2 17 24 17Z" fill="#B2181B"/> <path d="M22 23.61C22.96 24.32 24.21 25.26 25.2 26C25.6 25.47 26 24.93 26.4 24.4C25.41 23.66 24.16 22.72 23.2 22C22.8 22.54 22.4 23.08 22 23.61Z" fill="#B2181B"/> <path d="M26.4 11.6C26 11.07 25.6 10.53 25.2 10C24.21 10.74 22.96 11.68 22 12.4C22.4 12.93 22.8 13.47 23.2 14C24.16 13.28 25.41 12.35 26.4 11.6Z" fill="#B2181B"/> <path d="M10 15C8.9 15 8 15.9 8 17V19C8 20.1 8.9 21 10 21H11V25H13V21H14L19 24V12L14 15H10ZM15.03 16.71L17 15.53V20.47L15.03 19.29L14.55 19H10V17H14.55L15.03 16.71Z" fill="#B2181B"/> <path d="M21.5 18C21.5 16.67 20.92 15.47 20 14.65V21.34C20.92 20.53 21.5 19.33 21.5 18Z" fill="#B2181B"/> </svg>
  <svg id="leader-s-corner" class="svg-icon" viewBox="0 0 36 36"> <circle cx="18" cy="18" r="18" fill="white"/> <circle cx="18" cy="18" r="18" fill="#D0BCFF"/> <path d="M12.0019 20L15.0019 23V28H21.0019V23L24.0019 20V15H12.0019V20ZM14.0019 17H22.0019V19.17L19.0019 22.17V26H17.0019V22.17L14.0019 19.17V17ZM17.0019 8H19.0019V11H17.0019V8ZM9.50391 11.874L10.9179 10.46L13.0399 12.58L11.6259 13.995L9.50391 11.874ZM22.9619 12.582L25.0849 10.462L26.4979 11.878L24.3749 13.998L22.9619 12.582Z" fill="#381E73"/> </svg>  
</svg>
