<svg xmlns="http://www.w3.org/2000/svg" height="18px" width="18px">
  <defs>
    <style>
      .svg-icon { display: none }
      .svg-icon:target { display: inline }
    </style>
  </defs>
  <svg id="chevron-left" class="svg-icon" viewBox="0 0 24 24"><path d="M16.41 5.41L15 4l-8 8 8 8 1.41-1.41L9.83 12"></path></svg>
  <svg id="chevron-right" class="svg-icon" viewBox="0 0 24 24"><path d="M7.59 18.59L9 20l8-8-8-8-1.41 1.41L14.17 12"></path></svg>
  <svg id="expand-less" class="svg-icon" viewBox="0 0 24 24"><path d="M18.59 16.41L20 15l-8-8-8 8 1.41 1.41L12 9.83"></path></svg>
  <svg id="expand-more" class="svg-icon" viewBox="0 0 24 24"><path d="M5.41 7.59L4 9l8 8 8-8-1.41-1.41L12 14.17"></path></svg>
  <svg id="arrow-back" class="svg-icon" viewBox="0 0 24 24"><path d="M20 11H7.83l5.59-5.59L12 4l-8 8 8 8 1.41-1.41L7.83 13H20v-2z"></path></svg>
  <svg id="arrow-forward" class="svg-icon" viewBox="0 0 24 24"><path d="M12 4l-1.41 1.41L16.17 11H4v2h12.17l-5.58 5.59L12 20l8-8-8-8z"></path></svg>
  <svg id="arrow-external" class="svg-icon" viewBox="0 0 24 24"><path d="M6,6.5v2l7.9,0l-8.6,8.6l1.4,1.4l8.6-8.6l0,7.9h2V6.5H6z"/></svg>
  <svg id="arrow-upward" class="svg-icon" viewBox="0 0 24 24"><path d="M4 12l1.41 1.41L11 7.83V20h2V7.83l5.58 5.59L20 12l-8-8-8 8z"></path></svg>
  <svg id="arrow-downward" class="svg-icon" viewBox="0 0 24 24"><path d="M20 12l-1.41-1.41L13 16.17V4h-2v12.17l-5.58-5.59L4 12l8 8 8-8z"></path></svg>
  <svg id="arrow-left" class="svg-icon" viewBox="0 0 24 24"><path d="M14 7l-5 5 5 5V7z"></path></svg>
  <svg id="arrow-right" class="svg-icon" viewBox="0 0 24 24"><path d="M10 17l5-5-5-5v10z"></path></svg>
  <svg id="arrow-drop-up" class="svg-icon" viewBox="0 0 24 24"><path d="M7 14l5-5 5 5H7z"></path></svg>
  <svg id="arrow-drop-down" class="svg-icon" viewBox="0 0 24 24"><path d="M7 10l5 5 5-5H7z"></path></svg>
  <svg id="publish" class="svg-icon" viewBox="0 0 24 24"><path d="M0 0h24v24H0V0z" fill="none"/><path d="M20 9h-2V6H6v3H4V6c0-1.1.9-2 2-2h12c1.1 0 2 .9 2 2M8.41 14.41L11 11.83V20h2v-8.17l2.59 2.59L17 13l-5-5-5 5 1.41 1.41z"/></svg>
  <svg id="cloud-off" class="svg-icon" viewBox="0 0 24 24"><path d="M0 0h24v24H0z" fill="none"/><path d="M19.35 10.04C18.67 6.59 15.64 4 12 4c-1.48 0-2.85.43-4.01 1.17l1.46 1.46C10.21 6.23 11.08 6 12 6c3.04 0 5.5 2.46 5.5 5.5v.5H19c1.66 0 3 1.34 3 3 0 1.13-.64 2.11-1.56 2.62l1.45 1.45C23.16 18.16 24 16.68 24 15c0-2.64-2.05-4.78-4.65-4.96zM3 5.27l2.75 2.74C2.56 8.15 0 10.77 0 14c0 3.31 2.69 6 6 6h11.73l2 2L21 20.73 4.27 4 3 5.27zM7.73 10l8 8H6c-2.21 0-4-1.79-4-4s1.79-4 4-4h1.73z"/></svg>
  <svg id="help" class="svg-icon" viewBox="0 0 24 24"><path d="M12 2C6.48 2 2 6.48 2 12s4.48 10 10 10 10-4.48 10-10S17.52 2 12 2zm1 17h-2v-2h2v2zm2.07-7.75l-.9.92C13.45 12.9 13 13.5 13 15h-2v-.5c0-1.1.45-2.1 1.17-2.83l1.24-1.26c.37-.36.59-.86.59-1.41 0-1.1-.9-2-2-2s-2 .9-2 2H8c0-2.21 1.79-4 4-4s4 1.79 4 4c0 .88-.36 1.68-.93 2.25z"></path></svg>
  <svg id="loader" class="svg-icon" viewBox="0 0 24 24"><path d="M12 22C6.49 22 2 17.51 2 12S6.49 2 12 2c.55 0 1 .45 1 1s-.45 1-1 1c-4.41 0-8 3.59-8 8s3.59 8 8 8 8-3.59 8-8c0-.55.45-1 1-1s1 .45 1 1c0 5.51-4.49 10-10 10z"/><path d="M0 0h24v24H0z" fill="none"/></svg>
  <svg id="menu" class="svg-icon" viewBox="0 0 24 24"><path d="M3 18h18v-2H3v2zm0-5h18v-2H3v2zm0-7v2h18V6H3z"></path></svg>
  <svg id="more-vert" class="svg-icon" viewBox="0 0 24 24"><path d="M12 8c1.1 0 2-.9 2-2s-.9-2-2-2-2 .9-2 2 .9 2 2 2zm0 2c-1.1 0-2 .9-2 2s.9 2 2 2 2-.9 2-2-.9-2-2-2zm0 6c-1.1 0-2 .9-2 2s.9 2 2 2 2-.9 2-2-.9-2-2-2z"></path></svg>
  <svg id="drive-pdf" class="svg-icon" viewBox="0 0 24 24"><path d="M7 11.5h1v-1H7v1zM19 3H5c-1.1 0-2 .9-2 2v14c0 1.1.9 2 2 2h14c1.1 0 2-.9 2-2V5c0-1.1-.9-2-2-2zm-9.5 8.5c0 .83-.67 1.5-1.5 1.5H7v2H5.5V9H8c.83 0 1.5.67 1.5 1.5v1zm10-1H17v1h1.5V13H17v2h-1.5V9h4v1.5zm-5 3c0 .83-.67 1.5-1.5 1.5h-2.5V9H13c.83 0 1.5.67 1.5 1.5v3zm-2.5 0h1v-3h-1v3z"></path></svg>
  <svg id="file-download" class="svg-icon" viewBox="0 0 24 24"><path d="M4 15h2v3h12v-3h2v3c0 1.1-.9 2-2 2H6c-1.1 0-2-.9-2-2m11.59-8.41L13 12.17V4h-2v8.17L8.41 9.59 7 11l5 5 5-5-1.41-1.41z"></path></svg>
  <svg id="open-in-new" class="svg-icon" viewBox="0 0 24 24"><path d="M19 19H5V5h7V3H5a2 2 0 0 0-2 2v14a2 2 0 0 0 2 2h14c1.1 0 2-.9 2-2v-7h-2v7zM14 3v2h3.59l-9.83 9.83 1.41 1.41L19 6.41V10h2V3h-7z"></path></svg>
  <svg id="phone" class="svg-icon" viewBox="0 0 24 24"><path d="M16.01 14.46l-2.62 2.62a16.141 16.141 0 0 1-6.5-6.5l2.62-2.62a.98.98 0 0 0 .27-.9L9.13 3.8c-.09-.46-.5-.8-.98-.8H4c-.56 0-1.03.47-1 1.03a17.92 17.92 0 0 0 2.43 8.01 18.08 18.08 0 0 0 6.5 6.5 17.92 17.92 0 0 0 8.01 2.43c.56.03 1.03-.44 1.03-1v-4.15c0-.48-.34-.89-.8-.98l-3.26-.65a.99.99 0 0 0-.9.27z"></path></svg>
  <svg id="email" class="svg-icon" viewBox="0 0 24 24"><path d="M20 4H4c-1.1 0-2 .9-2 2v12c0 1.1.9 2 2 2h16c1.1 0 2-.9 2-2V6c0-1.1-.9-2-2-2zm-.8 2L12 10.8 4.8 6h14.4zM4 18V7.87l8 5.33 8-5.33V18H4z"></path></svg>
  <svg id="instagram" class="svg-icon" viewBox="0 0 24 24"><path d="M12,0 C15.3,0 15.7,0 17,0 C18.3,0.1 19.1,0.3 19.9,0.6 C20.7,0.9 21.3,1.3 22,2 C22.7,2.7 23.1,3.4 23.3,4.2 C23.6,5 23.8,5.8 23.9,7.1 C24,8.3 24,8.7 24,12 C24,15.3 24,15.7 23.9,16.9 C23.8,18.2 23.6,19 23.3,19.8 C23,20.6 22.6,21.2 21.9,21.9 C21.3,22.6 20.6,23 19.8,23.3 C19,23.6 18.2,23.8 16.9,23.9 C15.7,24 15.3,24 12,24 C8.7,24 8.3,24 7,24 C5.7,23.9 4.9,23.7 4.1,23.4 C3.3,23.1 2.7,22.7 2,22 C1.3,21.3 0.9,20.6 0.7,19.8 C0.4,19 0.2,18.2 0.1,16.9 C0,15.7 0,15.3 0,12 C0,8.7 0,8.3 0.1,7.1 C0.1,5.8 0.3,4.9 0.6,4.1 C0.9,3.4 1.3,2.7 2,2 C2.7,1.3 3.4,0.9 4.1,0.6 C4.9,0.3 5.8,0.1 7.1,0.1 C8.3,0 8.7,0 12,0 Z M12,2.2 C8.8,2.2 8.4,2.2 7.2,2.2 C6,2.3 5.3,2.5 4.9,2.6 C4.4,2.9 4,3.1 3.5,3.5 C3.1,3.9 2.8,4.3 2.6,4.9 C2.5,5.3 2.3,6 2.3,7.2 C2.2,8.4 2.2,8.8 2.2,12 C2.2,15.2 2.2,15.5 2.3,16.8 C2.3,17.9 2.5,18.6 2.7,19 C2.9,19.6 3.2,20 3.6,20.4 C4,20.8 4.4,21.1 5,21.3 C5.4,21.5 6,21.6 7.2,21.7 C8.4,21.8 8.8,21.8 12,21.8 C15.2,21.8 15.5,21.8 16.8,21.7 C17.9,21.7 18.6,21.5 19,21.3 C19.6,21.1 20,20.8 20.4,20.4 C20.8,20 21.1,19.6 21.3,19 C21.5,18.6 21.6,18 21.7,16.8 C21.8,15.6 21.8,15.2 21.8,12 C21.8,8.8 21.8,8.5 21.7,7.2 C21.7,6.1 21.5,5.4 21.3,5 C21.1,4.4 20.8,4 20.4,3.6 C20,3.2 19.6,2.9 19,2.7 C18.6,2.5 18,2.4 16.8,2.3 C15.6,2.2 15.2,2.2 12,2.2 Z M12,5.8 C15.4,5.8 18.2,8.6 18.2,12 C18.2,15.4 15.4,18.2 12,18.2 C8.6,18.2 5.8,15.4 5.8,12 C5.8,8.6 8.6,5.8 12,5.8 Z M12,16 C14.2,16 16,14.2 16,12 C16,9.8 14.2,8 12,8 C9.8,8 8,9.8 8,12 C8,14.2 9.8,16 12,16 Z M18.4,7 C17.6268014,7 17,6.37319865 17,5.6 C17,4.82680135 17.6268014,4.2 18.4,4.2 C19.1731986,4.2 19.8,4.82680135 19.8,5.6 C19.8,6.37319865 19.1731986,7 18.4,7 Z"></path></svg>
  <svg id="link" class="svg-icon" viewBox="0 0 24 24"><path d="M17 7h-4v2h4c1.65 0 3 1.35 3 3s-1.35 3-3 3h-4v2h4c2.76 0 5-2.24 5-5s-2.24-5-5-5zm-6 8H7c-1.65 0-3-1.35-3-3s1.35-3 3-3h4V7H7c-2.76 0-5 2.24-5 5s2.24 5 5 5h4v-2z"></path><path d="M8 11h8v2H8z"></path></svg>
  <svg id="post-blogger" class="svg-icon" viewBox="0 0 24 24"><path d="M20 2H4c-1.1 0-1.99.9-1.99 2L2 20c0 1.1.9 2 2 2h16c1.1 0 2-.9 2-2V4c0-1.1-.9-2-2-2zm-4 7v1c0 .55.45 1 1 1s1 .45 1 1v3c0 1.66-1.34 3-3 3H9c-1.66 0-3-1.34-3-3V8c0-1.66 1.34-3 3-3h4c1.66 0 3 1.34 3 3v1zm-6.05 1h2.6c.55 0 1-.45 1-1s-.45-1-1-1h-2.6c-.55 0-1 .45-1 1s.45 1 1 1zM14 13H9.95c-.55 0-1 .45-1 1s.45 1 1 1H14c.55 0 1-.45 1-1s-.45-1-1-1z"></path></svg>
  <svg id="post-facebook" class="svg-icon" viewBox="0 0 24 24"><path d="M20 2H4c-1.1 0-1.99.9-1.99 2L2 20c0 1.1.9 2 2 2h16c1.1 0 2-.9 2-2V4c0-1.1-.9-2-2-2zm-1 2v3h-2c-.55 0-1 .45-1 1v2h3v3h-3v7h-3v-7h-2v-3h2V7.5C13 5.57 14.57 4 16.5 4H19z"></path></svg>
  <svg id="post-linkedin" class="svg-icon" viewBox="0 0 24 24"><path d="M20 2H4c-1.1 0-1.99.9-1.99 2L2 20c0 1.1.9 2 2 2h16c1.1 0 2-.9 2-2V4c0-1.1-.9-2-2-2zM8 19H5v-9h3v9zM6.5 8.31c-1 0-1.81-.81-1.81-1.81S5.5 4.69 6.5 4.69s1.81.81 1.81 1.81S7.5 8.31 6.5 8.31zM19 19h-3v-5.3c0-.83-.67-1.5-1.5-1.5s-1.5.67-1.5 1.5V19h-3v-9h3v1.2c.52-.84 1.59-1.4 2.5-1.4 1.93 0 3.5 1.57 3.5 3.5V19z"></path></svg>
  <svg id="share" class="svg-icon" viewBox="0 0 24 24"><path d="M18 16c-.79 0-1.5.31-2.03.81L8.91 12.7c.05-.23.09-.46.09-.7s-.04-.47-.09-.7l7.05-4.11c.53.5 1.25.81 2.04.81 1.66 0 3-1.34 3-3s-1.34-3-3-3-3 1.34-3 3c0 .24.04.48.09.7L8.04 9.81C7.5 9.31 6.79 9 6 9c-1.66 0-3 1.34-3 3s1.34 3 3 3c.79 0 1.5-.31 2.04-.81l7.05 4.12c-.05.22-.09.45-.09.69 0 1.66 1.34 3 3 3s3-1.34 3-3-1.34-3-3-3zm0-12c.55 0 1 .45 1 1s-.45 1-1 1-1-.45-1-1 .45-1 1-1zM6 13c-.55 0-1-.45-1-1s.45-1 1-1 1 .45 1 1-.45 1-1 1zm12 7c-.55 0-1-.45-1-1s.45-1 1-1 1 .45 1 1-.45 1-1 1z"></path></svg>
  <svg id="twitter" class="svg-icon" viewBox="0 0 24 24"><path d="M7.5,21.8c9.1,0,14-7.5,14-14c0-0.2,0-0.4,0-0.6c1-0.7,1.8-1.6,2.5-2.5c-0.9,0.4-1.8,0.7-2.8,0.8c1-0.6,1.8-1.6,2.2-2.7 c-1,0.6-2,1-3.1,1.2c-0.9-1-2.2-1.6-3.6-1.6c-2.7,0-4.9,2.2-4.9,4.9c0,0.4,0,0.8,0.1,1.1C7.7,8.1,4.1,6.1,1.7,3.1 C1.2,3.9,1,4.7,1,5.6c0,1.7,0.9,3.2,2.2,4.1C2.4,9.7,1.6,9.5,1,9.1c0,0,0,0,0,0.1c0,2.4,1.7,4.4,4,4.8c-0.4,0.1-0.8,0.2-1.3,0.2 c-0.3,0-0.6,0-0.9-0.1c0.6,2,2.4,3.4,4.6,3.4c-1.7,1.3-3.8,2.1-6.1,2.1c-0.4,0-0.8,0-1.2-0.1C2.2,20.9,4.8,21.8,7.5,21.8"></path></svg>
  <svg id="video-youtube" class="svg-icon" viewBox="0 0 24 24"><path d="M23.74 7.1s-.23-1.65-.95-2.37c-.91-.96-1.93-.96-2.4-1.02C17.04 3.47 12 3.5 12 3.5s-5.02-.03-8.37.21c-.46.06-1.48.06-2.39 1.02C.52 5.45.28 7.1.28 7.1S.04 9.05 0 10.98V13c.04 1.94.28 3.87.28 3.87s.24 1.65.96 2.38c.91.95 2.1.92 2.64 1.02 1.88.18 7.91.22 8.12.22 0 0 5.05.01 8.4-.23.46-.06 1.48-.06 2.39-1.02.72-.72.96-2.37.96-2.37s.24-1.94.25-3.87v-2.02c-.02-1.93-.26-3.88-.26-3.88zM9.57 15.5V8.49L16 12.13 9.57 15.5z"></path></svg>
  <svg id="video-youtube-white" class="svg-icon" viewBox="0 0 24 24"><path fill="#fff" d="M23.74 7.1s-.23-1.65-.95-2.37c-.91-.96-1.93-.96-2.4-1.02C17.04 3.47 12 3.5 12 3.5s-5.02-.03-8.37.21c-.46.06-1.48.06-2.39 1.02C.52 5.45.28 7.1.28 7.1S.04 9.05 0 10.98V13c.04 1.94.28 3.87.28 3.87s.24 1.65.96 2.38c.91.95 2.1.92 2.64 1.02 1.88.18 7.91.22 8.12.22 0 0 5.05.01 8.4-.23.46-.06 1.48-.06 2.39-1.02.72-.72.96-2.37.96-2.37s.24-1.94.25-3.87v-2.02c-.02-1.93-.26-3.88-.26-3.88zM9.57 15.5V8.49L16 12.13 9.57 15.5z"></path></svg>
  <svg id="video-youtube-black" class="svg-icon" viewBox="0 0 24 24"><path fill="#000" d="M23.74 7.1s-.23-1.65-.95-2.37c-.91-.96-1.93-.96-2.4-1.02C17.04 3.47 12 3.5 12 3.5s-5.02-.03-8.37.21c-.46.06-1.48.06-2.39 1.02C.52 5.45.28 7.1.28 7.1S.04 9.05 0 10.98V13c.04 1.94.28 3.87.28 3.87s.24 1.65.96 2.38c.91.95 2.1.92 2.64 1.02 1.88.18 7.91.22 8.12.22 0 0 5.05.01 8.4-.23.46-.06 1.48-.06 2.39-1.02.72-.72.96-2.37.96-2.37s.24-1.94.25-3.87v-2.02c-.02-1.93-.26-3.88-.26-3.88zM9.57 15.5V8.49L16 12.13 9.57 15.5z"></path><polygon fill="#fff" points="9.6,15.5 9.6,8.5 16,12.1 "></polygon></svg>
  <svg id="video-youtube-red" class="svg-icon" viewBox="0 0 24 24"><path fill="#f00" d="M23.74 7.1s-.23-1.65-.95-2.37c-.91-.96-1.93-.96-2.4-1.02C17.04 3.47 12 3.5 12 3.5s-5.02-.03-8.37.21c-.46.06-1.48.06-2.39 1.02C.52 5.45.28 7.1.28 7.1S.04 9.05 0 10.98V13c.04 1.94.28 3.87.28 3.87s.24 1.65.96 2.38c.91.95 2.1.92 2.64 1.02 1.88.18 7.91.22 8.12.22 0 0 5.05.01 8.4-.23.46-.06 1.48-.06 2.39-1.02.72-.72.96-2.37.96-2.37s.24-1.94.25-3.87v-2.02c-.02-1.93-.26-3.88-.26-3.88zM9.57 15.5V8.49L16 12.13 9.57 15.5z"></path><polygon fill="#fff" points="9.6,15.5 9.6,8.5 16,12.1 "></polygon></svg>
  <svg id="video-youtube-white" class="svg-icon" viewBox="0 0 24 24"><path fill="#fff" d="M23.74 7.1s-.23-1.65-.95-2.37c-.91-.96-1.93-.96-2.4-1.02C17.04 3.47 12 3.5 12 3.5s-5.02-.03-8.37.21c-.46.06-1.48.06-2.39 1.02C.52 5.45.28 7.1.28 7.1S.04 9.05 0 10.98V13c.04 1.94.28 3.87.28 3.87s.24 1.65.96 2.38c.91.95 2.1.92 2.64 1.02 1.88.18 7.91.22 8.12.22 0 0 5.05.01 8.4-.23.46-.06 1.48-.06 2.39-1.02.72-.72.96-2.37.96-2.37s.24-1.94.25-3.87v-2.02c-.02-1.93-.26-3.88-.26-3.88zM9.57 15.5V8.49L16 12.13 9.57 15.5z"></path></svg>
  <svg id="close" class="svg-icon" viewBox="0 0 24 24"><path d="M19 6.41L17.59 5 12 10.59 6.41 5 5 6.41 10.59 12 5 17.59 6.41 19 12 13.41 17.59 19 19 17.59 13.41 12 19 6.41z"></path></svg>
  <svg id="add" class="svg-icon" viewBox="0 0 24 24"><path d="M20 13h-7v7h-2v-7H4v-2h7V4h2v7h7v2z"/></svg>
  <svg id="expand-all" class="svg-icon" viewBox="0 0 24 24"><path d="M16.59 9.41L18 8l-6-6-6 6 1.41 1.41L12 4.83l4.59 4.58zM12 19.17l-4.59-4.58L6 16l6 6 6-6-1.41-1.41L12 19.17z"></path></svg>
  <svg id="play-circle-filled" class="svg-icon" viewBox="0 0 24 24"><path d="M12 2C6.48 2 2 6.48 2 12s4.48 10 10 10 10-4.48 10-10S17.52 2 12 2zm-2 14.5v-9l6 4.5-6 4.5z"></path></svg>
  <svg id="search" class="svg-icon" viewBox="0 0 24 24"><path d="M20.49 19l-5.73-5.73C15.53 12.2 16 10.91 16 9.5A6.5 6.5 0 1 0 9.5 16c1.41 0 2.7-.47 3.77-1.24L19 20.49 20.49 19zM5 9.5C5 7.01 7.01 5 9.5 5S14 7.01 14 9.5 11.99 14 9.5 14 5 11.99 5 9.5z"></path></svg>
  <svg id="google-color-logo" class="svg-icon" viewBox="0 0 74 24"><path fill="#4285F4" d="M9.24 8.19v2.46h5.88c-.18 1.38-.64 2.39-1.34 3.1-.86.86-2.2 1.8-4.54 1.8-3.62 0-6.45-2.92-6.45-6.54s2.83-6.54 6.45-6.54c1.95 0 3.38.77 4.43 1.76L15.4 2.5C13.94 1.08 11.98 0 9.24 0 4.28 0 .11 4.04.11 9s4.17 9 9.13 9c2.68 0 4.7-.88 6.28-2.52 1.62-1.62 2.13-3.91 2.13-5.75 0-.57-.04-1.1-.13-1.54H9.24z"></path><path fill="#EA4335" d="M25 6.19c-3.21 0-5.83 2.44-5.83 5.81 0 3.34 2.62 5.81 5.83 5.81s5.83-2.46 5.83-5.81c0-3.37-2.62-5.81-5.83-5.81zm0 9.33c-1.76 0-3.28-1.45-3.28-3.52 0-2.09 1.52-3.52 3.28-3.52s3.28 1.43 3.28 3.52c0 2.07-1.52 3.52-3.28 3.52z"></path><path fill="#4285F4" d="M53.58 7.49h-.09c-.57-.68-1.67-1.3-3.06-1.3C47.53 6.19 45 8.72 45 12c0 3.26 2.53 5.81 5.43 5.81 1.39 0 2.49-.62 3.06-1.32h.09v.81c0 2.22-1.19 3.41-3.1 3.41-1.56 0-2.53-1.12-2.93-2.07l-2.22.92c.64 1.54 2.33 3.43 5.15 3.43 2.99 0 5.52-1.76 5.52-6.05V6.49h-2.42v1zm-2.93 8.03c-1.76 0-3.1-1.5-3.1-3.52 0-2.05 1.34-3.52 3.1-3.52 1.74 0 3.1 1.5 3.1 3.54.01 2.03-1.36 3.5-3.1 3.5z"></path><path fill="#FBBC05" d="M38 6.19c-3.21 0-5.83 2.44-5.83 5.81 0 3.34 2.62 5.81 5.83 5.81s5.83-2.46 5.83-5.81c0-3.37-2.62-5.81-5.83-5.81zm0 9.33c-1.76 0-3.28-1.45-3.28-3.52 0-2.09 1.52-3.52 3.28-3.52s3.28 1.43 3.28 3.52c0 2.07-1.52 3.52-3.28 3.52z"></path><path fill="#34A853" d="M58 .24h2.51v17.57H58z"></path><path fill="#EA4335" d="M68.26 15.52c-1.3 0-2.22-.59-2.82-1.76l7.77-3.21-.26-.66c-.48-1.3-1.96-3.7-4.97-3.7-2.99 0-5.48 2.35-5.48 5.81 0 3.26 2.46 5.81 5.76 5.81 2.66 0 4.2-1.63 4.84-2.57l-1.98-1.32c-.66.96-1.56 1.6-2.86 1.6zm-.18-7.15c1.03 0 1.91.53 2.2 1.28l-5.25 2.17c0-2.44 1.73-3.45 3.05-3.45z"></path></svg>
  <svg id="google-solid-logo" class="svg-icon" viewBox="0 0 74 24"><path d="M9.24 8.19v2.46h5.88c-.18 1.38-.64 2.39-1.34 3.1-.86.86-2.2 1.8-4.54 1.8-3.62 0-6.45-2.92-6.45-6.54s2.83-6.54 6.45-6.54c1.95 0 3.38.77 4.43 1.76L15.4 2.5C13.94 1.08 11.98 0 9.24 0 4.28 0 .11 4.04.11 9s4.17 9 9.13 9c2.68 0 4.7-.88 6.28-2.52 1.62-1.62 2.13-3.91 2.13-5.75 0-.57-.04-1.1-.13-1.54H9.24zm15.76-2c-3.21 0-5.83 2.44-5.83 5.81 0 3.34 2.62 5.81 5.83 5.81s5.83-2.46 5.83-5.81c0-3.37-2.62-5.81-5.83-5.81zm0 9.33c-1.76 0-3.28-1.45-3.28-3.52 0-2.09 1.52-3.52 3.28-3.52s3.28 1.43 3.28 3.52c0 2.07-1.52 3.52-3.28 3.52zm28.58-8.03h-.09c-.57-.68-1.67-1.3-3.06-1.3C47.53 6.19 45 8.72 45 12c0 3.26 2.53 5.81 5.43 5.81 1.39 0 2.49-.62 3.06-1.32h.09v.81c0 2.22-1.19 3.41-3.1 3.41-1.56 0-2.53-1.12-2.93-2.07l-2.22.92c.64 1.54 2.33 3.43 5.15 3.43 2.99 0 5.52-1.76 5.52-6.05V6.49h-2.42v1zm-2.93 8.03c-1.76 0-3.1-1.5-3.1-3.52 0-2.05 1.34-3.52 3.1-3.52 1.74 0 3.1 1.5 3.1 3.54.01 2.03-1.36 3.5-3.1 3.5zM38 6.19c-3.21 0-5.83 2.44-5.83 5.81 0 3.34 2.62 5.81 5.83 5.81s5.83-2.46 5.83-5.81c0-3.37-2.62-5.81-5.83-5.81zm0 9.33c-1.76 0-3.28-1.45-3.28-3.52 0-2.09 1.52-3.52 3.28-3.52s3.28 1.43 3.28 3.52c0 2.07-1.52 3.52-3.28 3.52zM58 .24h2.51v17.57H58zm10.26 15.28c-1.3 0-2.22-.59-2.82-1.76l7.77-3.21-.26-.66c-.48-1.3-1.96-3.7-4.97-3.7-2.99 0-5.48 2.35-5.48 5.81 0 3.26 2.46 5.81 5.76 5.81 2.66 0 4.2-1.63 4.84-2.57l-1.98-1.32c-.66.96-1.56 1.6-2.86 1.6zm-.18-7.15c1.03 0 1.91.53 2.2 1.28l-5.25 2.17c0-2.44 1.73-3.45 3.05-3.45z"></path></svg>
  <svg id="wrench" class="svg-icon" viewBox="0 0 24 24"><path d="M22.7 19l-9.1-9.1c.9-2.3.4-5-1.5-6.9-2-2-5-2.4-7.4-1.3L9 6 6 9 1.6 4.7C.4 7.1.9 10.1 2.9 12.1c1.9 1.9 4.6 2.4 6.9 1.5l9.1 9.1c.4.4 1 .4 1.4 0l2.3-2.3c.5-.4.5-1.1.1-1.4z"/></svg>
  <svg id="game-controller" class="svg-icon" viewBox="0 0 24 24"><path d="M0 0v24h24V0H0zm23 16c0 1.1-.9 2-2 2H3c-1.1 0-2-.9-2-2V8c0-1.1.9-2 2-2h18c1.1 0 2 .9 2 2v8z" fill="none"/><path d="M21 6H3c-1.1 0-2 .9-2 2v8c0 1.1.9 2 2 2h18c1.1 0 2-.9 2-2V8c0-1.1-.9-2-2-2zm-10 7H8v3H6v-3H3v-2h3V8h2v3h3v2zm4.5 2c-.83 0-1.5-.67-1.5-1.5s.67-1.5 1.5-1.5 1.5.67 1.5 1.5-.67 1.5-1.5 1.5zm4-3c-.83 0-1.5-.67-1.5-1.5S18.67 9 19.5 9s1.5.67 1.5 1.5-.67 1.5-1.5 1.5z"/></svg>
  <svg id="trending-up" class="svg-icon" viewBox="0 0 24 24" ><path d="M16 6l2.29 2.29-4.88 4.88-4-4L2 16.59 3.41 18l6-6 4 4 6.3-6.29L22 12V6z"/><path d="M0 0h24v24H0z" fill="none"/></svg>
  <svg id="warning-sign" class="svg-icon" viewBox="0 0 24 24"><path d="M12 5.99L19.53 19H4.47L12 5.99M12 2L1 21h22L12 2zm1 14h-2v2h2v-2zm0-6h-2v4h2v-4z"/><path d="M0 0h24v24H0V0z" fill="none"/></svg>
  <svg id="note-sign" class="svg-icon" viewBox="0 0 24 24"><path d="M11 15h2v2h-2v-2zm0-8h2v6h-2V7zm.99-5C6.47 2 2 6.48 2 12s4.47 10 9.99 10C17.52 22 22 17.52 22 12S17.52 2 11.99 2zM12 20c-4.42 0-8-3.58-8-8s3.58-8 8-8 8 3.58 8 8-3.58 8-8 8z"/><path d="M0 0h24v24H0V0z" fill="none"/></svg>
  <svg id="info-sign" class="svg-icon" viewBox="0 0 24 24"><path d="M11 7h2v2h-2zm0 4h2v6h-2zm1-9C6.48 2 2 6.48 2 12s4.48 10 10 10 10-4.48 10-10S17.52 2 12 2zm0 18c-4.41 0-8-3.59-8-8s3.59-8 8-8 8 3.59 8 8-3.59 8-8 8z"/><path d="M0 0h24v24H0V0z" fill="none"/></svg>
  <svg id="tip-sign" class="svg-icon" viewBox="0 0 24 24"><path d="M12 2C6.48 2 2 6.48 2 12s4.48 10 10 10 10-4.48 10-10S17.52 2 12 2zm0 18c-4.41 0-8-3.59-8-8s3.59-8 8-8 8 3.59 8 8-3.59 8-8 8zm-2-5.8l-2.6-2.6L6 13l4 4 8-8-1.4-1.4z"/><path d="M0 0h24v24H0V0z" fill="none"/></svg>
  <svg id="trend" class="svg-icon" viewBox="0 0 25 25" fill="none"><circle cx="12.9941" cy="12.0679" r="12" fill="white"/><circle cx="12.9941" cy="12.0679" r="12" fill="#FBB4A7" fill-opacity="0.3"/><path d="M19.5936 9.66753C19.5936 10.3275 19.0536 10.8675 18.3936 10.8675C18.2856 10.8675 18.1836 10.8555 18.0876 10.8255L15.9516 12.9555C15.9816 13.0515 15.9936 13.1595 15.9936 13.2675C15.9936 13.9275 15.4536 14.4675 14.7936 14.4675C14.1336 14.4675 13.5936 13.9275 13.5936 13.2675C13.5936 13.1595 13.6056 13.0515 13.6356 12.9555L12.1056 11.4255C12.0096 11.4555 11.9016 11.4675 11.7936 11.4675C11.6856 11.4675 11.5776 11.4555 11.4816 11.4255L8.75155 14.1615C8.78155 14.2575 8.79355 14.3595 8.79355 14.4675C8.79355 15.1275 8.25355 15.6675 7.59355 15.6675C6.93355 15.6675 6.39355 15.1275 6.39355 14.4675C6.39355 13.8075 6.93355 13.2675 7.59355 13.2675C7.70155 13.2675 7.80355 13.2795 7.89955 13.3095L10.6356 10.5795C10.6056 10.4835 10.5936 10.3755 10.5936 10.2675C10.5936 9.60753 11.1336 9.06753 11.7936 9.06753C12.4536 9.06753 12.9936 9.60753 12.9936 10.2675C12.9936 10.3755 12.9816 10.4835 12.9516 10.5795L14.4816 12.1095C14.5776 12.0795 14.6856 12.0675 14.7936 12.0675C14.9016 12.0675 15.0096 12.0795 15.1056 12.1095L17.2356 9.97353C17.2056 9.87753 17.1936 9.77553 17.1936 9.66753C17.1936 9.00753 17.7336 8.46753 18.3936 8.46753C19.0536 8.46753 19.5936 9.00753 19.5936 9.66753Z" fill="#C84030"/></svg>
  <svg id="events" class="svg-icon" viewBox="0 0 36 36" fill="none"><circle cx="18" cy="18" r="18" fill="white"/><circle cx="18" cy="18" r="18" fill="#FFF5D2"/><path d="M23 17H13V19H23V17ZM25 10H24V8H22V10H14V8H12V10H11C9.89 10 9.01 10.9 9.01 12L9 26C9 27.1 9.89 28 11 28H25C26.1 28 27 27.1 27 26V12C27 10.9 26.1 10 25 10ZM25 26H11V15H25V26ZM20 21H13V23H20V21Z" fill="#E98622"/></svg>
  <svg id="technical" class="svg-icon" viewBox="0 0 36 36" fill="none"><circle cx="18" cy="18" r="18" fill="white"/><circle cx="18" cy="18" r="18" fill="#D6EFFE"/><path d="M8 26V16C8 15.45 8.19583 14.9792 8.5875 14.5875C8.97917 14.1958 9.45 14 10 14H13V12C13 11.45 13.1958 10.9792 13.5875 10.5875C13.9792 10.1958 14.45 10 15 10H21C21.55 10 22.0208 10.1958 22.4125 10.5875C22.8042 10.9792 23 11.45 23 12V14H26C26.55 14 27.0208 14.1958 27.4125 14.5875C27.8042 14.9792 28 15.45 28 16V26H8ZM10 24H26V21H24V22H22V21H14V22H12V21H10V24ZM10 16V19H12V18H14V19H22V18H24V19H26V16H10ZM15 14H21V12H15V14Z" fill="#1C50B9"/></svg>
  <svg id="product news" class="svg-icon" viewBox="0 0 36 36" fill="none"><circle cx="18" cy="18" r="18" fill="white"/><circle cx="18" cy="18" r="18" fill="#D9F4D7"/><path d="M22 9H11C9.9 9 9 9.9 9 11V25C9 26.1 9.9 27 11 27H25C26.1 27 27 26.1 27 25V14L22 9ZM25 25H11V11H21V15H25V25ZM13 23H23V21H13V23ZM18 13H13V15H18V13ZM13 19H23V17H13V19Z" fill="#1A7236"/></svg>
</svg>
