<?xml version="1.0" encoding="UTF-8"?>
<svg width="765px" height="240px" viewBox="0 0 765 240" version="1.1" xmlns="http://www.w3.org/2000/svg" xmlns:xlink="http://www.w3.org/1999/xlink">
    <title>07 Web Environment</title>
    <defs>
        <path d="M26.6666667,10 L24.3166667,12.35 L31.95,20 L24.3166667,27.65 L26.6666667,30 L36.6666667,20 L26.6666667,10 Z M13.3333333,30 L15.6833333,27.65 L8.05,20 L15.6833333,12.35 L13.3333333,10 L3.33333333,20 L13.3333333,30 Z" id="path-1"></path>
        <filter x="-4.9%" y="-4.7%" width="109.7%" height="109.4%" filterUnits="objectBoundingBox" id="filter-3">
            <feOffset dx="0" dy="2" in="SourceAlpha" result="shadowOffsetOuter1"></feOffset>
            <feGaussianBlur stdDeviation="1.5" in="shadowOffsetOuter1" result="shadowBlurOuter1"></feGaussianBlur>
            <feColorMatrix values="0 0 0 0 0   0 0 0 0 0   0 0 0 0 0  0 0 0 0.248142483 0" type="matrix" in="shadowBlurOuter1" result="shadowMatrixOuter1"></feColorMatrix>
            <feMerge>
                <feMergeNode in="shadowMatrixOuter1"></feMergeNode>
                <feMergeNode in="SourceGraphic"></feMergeNode>
            </feMerge>
        </filter>
        <linearGradient x1="40.6428975%" y1="52.7992672%" x2="83.5571192%" y2="40.1148702%" id="linearGradient-4">
            <stop stop-color="#EFF2F4" offset="0%"></stop>
            <stop stop-color="#9AA0A5" offset="100%"></stop>
        </linearGradient>
        <linearGradient x1="41.7193408%" y1="5.12771245%" x2="72.5592044%" y2="171.384841%" id="linearGradient-5">
            <stop stop-color="#CCCCCC" offset="0%"></stop>
            <stop stop-color="#9AA0A5" offset="100%"></stop>
        </linearGradient>
        <linearGradient x1="7.26890884%" y1="63.7006182%" x2="82.3911874%" y2="38.7415298%" id="linearGradient-6">
            <stop stop-color="#EFF2F4" offset="0%"></stop>
            <stop stop-color="#9AA0A5" offset="100%"></stop>
        </linearGradient>
        <linearGradient x1="76.4097008%" y1="26.8995776%" x2="35.4538951%" y2="66.1129504%" id="linearGradient-7">
            <stop stop-color="#E8EAED" offset="0%"></stop>
            <stop stop-color="#FFFFFF" offset="100%"></stop>
        </linearGradient>
        <path d="M0.969969633,146.658873 C-0.0713910855,147.260466 -0.0693277593,148.758282 0.97368362,149.356998 L126.333964,219.264433 C128.07211,220.262361 130.21343,220.259279 131.948894,219.256831 L213.732824,173.662383 L83.9522026,98.7871892 L0.969969633,146.658873 Z" id="path-8"></path>
        <linearGradient x1="50%" y1="44.383512%" x2="45.2133137%" y2="52.5226832%" id="linearGradient-10">
            <stop stop-color="#F1F3F4" offset="0%"></stop>
            <stop stop-color="#FFFFFF" stop-opacity="0" offset="100%"></stop>
        </linearGradient>
        <polygon id="path-11" points="86.8260033 7.34939089 211.053435 78.4718165 211.053435 167.025959 86.8260033 95.6484697"></polygon>
        <filter x="-19.7%" y="-13.6%" width="139.4%" height="127.3%" filterUnits="objectBoundingBox" id="filter-13">
            <feOffset dx="0" dy="3" in="SourceAlpha" result="shadowOffsetOuter1"></feOffset>
            <feGaussianBlur stdDeviation="3" in="shadowOffsetOuter1" result="shadowBlurOuter1"></feGaussianBlur>
            <feColorMatrix values="0 0 0 0 0   0 0 0 0 0   0 0 0 0 0  0 0 0 0.3 0" type="matrix" in="shadowBlurOuter1" result="shadowMatrixOuter1"></feColorMatrix>
            <feMerge>
                <feMergeNode in="shadowMatrixOuter1"></feMergeNode>
                <feMergeNode in="SourceGraphic"></feMergeNode>
            </feMerge>
        </filter>
        <path d="M3.44597327,52.4238864 L95.8948333,0.380515998 C97.5157252,-0.531952567 98.8297177,0.471201293 98.8297177,2.62112286 L98.8297177,81.4498641 C98.8297177,83.5997857 97.5157252,86.1283736 95.8948333,87.0976232 L3.44597327,142.379547 C1.82508135,143.348797 0.511088826,142.322369 0.511088826,140.086957 L0.511088826,58.1236287 C0.511088826,55.8882165 1.82508135,53.336355 3.44597327,52.4238864 Z" id="path-14"></path>
        <path d="M533.807505,10.4019659 L668.707505,84.4621919 C670.668115,85.538569 672.257505,88.4434907 672.257505,90.9505159 L672.257505,184.007617 C672.257505,186.514642 670.668115,187.674411 668.707505,186.598034 L533.807505,112.537808 C531.846894,111.461431 530.257505,108.556509 530.257505,106.049484 L530.257505,12.9923834 C530.257505,10.4853581 531.846894,9.3255887 533.807505,10.4019659 Z" id="path-16"></path>
        <filter x="-6.3%" y="-4.0%" width="112.7%" height="110.2%" filterUnits="objectBoundingBox" id="filter-18">
            <feMorphology radius="2" operator="dilate" in="SourceAlpha" result="shadowSpreadOuter1"></feMorphology>
            <feOffset dx="0" dy="2" in="shadowSpreadOuter1" result="shadowOffsetOuter1"></feOffset>
            <feGaussianBlur stdDeviation="2" in="shadowOffsetOuter1" result="shadowBlurOuter1"></feGaussianBlur>
            <feComposite in="shadowBlurOuter1" in2="SourceAlpha" operator="out" result="shadowBlurOuter1"></feComposite>
            <feColorMatrix values="0 0 0 0 0   0 0 0 0 0   0 0 0 0 0  0 0 0 0.175699301 0" type="matrix" in="shadowBlurOuter1"></feColorMatrix>
        </filter>
        <path d="M503.807505,20.4019659 L638.707505,94.4621919 C640.668115,95.538569 642.257505,98.4434907 642.257505,100.950516 L642.257505,194.007617 C642.257505,196.514642 640.668115,197.674411 638.707505,196.598034 L503.807505,122.537808 C501.846894,121.461431 500.257505,118.556509 500.257505,116.049484 L500.257505,22.9923834 C500.257505,20.4853581 501.846894,19.3255887 503.807505,20.4019659 Z" id="path-19"></path>
        <filter x="-6.3%" y="-4.0%" width="112.7%" height="110.2%" filterUnits="objectBoundingBox" id="filter-20">
            <feMorphology radius="2" operator="dilate" in="SourceAlpha" result="shadowSpreadOuter1"></feMorphology>
            <feOffset dx="0" dy="2" in="shadowSpreadOuter1" result="shadowOffsetOuter1"></feOffset>
            <feGaussianBlur stdDeviation="2" in="shadowOffsetOuter1" result="shadowBlurOuter1"></feGaussianBlur>
            <feComposite in="shadowBlurOuter1" in2="SourceAlpha" operator="out" result="shadowBlurOuter1"></feComposite>
            <feColorMatrix values="0 0 0 0 0   0 0 0 0 0   0 0 0 0 0  0 0 0 0.175699301 0" type="matrix" in="shadowBlurOuter1"></feColorMatrix>
        </filter>
        <path d="M476.807505,29.4019659 L611.707505,103.462192 C613.668115,104.538569 615.257505,107.443491 615.257505,109.950516 L615.257505,203.007617 C615.257505,205.514642 613.668115,206.674411 611.707505,205.598034 L476.807505,131.537808 C474.846894,130.461431 473.257505,127.556509 473.257505,125.049484 L473.257505,31.9923834 C473.257505,29.4853581 474.846894,28.3255887 476.807505,29.4019659 Z" id="path-21"></path>
        <filter x="-6.3%" y="-4.0%" width="112.7%" height="110.2%" filterUnits="objectBoundingBox" id="filter-23">
            <feMorphology radius="2" operator="dilate" in="SourceAlpha" result="shadowSpreadOuter1"></feMorphology>
            <feOffset dx="0" dy="2" in="shadowSpreadOuter1" result="shadowOffsetOuter1"></feOffset>
            <feGaussianBlur stdDeviation="2" in="shadowOffsetOuter1" result="shadowBlurOuter1"></feGaussianBlur>
            <feComposite in="shadowBlurOuter1" in2="SourceAlpha" operator="out" result="shadowBlurOuter1"></feComposite>
            <feColorMatrix values="0 0 0 0 0   0 0 0 0 0   0 0 0 0 0  0 0 0 0.175699301 0" type="matrix" in="shadowBlurOuter1"></feColorMatrix>
        </filter>
        <filter x="-13.9%" y="-11.3%" width="127.8%" height="122.6%" filterUnits="objectBoundingBox" id="filter-24">
            <feOffset dx="0" dy="2" in="SourceAlpha" result="shadowOffsetOuter1"></feOffset>
            <feGaussianBlur stdDeviation="2" in="shadowOffsetOuter1" result="shadowBlurOuter1"></feGaussianBlur>
            <feColorMatrix values="0 0 0 0 0   0 0 0 0 0   0 0 0 0 0  0 0 0 0.175699301 0" type="matrix" in="shadowBlurOuter1" result="shadowMatrixOuter1"></feColorMatrix>
            <feMerge>
                <feMergeNode in="shadowMatrixOuter1"></feMergeNode>
                <feMergeNode in="SourceGraphic"></feMergeNode>
            </feMerge>
        </filter>
        <filter x="-7.0%" y="-5.6%" width="114.0%" height="111.3%" filterUnits="objectBoundingBox" id="filter-25">
            <feOffset dx="0" dy="2" in="SourceAlpha" result="shadowOffsetOuter1"></feOffset>
            <feGaussianBlur stdDeviation="1" in="shadowOffsetOuter1" result="shadowBlurOuter1"></feGaussianBlur>
            <feColorMatrix values="0 0 0 0 0   0 0 0 0 0   0 0 0 0 0  0 0 0 0.212385271 0" type="matrix" in="shadowBlurOuter1" result="shadowMatrixOuter1"></feColorMatrix>
            <feMerge>
                <feMergeNode in="shadowMatrixOuter1"></feMergeNode>
                <feMergeNode in="SourceGraphic"></feMergeNode>
            </feMerge>
        </filter>
        <path d="M4.08717577,1.15250355 L138.463774,74.7262687 C140.416778,75.7955757 142,78.6814165 142,81.1719745 L142,173.617834 C142,176.108392 140.416778,177.260544 138.463774,176.191237 L4.08717577,102.617472 C2.13417193,101.548165 0.550949504,98.6623238 0.550949504,96.1717658 L0.550949504,3.72590598 C0.550949504,1.235348 2.13417193,0.0831964855 4.08717577,1.15250355 Z" id="path-26"></path>
        <path d="M8.6777622,11.558482 L6.08579471,7.10218892 C6.44908876,6.72865499 6.67602621,6.16408437 6.68750873,5.41895101 C6.71674436,3.52176749 5.40040485,1.25862388 3.74723148,0.363819229 C2.0940581,-0.530985418 0.730322662,0.281527817 0.701087031,2.17871134 C0.6718514,4.07589486 1.98819091,6.33903847 3.64136429,7.23384311 C4.29066079,7.58528449 4.88852553,7.65843818 5.38752468,7.51821803 L7.97949217,11.9745111 L8.6777622,11.558482 Z M1.62207498,2.67720975 C1.64235262,1.36133594 2.58431421,0.800115459 3.73094422,1.42074598 C4.87757422,2.0413765 5.78679842,3.60457879 5.76652078,4.9204526 C5.74624314,6.2363264 4.80428155,6.79754688 3.65765155,6.17691636 C2.51102154,5.55628584 1.60179735,3.99308355 1.62207498,2.67720975 Z" id="path-28"></path>
    </defs>
    <g id="Illustrations" stroke="none" stroke-width="1" fill="none" fill-rule="evenodd">
        <g id="Web-Environment-Copy" transform="translate(-130.000000, 8.000000)">
            <g id="07-Web-Environment" transform="translate(130.000000, 0.000000)">
                <path d="M411.613126,30.5164664 L765,231 L765,231 L0,231 L353.386874,30.5164664 C371.443891,20.2723546 393.556109,20.2723546 411.613126,30.5164664 Z" id="Triangle" fill="#E8EAED"></path>
                <g id="Group-2" transform="translate(353.000000, 14.000000)">
                    <circle id="Oval-Copy-2" fill="#1A73E8" cx="30" cy="30" r="30"></circle>
                    <g id="file/download_for_offline_24px" transform="translate(10.000000, 10.000000)">
                        <mask id="mask-2" fill="white">
                            <use xlink:href="#path-1"></use>
                        </mask>
                        <g id="ic_code_24px" fill-rule="nonzero"></g>
                        <g id="Group" mask="url(#mask-2)" fill="#FFFFFF" fill-rule="nonzero">
                            <g id="↪︎-Icon-color">
                                <rect id="_Color/01_Grey/000-White" x="0" y="0" width="40" height="40"></rect>
                            </g>
                        </g>
                    </g>
                </g>
                <g id="Group" filter="url(#filter-3)" transform="translate(250.000000, 112.000000) scale(-1, 1) translate(-250.000000, -112.000000) translate(142.000000, 0.000000)">
                    <g id="Laptop">
                        <g id="Device" transform="translate(0.000000, 0.143823)">
                            <path d="M87.0156229,0.0608167073 C85.5995622,0.0608167073 83.9522026,1.17606362 83.9522026,2.50457994 L213.732824,176.127928 L215.498194,174.951762 L215.921176,78.0676657 C215.921176,75.0410072 214.301878,72.2432332 211.671756,70.7258975 L88.0751409,0.321342332 C87.7641977,0.141974138 87.3998143,0.0608167073 87.0187179,0.0608167073 L87.0156229,0.0608167073 Z" id="Screen-back" fill="url(#linearGradient-4)"></path>
                            <path d="M83.9522026,99.3882657 L213.732824,175.922466 L213.732824,79.4324447 C213.732824,76.4053752 212.113526,73.6078067 209.483404,72.0904709 L86.8435415,1.13908049 C86.4884431,0.934235028 86.1116797,0.840749886 85.7444077,0.840749886 C84.5959603,0.840749886 83.541807,1.75526058 83.541807,3.03384966 L83.9522026,99.3882657 Z" id="Screen-top" fill="url(#linearGradient-5)"></path>
                            <path d="M0.936750082,146.903578 C-0.104404304,147.504965 -0.388111653,151.835074 0.654693394,152.433789 L126.723726,222.384988 C127.156337,222.633322 127.881871,222.812485 128.900329,222.922476 C130.139357,222.916312 131.429348,222.481555 132.501659,221.862087 L213.732824,176.115187 L213.732824,173.662383 L83.4027388,101.92161 L0.936750082,146.903578 Z" id="Bottom" fill="url(#linearGradient-6)"></path>
                            <mask id="mask-9" fill="white">
                                <use xlink:href="#path-8"></use>
                            </mask>
                            <use id="Top" fill="url(#linearGradient-7)" xlink:href="#path-8"></use>
                        </g>
                        <g id="touchpad" transform="translate(48.062858, 154.034756)" fill="url(#linearGradient-10)">
                            <polyline id="Path" points="55.0061711 18.1005109 24.5211193 0.184792396 1.55135814 13.0851609"></polyline>
                        </g>
                        <g id="keyboard-shadow" transform="translate(44.343511, 109.085662)" fill="#E8EAED">
                            <path d="M40.0767293,1.95811839 L45.9189459,5.37660222 C46.415594,5.66717567 47.2210686,5.66717567 47.7177167,5.37660222 L48.8125009,4.73613087 C49.309149,4.44555742 49.309149,3.9742189 48.8125009,3.68364544 L42.9700547,0.265161613 C42.4734066,-0.0256444835 41.667932,-0.0256444835 41.1712838,0.265161613 L40.0767293,0.905632961 C39.5798515,1.19620641 39.5798515,1.66731229 40.0767293,1.95811839" id="Fill-26"></path>
                            <path d="M48.7332178,7.0946395 L54.5754344,10.5130696 C55.0720826,10.8038711 55.8775572,10.8036385 56.3742053,10.5130696 L57.4689895,9.87260829 C57.9656376,9.58203941 57.9656376,9.11094095 57.4689895,8.82013942 L51.6267728,5.40170936 C51.1298951,5.11090783 50.3244205,5.11090783 49.8277724,5.40170936 L48.7332178,6.04217063 C48.2363401,6.33273951 48.2363401,6.80383798 48.7332178,7.0946395" id="Fill-28"></path>
                            <path d="M57.5958132,12.0255842 L63.4380299,15.444068 C63.934678,15.7348741 64.7401526,15.7348741 65.2368007,15.444068 L66.3315849,14.8035967 C66.828233,14.5130232 66.828233,14.0419174 66.3315849,13.7511113 L60.4893683,10.3326274 C59.9924905,10.042054 59.1870159,10.042054 58.6903678,10.3326274 L57.5958132,10.9730988 C57.0989355,11.2636722 57.0989355,11.7350108 57.5958132,12.0255842" id="Fill-30"></path>
                            <path d="M66.4584086,17.1623099 L72.3006253,20.5807937 C72.7972734,20.8713671 73.602748,20.8713671 74.0993961,20.5807937 L75.1941803,19.9403223 C75.6908284,19.6497489 75.6908284,19.1784104 75.1941803,18.8878369 L69.3519637,15.4693531 C68.8550859,15.178547 68.0496113,15.178547 67.5529632,15.4693531 L66.4584086,16.1098244 C65.9615309,16.4003979 65.9615309,16.8715038 66.4584086,17.1623099" id="Fill-32"></path>
                            <path d="M75.1148972,22.298861 L80.9571138,25.7173449 C81.4537619,26.0079183 82.2592366,26.0079183 82.7561143,25.7173449 L83.8506689,25.0768735 C84.347317,24.7863001 84.347317,24.3149615 83.8506689,24.0243881 L78.0084522,20.6059043 C77.5115745,20.3150982 76.7060999,20.3150982 76.2094518,20.6059043 L75.1148972,21.2463756 C74.6180195,21.5369491 74.6180195,22.0080549 75.1148972,22.298861" id="Fill-34"></path>
                            <path d="M83.9774926,27.2299502 L89.8197093,30.648434 C90.3163574,30.9390074 91.121832,30.9390074 91.6187097,30.648434 L92.7132643,30.0079626 C93.2099124,29.7173892 93.2099124,29.2460507 92.7132643,28.9554772 L86.8710476,25.5369934 C86.3741699,25.2461873 85.5689249,25.2461873 85.0720472,25.5369934 L83.9774926,26.1774647 C83.4806149,26.4680382 83.4806149,26.9391441 83.9774926,27.2299502" id="Fill-36"></path>
                            <path d="M92.6339812,32.3664412 L98.4761978,35.7848175 C98.9728459,36.0756145 99.7783205,36.0756145 100.275198,35.7848175 L101.369753,35.1443663 C101.866401,34.853802 101.866401,34.382711 101.369753,34.091914 L95.5275362,30.6735377 C95.0306585,30.3827407 94.2254135,30.3827407 93.7285357,30.6735377 L92.6339812,31.3139889 C92.1371034,31.6045532 92.1371034,32.0756443 92.6339812,32.3664412" id="Fill-38"></path>
                            <path d="M101.496411,37.297416 L107.338734,40.7158998 C107.835391,41.0067059 108.64088,41.0067059 109.137767,40.7158998 L110.232341,40.0754285 C110.728999,39.784855 110.728999,39.3137491 110.232341,39.022943 L104.390019,35.6044592 C103.893132,35.3138857 103.087872,35.3138857 102.590986,35.6044592 L101.496411,36.2449305 C100.999754,36.535504 100.999754,37.0068425 101.496411,37.297416" id="Fill-40"></path>
                            <path d="M110.1529,42.4341416 L115.995222,45.8526255 C116.492109,46.1431989 117.297369,46.1431989 117.794256,45.8526255 L118.88883,45.2121541 C119.385487,44.9215807 119.385487,44.4502421 118.88883,44.1596687 L113.046507,40.7411849 C112.549621,40.4503788 111.744361,40.4503788 111.247474,40.7411849 L110.1529,41.3816562 C109.656243,41.6722297 109.656243,42.1433355 110.1529,42.4341416" id="Fill-42"></path>
                            <path d="M119.015488,47.3650563 L124.857705,50.7835401 C125.354583,51.0743462 126.159828,51.0743462 126.656705,50.7835401 L127.75126,50.1430688 C128.248138,49.8524953 128.248138,49.3813894 127.75126,49.0905833 L121.909043,45.6720995 C121.412166,45.381526 120.606921,45.381526 120.110043,45.6720995 L119.015488,46.3125708 C118.51884,46.6033769 118.51884,47.0744828 119.015488,47.3650563" id="Fill-44"></path>
                            <path d="M127.878084,52.5016675 L133.7203,55.9202589 C134.217178,56.2108415 135.022423,56.2108415 135.519301,55.9202589 L136.613855,55.2797674 C137.110733,54.9891848 137.110733,54.5178315 136.613855,54.2272489 L130.771639,50.8086575 C130.274761,50.5180749 129.469516,50.5180749 128.972638,50.8086575 L127.878084,51.449149 C127.381436,51.7397316 127.381436,52.211085 127.878084,52.5016675" id="Fill-46"></path>
                            <path d="M145.270509,59.1582036 L139.428187,55.7399166 C138.93153,55.4491074 138.12604,55.4491074 137.629154,55.7399166 L136.534579,56.3803946 C136.037922,56.6709711 136.037922,57.1420819 136.534579,57.4328911 L142.376902,60.8511781 C142.873789,61.1419873 143.679048,61.1419873 144.175935,60.8511781 L145.270509,60.2109327 C145.767167,59.9201236 145.767167,59.4490127 145.270509,59.1582036" id="Fill-48"></path>
                            <path d="M32.8695462,6.82516843 L36.5389607,8.95341474 C37.3193907,9.40599396 38.584706,9.40599396 39.3651361,8.95341474 L43.034779,6.82516843 C43.815209,6.37235983 43.815209,5.63855298 43.034779,5.18597376 L39.3651361,3.05749806 C38.584706,2.60491885 37.3193907,2.60491885 36.5389607,3.05749806 L32.8695462,5.18597376 C32.0891161,5.63855298 32.0891161,6.37235983 32.8695462,6.82516843" id="Fill-50"></path>
                            <path d="M50.2485224,9.29498531 L46.5791264,7.166739 C45.7987003,6.71415978 44.5333913,6.71415978 43.7529652,7.166739 L40.0831124,9.29498531 C39.3029147,9.74779391 39.3029147,10.4816008 40.0831124,10.93418 L43.7529652,13.0626557 C44.5333913,13.5152349 45.7987003,13.5152349 46.5791264,13.0626557 L50.2485224,10.93418 C51.0289485,10.4816008 51.0289485,9.74779391 50.2485224,9.29498531" id="Fill-52"></path>
                            <path d="M57.4622717,13.4043552 L53.7927027,11.2761461 C53.0122884,10.8233454 51.7469986,10.8233454 50.9665842,11.2761461 L47.2970153,13.4043552 C46.516601,13.8569266 46.516601,14.59095 47.2970153,15.0435213 L50.9665842,17.1717305 C51.7469986,17.6245312 53.0122884,17.6245312 53.7927027,17.1717305 L57.4622717,15.0435213 C58.242686,14.59095 58.242686,13.8569266 57.4622717,13.4043552" id="Fill-54"></path>
                            <path d="M64.4698935,17.5136966 L60.800479,15.3852209 C60.0200489,14.9326417 58.7547336,14.9326417 57.9743036,15.3852209 L54.3046607,17.5136966 C53.5242306,17.9662758 53.5242306,18.7000826 54.3046607,19.1528912 L57.9743036,21.2811376 C58.7547336,21.7337168 60.0200489,21.7337168 60.800479,21.2811376 L64.4698935,19.1528912 C65.2503235,18.7000826 65.2503235,17.9662758 64.4698935,17.5136966" id="Fill-56"></path>
                            <path d="M71.6836457,21.6228371 L68.0140768,19.4946279 C67.2338908,19.0418272 65.968601,19.0418272 65.1881867,19.4946279 L61.5183893,21.6228371 C60.737975,22.0754084 60.737975,22.8094319 61.5183893,23.2620032 L65.1881867,25.3902124 C65.968601,25.8430131 67.2338908,25.8430131 68.0140768,25.3902124 L71.6836457,23.2620032 C72.46406,22.8094319 72.46406,22.0754084 71.6836457,21.6228371" id="Fill-58"></path>
                            <path d="M78.8973744,25.7321785 L75.2279599,23.6037028 C74.4475299,23.1511235 73.1822145,23.1511235 72.4017845,23.6037028 L68.7321416,25.7321785 C67.9517115,26.1847577 67.9517115,26.9185645 68.7321416,27.3713731 L72.4017845,29.4996194 C73.1822145,29.9521986 74.4475299,29.9521986 75.2279599,29.4996194 L78.8973744,27.3713731 C79.6778044,26.9185645 79.6778044,26.1847577 78.8973744,25.7321785" id="Fill-60"></path>
                            <path d="M86.1111148,29.84119 L82.4417004,27.7129437 C81.6612703,27.2603645 80.395955,27.2603645 79.6155249,27.7129437 L75.9458821,29.84119 C75.165452,30.2939986 75.165452,31.0278055 75.9458821,31.4803847 L79.6155249,33.6088604 C80.395955,34.0614396 81.6612703,34.0614396 82.4417004,33.6088604 L86.1111148,31.4803847 C86.8915449,31.0278055 86.8915449,30.2939986 86.1111148,29.84119" id="Fill-62"></path>
                            <path d="M93.1187602,33.9506603 L89.4491913,31.8221846 C88.668777,31.3696054 87.4034871,31.3696054 86.6233012,31.8221846 L82.9535039,33.9506603 C82.1730895,34.4032395 82.1730895,35.1370464 82.9535039,35.589855 L86.6233012,37.7181013 C87.4034871,38.1706805 88.668777,38.1706805 89.4491913,37.7181013 L93.1187602,35.589855 C93.8991746,35.1370464 93.8991746,34.4032395 93.1187602,33.9506603" id="Fill-64"></path>
                            <path d="M100.332489,38.0596719 L96.6630744,35.9314256 C95.8826444,35.4788464 94.617329,35.4788464 93.836899,35.9314256 L90.1672561,38.0596719 C89.3868261,38.5124805 89.3868261,39.2462873 90.1672561,39.6988665 L93.836899,41.8273422 C94.617329,42.2799215 95.8826444,42.2799215 96.6630744,41.8273422 L100.332489,39.6988665 C101.112919,39.2462873 101.112919,38.5124805 100.332489,38.0596719" id="Fill-66"></path>
                            <path d="M107.546232,42.1690849 L103.876836,40.0408385 C103.09641,39.5880299 101.831101,39.5880299 101.050675,40.0408385 L97.3808223,42.1690849 C96.6006246,42.6216641 96.6006246,43.3557003 97.3808223,43.8082795 L101.050675,45.9367552 C101.831101,46.3891051 103.09641,46.3891051 103.876836,45.9367552 L107.546232,43.8082795 C108.326658,43.3557003 108.326658,42.6216641 107.546232,42.1690849" id="Fill-68"></path>
                            <path d="M114.759982,46.2781538 L111.090413,44.1499074 C110.309998,43.6973282 109.044708,43.6973282 108.264294,44.1499074 L104.594725,46.2781538 C103.814311,46.7309624 103.814311,47.4647692 104.594725,47.9173484 L108.264294,50.0458241 C109.044708,50.4984033 110.309998,50.4984033 111.090413,50.0458241 L114.759982,47.9173484 C115.540396,47.4647692 115.540396,46.7309624 114.759982,46.2781538" id="Fill-70"></path>
                            <path d="M118.30421,54.1549019 L121.973698,52.0267113 C122.754144,51.5739145 122.754144,50.8401269 121.973698,50.3875595 L118.30421,48.2591395 C117.523764,47.8065721 116.258423,47.8065721 115.477978,48.2591395 L111.808489,50.3875595 C111.028043,50.8401269 111.028043,51.5739145 111.808489,52.0267113 L115.477978,54.1549019 C116.258423,54.6076987 117.523764,54.6076987 118.30421,54.1549019" id="Fill-72"></path>
                            <path d="M128.981356,54.4968077 L125.311787,52.3685614 C124.531601,51.9157528 123.266311,51.9157528 122.485897,52.3685614 L118.816099,54.4968077 C118.035685,54.9496163 118.035685,55.6834231 118.816099,56.1360023 L122.485897,58.264478 C123.266311,58.7168279 124.531601,58.7168279 125.311787,58.264478 L128.981356,56.1360023 C129.76177,55.6834231 129.76177,54.9496163 128.981356,54.4968077" id="Fill-74"></path>
                            <path d="M140.724894,61.3191173 L132.580384,56.6796159 C131.793898,56.2316719 130.518765,56.2316719 129.732279,56.6796159 L126.034393,58.7862924 C125.247908,59.2342364 125.247908,59.9607548 126.034393,60.4086989 L134.178903,65.0482002 C134.965389,65.4959172 136.240522,65.4959172 137.027008,65.0482002 L140.724894,62.9415238 C141.511379,62.4935797 141.511379,61.7672883 140.724894,61.3191173" id="Fill-76"></path>
                            <path d="M25.0420267,11.3031931 L33.186537,15.9426071 C33.9730225,16.3905426 35.2481557,16.3905426 36.0346413,15.9426071 L39.7325274,13.8359703 C40.519013,13.3880347 40.519013,12.6615299 39.7325274,12.2135944 L31.5880172,7.57418038 C30.8015316,7.12624479 29.5263985,7.12624479 28.7399129,7.57418038 L25.0420267,9.68081714 C24.2555412,10.1287527 24.2555412,10.8550305 25.0420267,11.3031931" id="Fill-78"></path>
                            <path d="M132.897374,65.7972203 L129.22796,63.6689739 C128.44753,63.2161653 127.182215,63.2161653 126.401784,63.6689739 L122.732142,65.7972203 C121.951712,66.2500289 121.951712,66.9838357 122.732142,67.4364149 L126.401784,69.5648906 C127.182215,70.0172404 128.44753,70.0172404 129.22796,69.5648906 L132.897374,67.4364149 C133.677804,66.9838357 133.677804,66.2500289 132.897374,65.7972203" id="Fill-80"></path>
                            <path d="M115.518398,63.3270378 L119.187794,65.4553026 C119.96822,65.9081152 121.233529,65.9081152 122.013955,65.4553026 L125.683808,63.3270378 C126.464006,62.8744546 126.464006,62.1406414 125.683808,61.6878288 L122.013955,59.5595639 C121.233529,59.1069808 119.96822,59.1069808 119.187794,59.5595639 L115.518398,61.6878288 C114.737972,62.1406414 114.737972,62.8744546 115.518398,63.3270378" id="Fill-82"></path>
                            <path d="M118.469896,59.2178184 C119.250323,58.7650097 119.250323,58.0312029 118.469896,57.5786237 L114.8005,55.450148 C114.020074,54.9977982 112.754765,54.9977982 111.974339,55.450148 L108.304486,57.5786237 C107.524289,58.0312029 107.524289,58.7650097 108.304486,59.2178184 L111.974339,61.3460647 C112.754765,61.7988733 114.020074,61.7988733 114.8005,61.3460647 L118.469896,59.2178184 Z" id="Fill-84"></path>
                            <path d="M111.46226,55.1086957 C112.24269,54.655893 112.24269,53.9220958 111.46226,53.4695225 L107.792845,51.3410746 C107.012415,50.8885014 105.7471,50.8885014 104.96667,51.3410746 L101.297027,53.4695225 C100.516597,53.9220958 100.516597,54.655893 101.297027,55.1086957 L104.96667,57.2369142 C105.7471,57.6897169 107.012415,57.6894875 107.792845,57.2369142 L111.46226,55.1086957 Z" id="Fill-86"></path>
                            <path d="M94.0832748,50.7938171 L97.7526154,52.9222928 C98.5330297,53.374872 99.7983196,53.374872 100.578734,52.9222928 L104.248531,50.7938171 C105.028946,50.3412379 105.028946,49.607431 104.248531,49.1546224 L100.578734,47.0263761 C99.7983196,46.5737969 98.5330297,46.5737969 97.7526154,47.0263761 L94.0832748,49.1546224 C93.3028605,49.607431 93.3028605,50.3412379 94.0832748,50.7938171" id="Fill-88"></path>
                            <path d="M97.034779,45.045403 L93.3653645,42.9171381 C92.5849344,42.464555 91.3196191,42.464555 90.539189,42.9171381 L86.8695462,45.045403 C86.0891161,45.4979862 86.0891161,46.2317994 86.8695462,46.684612 L90.539189,48.8128768 C91.3196191,49.2656894 92.5849344,49.2656894 93.3653645,48.8128768 L97.034779,46.684612 C97.815209,46.2317994 97.815209,45.4979862 97.034779,45.045403" id="Fill-90"></path>
                            <path d="M89.8210385,40.9363053 L86.151624,38.8078853 C85.371194,38.355318 84.1058786,38.355318 83.3254486,38.8078853 L79.6558057,40.9363053 C78.8753757,41.3888727 78.8753757,42.1226604 79.6558057,42.5754571 L83.3254486,44.7036477 C84.1058786,45.1564445 85.371194,45.1564445 86.151624,44.7036477 L89.8210385,42.5754571 C90.6014686,42.1226604 90.6014686,41.3888727 89.8210385,40.9363053" id="Fill-92"></path>
                            <path d="M82.8134167,36.8269211 L79.1438478,34.6986562 C78.3636618,34.2460731 77.098372,34.2460731 76.3179577,34.6986562 L72.6481603,36.8269211 C71.867746,37.2797337 71.867746,38.0135469 72.6481603,38.4661301 L76.3179577,40.594395 C77.098372,41.0472075 78.3636618,41.0472075 79.1438478,40.594395 L82.8134167,38.4661301 C83.593831,38.0135469 83.593831,37.2797337 82.8134167,36.8269211" id="Fill-94"></path>
                            <path d="M75.5996645,32.717888 L71.93025,30.5894123 C71.1498199,30.1368331 69.8845046,30.1368331 69.1040745,30.5894123 L65.4344317,32.717888 C64.6540016,33.1704673 64.6540016,33.9042741 65.4344317,34.3570827 L69.1040745,36.485329 C69.8845046,36.9379082 71.1498199,36.9379082 71.93025,36.485329 L75.5996645,34.3570827 C76.3800945,33.9042741 76.3800945,33.1704673 75.5996645,32.717888" id="Fill-96"></path>
                            <path d="M68.385924,28.608579 L64.7165095,26.480342 C63.9360795,26.0275353 62.6707641,26.0275353 61.8903341,26.480342 L58.2206912,28.608579 C57.4402612,29.0611562 57.4402612,29.7951893 58.2206912,30.2477665 L61.8903341,32.3760035 C62.6707641,32.8288102 63.9360795,32.8285808 64.7165095,32.3760035 L68.385924,30.2477665 C69.1663541,29.7949599 69.1663541,29.0611562 68.385924,28.608579" id="Fill-98"></path>
                            <path d="M61.1721953,24.4994062 L57.5028548,22.3709305 C56.7224405,21.9183513 55.4571506,21.9183513 54.6767363,22.3709305 L51.006939,24.4994062 C50.2265246,24.9519854 50.2265246,25.6857922 51.006939,26.1386008 L54.6767363,28.2668471 C55.4571506,28.7194264 56.7224405,28.7194264 57.5028548,28.2668471 L61.1721953,26.1386008 C61.9526097,25.6857922 61.9526097,24.9519854 61.1721953,24.4994062" id="Fill-100"></path>
                            <path d="M53.9584431,20.3900971 L50.2890286,18.2618601 C49.5085986,17.8090535 48.2432832,17.8090535 47.4628532,18.2618601 L43.7932103,20.3900971 C43.0127802,20.8426744 43.0127802,21.5767074 43.7932103,22.0292846 L47.4628532,24.1575217 C48.2432832,24.6103283 49.5085986,24.6100989 50.2890286,24.1575217 L53.9584431,22.0292846 C54.7388731,21.5767074 54.7388731,20.8426744 53.9584431,20.3900971" id="Fill-102"></path>
                            <path d="M36.7855649,17.9199254 L40.4551339,20.0481903 C41.2355482,20.5010028 42.5006096,20.5010028 43.281024,20.0481903 L46.9508213,17.9199254 C47.7312356,17.4673422 47.7312356,16.733529 46.9508213,16.2807164 L43.281024,14.1524516 C42.5006096,13.6998684 41.2355482,13.6998684 40.4551339,14.1524516 L36.7855649,16.2807164 C36.0051506,16.733529 36.0051506,17.4673422 36.7855649,17.9199254" id="Fill-104"></path>
                            <path d="M9.37919037,20.1469251 L24.7206008,28.8858128 C25.5088008,29.3349527 26.7867134,29.3349527 27.5749133,28.8858128 L31.28086,26.7748099 C32.0690599,26.3258975 32.0690599,25.5978086 31.28086,25.1488962 L15.9394495,16.409781 C15.1512496,15.9608686 13.8733369,15.9608686 13.085137,16.409781 L9.37919037,18.5210114 C8.59099046,18.9699238 8.59099046,19.6977852 9.37919037,20.1469251" id="Fill-106"></path>
                            <path d="M103.01189,66.4134344 L99.3423211,64.285188 C98.5619067,63.8326088 97.2968453,63.8326088 96.5164309,64.285188 L92.8466336,66.4134344 C92.0662193,66.866243 92.0662193,67.6000498 92.8466336,68.052629 L96.5164309,70.1811047 C97.2968453,70.6336839 98.5619067,70.6336839 99.3423211,70.1811047 L103.01189,68.052629 C103.792304,67.6000498 103.792304,66.866243 103.01189,66.4134344" id="Fill-108"></path>
                            <path d="M85.632905,63.9436175 L89.3023194,66.0718638 C90.0827495,66.524443 91.3480648,66.524443 92.1284949,66.0718638 L95.7981377,63.9436175 C96.5785678,63.4908089 96.5785678,62.757002 95.7981377,62.3044228 L92.1284949,60.1759471 C91.3480648,59.7233679 90.0827495,59.7233679 89.3023194,60.1759471 L85.632905,62.3044228 C84.8524749,62.757002 84.8524749,63.4908089 85.632905,63.9436175" id="Fill-110"></path>
                            <path d="M78.4191645,59.8341471 L82.088579,61.9626228 C82.869009,62.4152021 84.1343244,62.4152021 84.9147544,61.9626228 L88.5843973,59.8341471 C89.3648273,59.3815679 89.3648273,58.6477611 88.5843973,58.1949525 L84.9147544,56.0667062 C84.1343244,55.6141269 82.869009,55.6141269 82.088579,56.0667062 L78.4191645,58.1949525 C77.6387344,58.6477611 77.6387344,59.3815679 78.4191645,59.8341471" id="Fill-112"></path>
                            <path d="M71.4115191,55.7249636 L75.0810881,57.8532099 C75.8615024,58.3060185 77.1267922,58.3060185 77.9069782,57.8532099 L81.5767755,55.7249636 C82.3571898,55.272155 82.3571898,54.5383481 81.5767755,54.0857689 L77.9069782,51.9572932 C77.1267922,51.5049434 75.8615024,51.5049434 75.0810881,51.9572932 L71.4115191,54.0857689 C70.6311048,54.5383481 70.6311048,55.272155 71.4115191,55.7249636" id="Fill-114"></path>
                            <path d="M64.1977905,51.6157872 L67.8672049,53.7439778 C68.647635,54.1967746 69.9129503,54.1967746 70.6933804,53.7439778 L74.3630232,51.6157872 C75.1434533,51.1629904 75.1434533,50.4292028 74.3630232,49.9766354 L70.6933804,47.8482154 C69.9129503,47.395648 68.647635,47.395648 67.8672049,47.8482154 L64.1977905,49.9766354 C63.4173604,50.4292028 63.4173604,51.1629904 64.1977905,51.6157872" id="Fill-116"></path>
                            <path d="M56.9840382,47.5064243 L60.6533787,49.6349 C61.4337931,50.0874792 62.6990829,50.0874792 63.4794972,49.6349 L67.1492946,47.5064243 C67.9297089,47.0538451 67.9297089,46.3200383 67.1492946,45.8672297 L63.4794972,43.7389834 C62.6990829,43.2864041 61.4337931,43.2864041 60.6533787,43.7389834 L56.9840382,45.8672297 C56.2036239,46.3200383 56.2036239,47.0538451 56.9840382,47.5064243" id="Fill-118"></path>
                            <path d="M49.7701353,43.3972192 L53.4397597,45.5254841 C54.2201858,45.9782966 55.4854948,45.9782966 56.2659209,45.5254841 L59.9355453,43.3972192 C60.7159714,42.944636 60.7159714,42.2108228 59.9355453,41.7580102 L56.2659209,39.6297454 C55.4854948,39.1771622 54.2201858,39.1771622 53.4397597,39.6297454 L49.7701353,41.7580102 C48.9899376,42.2108228 48.9899376,42.944636 49.7701353,43.3972192" id="Fill-120"></path>
                            <path d="M42.5565691,39.2881718 L46.2259836,41.4164182 C47.0064136,41.8689974 48.2717289,41.8689974 49.052159,41.4164182 L52.7218019,39.2881718 C53.5022319,38.8353632 53.5022319,38.1015564 52.7218019,37.6489772 L49.052159,35.5205015 C48.2717289,35.0679223 47.0064136,35.0679223 46.2259836,35.5205015 L42.5565691,37.6489772 C41.776139,38.1015564 41.776139,38.8353632 42.5565691,39.2881718" id="Fill-122"></path>
                            <path d="M35.5489237,35.1787015 L39.2184926,37.3071772 C39.998907,37.7597564 41.2639684,37.7597564 42.0443827,37.3071772 L45.7141801,35.1787015 C46.4945944,34.7261223 46.4945944,33.9923155 45.7141801,33.5395068 L42.0443827,31.4112605 C41.2639684,30.9586813 39.9986786,30.9586813 39.2184926,31.4112605 L35.5489237,33.5395068 C34.7685094,33.9923155 34.7685094,34.7261223 35.5489237,35.1787015" id="Fill-124"></path>
                            <path d="M28.335195,31.06969 L32.0046095,33.1979363 C32.7850396,33.6505155 34.0503549,33.6505155 34.8307849,33.1979363 L38.5004278,31.06969 C39.2808579,30.6168814 39.2808579,29.8830745 38.5004278,29.4304953 L34.8307849,27.3020196 C34.0503549,26.8494404 32.7850396,26.8494404 32.0046095,27.3020196 L28.335195,29.4304953 C27.554765,29.8830745 27.554765,30.6168814 28.335195,31.06969" id="Fill-126"></path>
                            <path d="M31.632905,22.2392555 C30.8524749,22.6918328 30.8524749,23.4256364 31.632905,23.8784431 L35.3023194,26.0066801 C36.0827495,26.4594867 37.3480648,26.4592573 38.1284949,26.0066801 L41.7981377,23.8784431 C42.5785678,23.4256364 42.5785678,22.6918328 41.7981377,22.2392555 L38.1284949,20.1110185 C37.3480648,19.6582119 36.0827495,19.6582119 35.3023194,20.1110185 L31.632905,22.2392555 Z" id="Fill-128"></path>
                            <path d="M38.8464712,26.5537973 C38.0662734,27.0066059 38.0662734,27.7404127 38.8464712,28.1929919 L42.5160956,30.3214676 C43.2965217,30.7740468 44.5618306,30.7740468 45.3422568,30.3214676 L49.0118811,28.1929919 C49.7923073,27.7404127 49.7923073,27.0066059 49.0118811,26.5537973 L45.3422568,24.4255509 C44.5618306,23.9729717 43.2965217,23.9729717 42.5160956,24.4255509 L38.8464712,26.5537973 Z" id="Fill-130"></path>
                            <path d="M46.0603741,32.302387 L49.7297146,34.430624 C50.510129,34.8834306 51.7754188,34.8832013 52.5558331,34.430624 L56.2256304,32.302387 C57.0060448,31.8495804 57.0060448,31.1157767 56.2256304,30.6631995 L52.5558331,28.5349624 C51.7754188,28.0821558 50.510129,28.0821558 49.7297146,28.5349624 L46.0603741,30.6631995 C45.2799598,31.1157767 45.2799598,31.8495804 46.0603741,32.302387" id="Fill-132"></path>
                            <path d="M53.0680195,36.4114738 L56.7374339,38.5399495 C57.517864,38.9925287 58.7831793,38.9925287 59.5636094,38.5399495 L63.2332522,36.4114738 C64.0136823,35.9588946 64.0136823,35.2250877 63.2332522,34.7722791 L59.5636094,32.6440328 C58.7831793,32.1914536 57.517864,32.1914536 56.7374339,32.6440328 L53.0680195,34.7722791 C52.2875894,35.2250877 52.2875894,35.9588946 53.0680195,36.4114738" id="Fill-134"></path>
                            <path d="M60.2817481,40.5207828 L63.9513171,42.6490199 C64.7317314,43.1018265 65.9970212,43.1018265 66.7774356,42.6490199 L70.4470045,40.5207828 C71.2274188,40.0682056 71.2274188,39.334402 70.4470045,38.8815953 L66.7774356,36.7533583 C65.9970212,36.3007811 64.7317314,36.3005517 63.9513171,36.7533583 L60.2817481,38.8815953 C59.5013338,39.3341726 59.5013338,40.0682056 60.2817481,40.5207828" id="Fill-136"></path>
                            <path d="M67.4954886,44.6299557 L71.1648291,46.7584314 C71.9452435,47.2110106 73.2105333,47.2110106 73.9909476,46.7584314 L77.660745,44.6299557 C78.4411593,44.1773765 78.4411593,43.4435696 77.660745,42.990761 L73.9909476,40.8625147 C73.2105333,40.4099355 71.9452435,40.4099355 71.1648291,40.8625147 L67.4954886,42.990761 C66.7150743,43.4435696 66.7150743,44.1773765 67.4954886,44.6299557" id="Fill-138"></path>
                            <path d="M74.7092408,48.7392647 L78.3786553,50.8675018 C79.1590854,51.3203084 80.4244007,51.3203084 81.2048308,50.8675018 L84.8744736,48.7392647 C85.6549037,48.2864581 85.6549037,47.5526544 84.8744736,47.1000772 L81.2048308,44.9718402 C80.4244007,44.5192629 79.1590854,44.5190335 78.3786553,44.9718402 L74.7092408,47.1000772 C73.9288108,47.5526544 73.9288108,48.2864581 74.7092408,48.7392647" id="Fill-140"></path>
                            <path d="M81.7168626,52.8484376 L85.3864316,54.9769132 C86.1668459,55.4294925 87.4321357,55.4294925 88.2123217,54.9769132 L91.882119,52.8484376 C92.6625333,52.3958583 92.6625333,51.6620515 91.882119,51.2092429 L88.2123217,49.0809966 C87.4321357,48.6284174 86.1668459,48.6284174 85.3864316,49.0809966 L81.7168626,51.2092429 C80.9364483,51.6620515 80.9364483,52.3958583 81.7168626,52.8484376" id="Fill-142"></path>
                            <path d="M88.9306149,56.9579079 L92.6000294,59.0861542 C93.3804594,59.5387334 94.6457747,59.5387334 95.4262048,59.0861542 L99.0958477,56.9579079 C99.8762777,56.5050993 99.8762777,55.7712924 99.0958477,55.3187132 L95.4262048,53.1902375 C94.6457747,52.7376583 93.3804594,52.7376583 92.6000294,53.1902375 L88.9306149,55.3187132 C88.1501848,55.7712924 88.1501848,56.5050993 88.9306149,56.9579079" id="Fill-144"></path>
                            <path d="M96.1443553,61.0669768 L99.8137698,63.1952231 C100.5942,63.6480317 101.859515,63.6480317 102.639945,63.1952231 L106.309588,61.0669768 C107.090018,60.6141682 107.090018,59.8803613 106.309588,59.4277821 L102.639945,57.2993064 C101.859515,56.8469566 100.5942,56.8469566 99.8137698,57.2993064 L96.1443553,59.4277821 C95.3639253,59.8803613 95.3639253,60.6141682 96.1443553,61.0669768" id="Fill-146"></path>
                            <path d="M109.853686,67.3044699 L113.523329,65.1762608 C114.303759,64.7236894 114.303759,63.989666 113.523329,63.5370947 L109.853686,61.4088855 C109.073256,60.9560848 107.80794,60.9560848 107.027739,61.4088855 L103.358096,63.5370947 C102.577666,63.989666 102.577666,64.7236894 103.358096,65.1762608 L107.027739,67.3044699 C107.80794,67.7572707 109.073256,67.7572707 109.853686,67.3044699" id="Fill-148"></path>
                            <path d="M125.060772,70.1539853 L116.916261,65.5144839 C116.129776,65.0665399 114.854643,65.0665399 114.068157,65.5144839 L110.370271,67.6211604 C109.583785,68.0691044 109.583785,68.7956228 110.370271,69.2433398 L118.514781,73.8830682 C119.301267,74.3307852 120.5764,74.3307852 121.362886,73.8830682 L125.060772,71.7763918 C125.847257,71.3284478 125.847257,70.6021564 125.060772,70.1539853" id="Fill-150"></path>
                            <path d="M17.212701,15.6819753 L28.0005436,21.8956915 C28.7906763,22.3507136 30.0717225,22.3507136 30.8618551,21.8956915 L34.5771203,19.7557266 C35.367253,19.3007045 35.367253,18.5629367 34.5771203,18.1079145 L23.7890465,11.8941983 C22.9989138,11.4391761 21.7178676,11.4391761 20.927735,11.8941983 L17.212701,14.0339325 C16.4225683,14.4891853 16.4225683,15.2269531 17.212701,15.6819753" id="Fill-152"></path>
                            <path d="M117.433407,74.6642801 L106.42188,68.3917542 C105.633513,67.9427413 104.35533,67.9427413 103.566963,68.3917542 L99.8602316,70.5034576 C99.0718647,70.9522429 99.0718647,71.6807225 99.8602316,72.1295079 L110.871758,78.4022613 C111.660125,78.8512742 112.938308,78.8512742 113.726675,78.4022613 L117.433407,76.290558 C118.221773,75.8415451 118.221773,75.1135206 117.433407,74.6642801" id="Fill-154"></path>
                            <path d="M89.7122048,68.96715 L79.266981,62.9325002 C78.483933,62.4801823 77.2143731,62.4801823 76.4313251,62.9325002 L72.7493723,65.0597469 C71.9663242,65.5120648 71.9663242,66.245448 72.7493723,66.6979951 L83.1948252,72.7324158 C83.9778732,73.1849629 85.2474331,73.1849629 86.0304811,72.7324158 L89.7122048,70.6053983 C90.4952528,70.1530804 90.4952528,69.4194679 89.7122048,68.96715" id="Fill-156"></path>
                            <path d="M96.9279205,72.868554 L93.2583516,70.7403355 C92.4779373,70.2877622 91.2128758,70.2875328 90.4324615,70.7403355 L86.7626642,72.868554 C85.9822498,73.3213567 85.9822498,74.0551539 86.7626642,74.5077272 L90.4324615,76.636175 C91.2128758,77.0887483 92.4779373,77.0887483 93.2583516,76.636175 L96.9279205,74.5077272 C97.7083349,74.0551539 97.7083349,73.3213567 96.9279205,72.868554" id="Fill-158"></path>
                            <path d="M109.086627,79.8398211 L100.491439,74.850684 C99.7088923,74.3965193 98.4401454,74.3965193 97.6575988,74.850684 L93.9780038,76.9863864 C93.1954572,77.4407814 93.1954572,78.177159 93.9780038,78.6313238 L102.573421,83.620691 C103.355967,84.0748558 104.624714,84.0748558 105.407261,83.620691 L109.086627,81.4847585 C109.869173,81.0305937 109.869173,80.294216 109.086627,79.8398211" id="Fill-160"></path>
                            <path d="M75.9446168,60.4103477 L43.501121,41.8343977 C42.712434,41.3828942 41.4339624,41.3828942 40.6452754,41.8343977 L36.9368076,43.9575857 C36.1481206,44.4093181 36.1481206,45.1413809 36.9368076,45.5928844 L69.3803034,64.1690633 C70.1689904,64.620338 71.4476928,64.620338 72.2363798,64.1690633 L75.9446168,62.0456464 C76.7333038,61.5941429 76.7333038,60.8620801 75.9446168,60.4103477" id="Fill-162"></path>
                            <path d="M40.1723578,41.2581484 C40.9525555,40.8053398 40.9525555,40.071533 40.1723578,39.6189537 L36.5027334,37.490478 C35.7223073,37.0381282 34.4569983,37.0381282 33.6765722,37.490478 L30.0069478,39.6189537 C29.2265217,40.071533 29.2265217,40.8053398 30.0069478,41.2581484 L33.6765722,43.3863947 C34.4569983,43.8392033 35.7223073,43.8392033 36.5027334,43.3863947 L40.1723578,41.2581484 Z" id="Fill-164"></path>
                            <path d="M32.9584549,35.5096555 L29.2891143,33.3814092 C28.5087,32.9288299 27.2434102,32.9288299 26.4629958,33.3814092 L22.7931985,35.5096555 C22.0127842,35.9624641 22.0127842,36.6962709 22.7931985,37.1488501 L26.4629958,39.2773258 C27.2434102,39.729905 28.5087,39.729905 29.2891143,39.2773258 L32.9584549,37.1488501 C33.7388692,36.6962709 33.7388692,35.9624641 32.9584549,35.5096555" id="Fill-166"></path>
                            <path d="M8.85293928,25.2068602 L4.0760772,22.535717 C3.57442091,22.2551111 2.76143172,22.2551111 2.26000725,22.535717 L1.15469431,23.1537233 C0.653269836,23.4341047 0.653269836,23.8886862 1.15469431,24.169292 L5.93155639,26.8404353 C6.43321268,27.1210411 7.24620187,27.1210411 7.74785816,26.8404353 L8.85293928,26.2224289 C9.35436375,25.9420476 9.35436375,25.4874661 8.85293928,25.2068602" id="Fill-168"></path>
                            <path d="M16.0665033,29.3161012 L11.2898403,26.6449579 C10.7881805,26.3643521 9.97518577,26.3643521 9.47352604,26.6449579 L8.36843735,27.2629642 C7.86700943,27.5433456 7.86700943,27.9979271 8.36843735,28.278533 L13.1453322,30.9496762 C13.6467601,31.2302821 14.4599867,31.2302821 14.9614146,30.9496762 L16.0665033,30.3316699 C16.568163,30.0512885 16.568163,29.596707 16.0665033,29.3161012" id="Fill-170"></path>
                            <path d="M12.977534,24.5901641 L11.8722438,25.2081557 C11.3708297,25.4885304 11.3708297,25.9433256 11.8722438,26.2237003 L16.6492394,28.8952291 C17.1506536,29.1756038 17.9638579,29.1756038 18.4655038,28.8952291 L19.5703304,28.2772374 C20.0719764,27.9966382 20.0719764,27.5418431 19.5703304,27.2612439 L14.7935666,24.5901641 C14.2921525,24.3097894 13.4789482,24.3097894 12.977534,24.5901641" id="Fill-172"></path>
                            <path d="M23.2804176,33.4254667 L18.5037546,30.7540355 C18.001863,30.4736474 17.1888683,30.4736474 16.6874404,30.7540355 L15.5823517,31.3720565 C15.0806919,31.6524445 15.0806919,32.1072613 15.5823517,32.3876493 L20.3590147,35.0590805 C20.8606744,35.3394685 21.6736692,35.3394685 22.1753289,35.0590805 L23.2804176,34.4410595 C23.7818455,34.160447 23.7818455,33.7058547 23.2804176,33.4254667" id="Fill-174"></path>
                        </g>
                        <g id="keyboard-shadow" transform="translate(44.343511, 108.674737)" fill="#F8F9FA">
                            <path d="M40.0767293,1.95811839 L45.9189459,5.37660222 C46.415594,5.66717567 47.2210686,5.66717567 47.7177167,5.37660222 L48.8125009,4.73613087 C49.309149,4.44555742 49.309149,3.9742189 48.8125009,3.68364544 L42.9700547,0.265161613 C42.4734066,-0.0256444835 41.667932,-0.0256444835 41.1712838,0.265161613 L40.0767293,0.905632961 C39.5798515,1.19620641 39.5798515,1.66731229 40.0767293,1.95811839" id="Fill-26"></path>
                            <path d="M48.7332178,7.0946395 L54.5754344,10.5130696 C55.0720826,10.8038711 55.8775572,10.8036385 56.3742053,10.5130696 L57.4689895,9.87260829 C57.9656376,9.58203941 57.9656376,9.11094095 57.4689895,8.82013942 L51.6267728,5.40170936 C51.1298951,5.11090783 50.3244205,5.11090783 49.8277724,5.40170936 L48.7332178,6.04217063 C48.2363401,6.33273951 48.2363401,6.80383798 48.7332178,7.0946395" id="Fill-28"></path>
                            <path d="M57.5958132,12.0255842 L63.4380299,15.444068 C63.934678,15.7348741 64.7401526,15.7348741 65.2368007,15.444068 L66.3315849,14.8035967 C66.828233,14.5130232 66.828233,14.0419174 66.3315849,13.7511113 L60.4893683,10.3326274 C59.9924905,10.042054 59.1870159,10.042054 58.6903678,10.3326274 L57.5958132,10.9730988 C57.0989355,11.2636722 57.0989355,11.7350108 57.5958132,12.0255842" id="Fill-30"></path>
                            <path d="M66.4584086,17.1623099 L72.3006253,20.5807937 C72.7972734,20.8713671 73.602748,20.8713671 74.0993961,20.5807937 L75.1941803,19.9403223 C75.6908284,19.6497489 75.6908284,19.1784104 75.1941803,18.8878369 L69.3519637,15.4693531 C68.8550859,15.178547 68.0496113,15.178547 67.5529632,15.4693531 L66.4584086,16.1098244 C65.9615309,16.4003979 65.9615309,16.8715038 66.4584086,17.1623099" id="Fill-32"></path>
                            <path d="M75.1148972,22.298861 L80.9571138,25.7173449 C81.4537619,26.0079183 82.2592366,26.0079183 82.7561143,25.7173449 L83.8506689,25.0768735 C84.347317,24.7863001 84.347317,24.3149615 83.8506689,24.0243881 L78.0084522,20.6059043 C77.5115745,20.3150982 76.7060999,20.3150982 76.2094518,20.6059043 L75.1148972,21.2463756 C74.6180195,21.5369491 74.6180195,22.0080549 75.1148972,22.298861" id="Fill-34"></path>
                            <path d="M83.9774926,27.2299502 L89.8197093,30.648434 C90.3163574,30.9390074 91.121832,30.9390074 91.6187097,30.648434 L92.7132643,30.0079626 C93.2099124,29.7173892 93.2099124,29.2460507 92.7132643,28.9554772 L86.8710476,25.5369934 C86.3741699,25.2461873 85.5689249,25.2461873 85.0720472,25.5369934 L83.9774926,26.1774647 C83.4806149,26.4680382 83.4806149,26.9391441 83.9774926,27.2299502" id="Fill-36"></path>
                            <path d="M92.6339812,32.3664412 L98.4761978,35.7848175 C98.9728459,36.0756145 99.7783205,36.0756145 100.275198,35.7848175 L101.369753,35.1443663 C101.866401,34.853802 101.866401,34.382711 101.369753,34.091914 L95.5275362,30.6735377 C95.0306585,30.3827407 94.2254135,30.3827407 93.7285357,30.6735377 L92.6339812,31.3139889 C92.1371034,31.6045532 92.1371034,32.0756443 92.6339812,32.3664412" id="Fill-38"></path>
                            <path d="M101.496411,37.297416 L107.338734,40.7158998 C107.835391,41.0067059 108.64088,41.0067059 109.137767,40.7158998 L110.232341,40.0754285 C110.728999,39.784855 110.728999,39.3137491 110.232341,39.022943 L104.390019,35.6044592 C103.893132,35.3138857 103.087872,35.3138857 102.590986,35.6044592 L101.496411,36.2449305 C100.999754,36.535504 100.999754,37.0068425 101.496411,37.297416" id="Fill-40"></path>
                            <path d="M110.1529,42.4341416 L115.995222,45.8526255 C116.492109,46.1431989 117.297369,46.1431989 117.794256,45.8526255 L118.88883,45.2121541 C119.385487,44.9215807 119.385487,44.4502421 118.88883,44.1596687 L113.046507,40.7411849 C112.549621,40.4503788 111.744361,40.4503788 111.247474,40.7411849 L110.1529,41.3816562 C109.656243,41.6722297 109.656243,42.1433355 110.1529,42.4341416" id="Fill-42"></path>
                            <path d="M119.015488,47.3650563 L124.857705,50.7835401 C125.354583,51.0743462 126.159828,51.0743462 126.656705,50.7835401 L127.75126,50.1430688 C128.248138,49.8524953 128.248138,49.3813894 127.75126,49.0905833 L121.909043,45.6720995 C121.412166,45.381526 120.606921,45.381526 120.110043,45.6720995 L119.015488,46.3125708 C118.51884,46.6033769 118.51884,47.0744828 119.015488,47.3650563" id="Fill-44"></path>
                            <path d="M127.878084,52.5016675 L133.7203,55.9202589 C134.217178,56.2108415 135.022423,56.2108415 135.519301,55.9202589 L136.613855,55.2797674 C137.110733,54.9891848 137.110733,54.5178315 136.613855,54.2272489 L130.771639,50.8086575 C130.274761,50.5180749 129.469516,50.5180749 128.972638,50.8086575 L127.878084,51.449149 C127.381436,51.7397316 127.381436,52.211085 127.878084,52.5016675" id="Fill-46"></path>
                            <path d="M145.270509,59.1582036 L139.428187,55.7399166 C138.93153,55.4491074 138.12604,55.4491074 137.629154,55.7399166 L136.534579,56.3803946 C136.037922,56.6709711 136.037922,57.1420819 136.534579,57.4328911 L142.376902,60.8511781 C142.873789,61.1419873 143.679048,61.1419873 144.175935,60.8511781 L145.270509,60.2109327 C145.767167,59.9201236 145.767167,59.4490127 145.270509,59.1582036" id="Fill-48"></path>
                            <path d="M32.8695462,6.82516843 L36.5389607,8.95341474 C37.3193907,9.40599396 38.584706,9.40599396 39.3651361,8.95341474 L43.034779,6.82516843 C43.815209,6.37235983 43.815209,5.63855298 43.034779,5.18597376 L39.3651361,3.05749806 C38.584706,2.60491885 37.3193907,2.60491885 36.5389607,3.05749806 L32.8695462,5.18597376 C32.0891161,5.63855298 32.0891161,6.37235983 32.8695462,6.82516843" id="Fill-50"></path>
                            <path d="M50.2485224,9.29498531 L46.5791264,7.166739 C45.7987003,6.71415978 44.5333913,6.71415978 43.7529652,7.166739 L40.0831124,9.29498531 C39.3029147,9.74779391 39.3029147,10.4816008 40.0831124,10.93418 L43.7529652,13.0626557 C44.5333913,13.5152349 45.7987003,13.5152349 46.5791264,13.0626557 L50.2485224,10.93418 C51.0289485,10.4816008 51.0289485,9.74779391 50.2485224,9.29498531" id="Fill-52"></path>
                            <path d="M57.4622717,13.4043552 L53.7927027,11.2761461 C53.0122884,10.8233454 51.7469986,10.8233454 50.9665842,11.2761461 L47.2970153,13.4043552 C46.516601,13.8569266 46.516601,14.59095 47.2970153,15.0435213 L50.9665842,17.1717305 C51.7469986,17.6245312 53.0122884,17.6245312 53.7927027,17.1717305 L57.4622717,15.0435213 C58.242686,14.59095 58.242686,13.8569266 57.4622717,13.4043552" id="Fill-54"></path>
                            <path d="M64.4698935,17.5136966 L60.800479,15.3852209 C60.0200489,14.9326417 58.7547336,14.9326417 57.9743036,15.3852209 L54.3046607,17.5136966 C53.5242306,17.9662758 53.5242306,18.7000826 54.3046607,19.1528912 L57.9743036,21.2811376 C58.7547336,21.7337168 60.0200489,21.7337168 60.800479,21.2811376 L64.4698935,19.1528912 C65.2503235,18.7000826 65.2503235,17.9662758 64.4698935,17.5136966" id="Fill-56"></path>
                            <path d="M71.6836457,21.6228371 L68.0140768,19.4946279 C67.2338908,19.0418272 65.968601,19.0418272 65.1881867,19.4946279 L61.5183893,21.6228371 C60.737975,22.0754084 60.737975,22.8094319 61.5183893,23.2620032 L65.1881867,25.3902124 C65.968601,25.8430131 67.2338908,25.8430131 68.0140768,25.3902124 L71.6836457,23.2620032 C72.46406,22.8094319 72.46406,22.0754084 71.6836457,21.6228371" id="Fill-58"></path>
                            <path d="M78.8973744,25.7321785 L75.2279599,23.6037028 C74.4475299,23.1511235 73.1822145,23.1511235 72.4017845,23.6037028 L68.7321416,25.7321785 C67.9517115,26.1847577 67.9517115,26.9185645 68.7321416,27.3713731 L72.4017845,29.4996194 C73.1822145,29.9521986 74.4475299,29.9521986 75.2279599,29.4996194 L78.8973744,27.3713731 C79.6778044,26.9185645 79.6778044,26.1847577 78.8973744,25.7321785" id="Fill-60"></path>
                            <path d="M86.1111148,29.84119 L82.4417004,27.7129437 C81.6612703,27.2603645 80.395955,27.2603645 79.6155249,27.7129437 L75.9458821,29.84119 C75.165452,30.2939986 75.165452,31.0278055 75.9458821,31.4803847 L79.6155249,33.6088604 C80.395955,34.0614396 81.6612703,34.0614396 82.4417004,33.6088604 L86.1111148,31.4803847 C86.8915449,31.0278055 86.8915449,30.2939986 86.1111148,29.84119" id="Fill-62"></path>
                            <path d="M93.1187602,33.9506603 L89.4491913,31.8221846 C88.668777,31.3696054 87.4034871,31.3696054 86.6233012,31.8221846 L82.9535039,33.9506603 C82.1730895,34.4032395 82.1730895,35.1370464 82.9535039,35.589855 L86.6233012,37.7181013 C87.4034871,38.1706805 88.668777,38.1706805 89.4491913,37.7181013 L93.1187602,35.589855 C93.8991746,35.1370464 93.8991746,34.4032395 93.1187602,33.9506603" id="Fill-64"></path>
                            <path d="M100.332489,38.0596719 L96.6630744,35.9314256 C95.8826444,35.4788464 94.617329,35.4788464 93.836899,35.9314256 L90.1672561,38.0596719 C89.3868261,38.5124805 89.3868261,39.2462873 90.1672561,39.6988665 L93.836899,41.8273422 C94.617329,42.2799215 95.8826444,42.2799215 96.6630744,41.8273422 L100.332489,39.6988665 C101.112919,39.2462873 101.112919,38.5124805 100.332489,38.0596719" id="Fill-66"></path>
                            <path d="M107.546232,42.1690849 L103.876836,40.0408385 C103.09641,39.5880299 101.831101,39.5880299 101.050675,40.0408385 L97.3808223,42.1690849 C96.6006246,42.6216641 96.6006246,43.3557003 97.3808223,43.8082795 L101.050675,45.9367552 C101.831101,46.3891051 103.09641,46.3891051 103.876836,45.9367552 L107.546232,43.8082795 C108.326658,43.3557003 108.326658,42.6216641 107.546232,42.1690849" id="Fill-68"></path>
                            <path d="M114.759982,46.2781538 L111.090413,44.1499074 C110.309998,43.6973282 109.044708,43.6973282 108.264294,44.1499074 L104.594725,46.2781538 C103.814311,46.7309624 103.814311,47.4647692 104.594725,47.9173484 L108.264294,50.0458241 C109.044708,50.4984033 110.309998,50.4984033 111.090413,50.0458241 L114.759982,47.9173484 C115.540396,47.4647692 115.540396,46.7309624 114.759982,46.2781538" id="Fill-70"></path>
                            <path d="M118.30421,54.1549019 L121.973698,52.0267113 C122.754144,51.5739145 122.754144,50.8401269 121.973698,50.3875595 L118.30421,48.2591395 C117.523764,47.8065721 116.258423,47.8065721 115.477978,48.2591395 L111.808489,50.3875595 C111.028043,50.8401269 111.028043,51.5739145 111.808489,52.0267113 L115.477978,54.1549019 C116.258423,54.6076987 117.523764,54.6076987 118.30421,54.1549019" id="Fill-72"></path>
                            <path d="M128.981356,54.4968077 L125.311787,52.3685614 C124.531601,51.9157528 123.266311,51.9157528 122.485897,52.3685614 L118.816099,54.4968077 C118.035685,54.9496163 118.035685,55.6834231 118.816099,56.1360023 L122.485897,58.264478 C123.266311,58.7168279 124.531601,58.7168279 125.311787,58.264478 L128.981356,56.1360023 C129.76177,55.6834231 129.76177,54.9496163 128.981356,54.4968077" id="Fill-74"></path>
                            <path d="M140.724894,61.3191173 L132.580384,56.6796159 C131.793898,56.2316719 130.518765,56.2316719 129.732279,56.6796159 L126.034393,58.7862924 C125.247908,59.2342364 125.247908,59.9607548 126.034393,60.4086989 L134.178903,65.0482002 C134.965389,65.4959172 136.240522,65.4959172 137.027008,65.0482002 L140.724894,62.9415238 C141.511379,62.4935797 141.511379,61.7672883 140.724894,61.3191173" id="Fill-76"></path>
                            <path d="M25.0420267,11.3031931 L33.186537,15.9426071 C33.9730225,16.3905426 35.2481557,16.3905426 36.0346413,15.9426071 L39.7325274,13.8359703 C40.519013,13.3880347 40.519013,12.6615299 39.7325274,12.2135944 L31.5880172,7.57418038 C30.8015316,7.12624479 29.5263985,7.12624479 28.7399129,7.57418038 L25.0420267,9.68081714 C24.2555412,10.1287527 24.2555412,10.8550305 25.0420267,11.3031931" id="Fill-78"></path>
                            <path d="M132.897374,65.7972203 L129.22796,63.6689739 C128.44753,63.2161653 127.182215,63.2161653 126.401784,63.6689739 L122.732142,65.7972203 C121.951712,66.2500289 121.951712,66.9838357 122.732142,67.4364149 L126.401784,69.5648906 C127.182215,70.0172404 128.44753,70.0172404 129.22796,69.5648906 L132.897374,67.4364149 C133.677804,66.9838357 133.677804,66.2500289 132.897374,65.7972203" id="Fill-80"></path>
                            <path d="M115.518398,63.3270378 L119.187794,65.4553026 C119.96822,65.9081152 121.233529,65.9081152 122.013955,65.4553026 L125.683808,63.3270378 C126.464006,62.8744546 126.464006,62.1406414 125.683808,61.6878288 L122.013955,59.5595639 C121.233529,59.1069808 119.96822,59.1069808 119.187794,59.5595639 L115.518398,61.6878288 C114.737972,62.1406414 114.737972,62.8744546 115.518398,63.3270378" id="Fill-82"></path>
                            <path d="M118.469896,59.2178184 C119.250323,58.7650097 119.250323,58.0312029 118.469896,57.5786237 L114.8005,55.450148 C114.020074,54.9977982 112.754765,54.9977982 111.974339,55.450148 L108.304486,57.5786237 C107.524289,58.0312029 107.524289,58.7650097 108.304486,59.2178184 L111.974339,61.3460647 C112.754765,61.7988733 114.020074,61.7988733 114.8005,61.3460647 L118.469896,59.2178184 Z" id="Fill-84"></path>
                            <path d="M111.46226,55.1086957 C112.24269,54.655893 112.24269,53.9220958 111.46226,53.4695225 L107.792845,51.3410746 C107.012415,50.8885014 105.7471,50.8885014 104.96667,51.3410746 L101.297027,53.4695225 C100.516597,53.9220958 100.516597,54.655893 101.297027,55.1086957 L104.96667,57.2369142 C105.7471,57.6897169 107.012415,57.6894875 107.792845,57.2369142 L111.46226,55.1086957 Z" id="Fill-86"></path>
                            <path d="M94.0832748,50.7938171 L97.7526154,52.9222928 C98.5330297,53.374872 99.7983196,53.374872 100.578734,52.9222928 L104.248531,50.7938171 C105.028946,50.3412379 105.028946,49.607431 104.248531,49.1546224 L100.578734,47.0263761 C99.7983196,46.5737969 98.5330297,46.5737969 97.7526154,47.0263761 L94.0832748,49.1546224 C93.3028605,49.607431 93.3028605,50.3412379 94.0832748,50.7938171" id="Fill-88"></path>
                            <path d="M97.034779,45.045403 L93.3653645,42.9171381 C92.5849344,42.464555 91.3196191,42.464555 90.539189,42.9171381 L86.8695462,45.045403 C86.0891161,45.4979862 86.0891161,46.2317994 86.8695462,46.684612 L90.539189,48.8128768 C91.3196191,49.2656894 92.5849344,49.2656894 93.3653645,48.8128768 L97.034779,46.684612 C97.815209,46.2317994 97.815209,45.4979862 97.034779,45.045403" id="Fill-90"></path>
                            <path d="M89.8210385,40.9363053 L86.151624,38.8078853 C85.371194,38.355318 84.1058786,38.355318 83.3254486,38.8078853 L79.6558057,40.9363053 C78.8753757,41.3888727 78.8753757,42.1226604 79.6558057,42.5754571 L83.3254486,44.7036477 C84.1058786,45.1564445 85.371194,45.1564445 86.151624,44.7036477 L89.8210385,42.5754571 C90.6014686,42.1226604 90.6014686,41.3888727 89.8210385,40.9363053" id="Fill-92"></path>
                            <path d="M82.8134167,36.8269211 L79.1438478,34.6986562 C78.3636618,34.2460731 77.098372,34.2460731 76.3179577,34.6986562 L72.6481603,36.8269211 C71.867746,37.2797337 71.867746,38.0135469 72.6481603,38.4661301 L76.3179577,40.594395 C77.098372,41.0472075 78.3636618,41.0472075 79.1438478,40.594395 L82.8134167,38.4661301 C83.593831,38.0135469 83.593831,37.2797337 82.8134167,36.8269211" id="Fill-94"></path>
                            <path d="M75.5996645,32.717888 L71.93025,30.5894123 C71.1498199,30.1368331 69.8845046,30.1368331 69.1040745,30.5894123 L65.4344317,32.717888 C64.6540016,33.1704673 64.6540016,33.9042741 65.4344317,34.3570827 L69.1040745,36.485329 C69.8845046,36.9379082 71.1498199,36.9379082 71.93025,36.485329 L75.5996645,34.3570827 C76.3800945,33.9042741 76.3800945,33.1704673 75.5996645,32.717888" id="Fill-96"></path>
                            <path d="M68.385924,28.608579 L64.7165095,26.480342 C63.9360795,26.0275353 62.6707641,26.0275353 61.8903341,26.480342 L58.2206912,28.608579 C57.4402612,29.0611562 57.4402612,29.7951893 58.2206912,30.2477665 L61.8903341,32.3760035 C62.6707641,32.8288102 63.9360795,32.8285808 64.7165095,32.3760035 L68.385924,30.2477665 C69.1663541,29.7949599 69.1663541,29.0611562 68.385924,28.608579" id="Fill-98"></path>
                            <path d="M61.1721953,24.4994062 L57.5028548,22.3709305 C56.7224405,21.9183513 55.4571506,21.9183513 54.6767363,22.3709305 L51.006939,24.4994062 C50.2265246,24.9519854 50.2265246,25.6857922 51.006939,26.1386008 L54.6767363,28.2668471 C55.4571506,28.7194264 56.7224405,28.7194264 57.5028548,28.2668471 L61.1721953,26.1386008 C61.9526097,25.6857922 61.9526097,24.9519854 61.1721953,24.4994062" id="Fill-100"></path>
                            <path d="M53.9584431,20.3900971 L50.2890286,18.2618601 C49.5085986,17.8090535 48.2432832,17.8090535 47.4628532,18.2618601 L43.7932103,20.3900971 C43.0127802,20.8426744 43.0127802,21.5767074 43.7932103,22.0292846 L47.4628532,24.1575217 C48.2432832,24.6103283 49.5085986,24.6100989 50.2890286,24.1575217 L53.9584431,22.0292846 C54.7388731,21.5767074 54.7388731,20.8426744 53.9584431,20.3900971" id="Fill-102"></path>
                            <path d="M36.7855649,17.9199254 L40.4551339,20.0481903 C41.2355482,20.5010028 42.5006096,20.5010028 43.281024,20.0481903 L46.9508213,17.9199254 C47.7312356,17.4673422 47.7312356,16.733529 46.9508213,16.2807164 L43.281024,14.1524516 C42.5006096,13.6998684 41.2355482,13.6998684 40.4551339,14.1524516 L36.7855649,16.2807164 C36.0051506,16.733529 36.0051506,17.4673422 36.7855649,17.9199254" id="Fill-104"></path>
                            <path d="M9.37919037,20.1469251 L24.7206008,28.8858128 C25.5088008,29.3349527 26.7867134,29.3349527 27.5749133,28.8858128 L31.28086,26.7748099 C32.0690599,26.3258975 32.0690599,25.5978086 31.28086,25.1488962 L15.9394495,16.409781 C15.1512496,15.9608686 13.8733369,15.9608686 13.085137,16.409781 L9.37919037,18.5210114 C8.59099046,18.9699238 8.59099046,19.6977852 9.37919037,20.1469251" id="Fill-106"></path>
                            <path d="M103.01189,66.4134344 L99.3423211,64.285188 C98.5619067,63.8326088 97.2968453,63.8326088 96.5164309,64.285188 L92.8466336,66.4134344 C92.0662193,66.866243 92.0662193,67.6000498 92.8466336,68.052629 L96.5164309,70.1811047 C97.2968453,70.6336839 98.5619067,70.6336839 99.3423211,70.1811047 L103.01189,68.052629 C103.792304,67.6000498 103.792304,66.866243 103.01189,66.4134344" id="Fill-108"></path>
                            <path d="M85.632905,63.9436175 L89.3023194,66.0718638 C90.0827495,66.524443 91.3480648,66.524443 92.1284949,66.0718638 L95.7981377,63.9436175 C96.5785678,63.4908089 96.5785678,62.757002 95.7981377,62.3044228 L92.1284949,60.1759471 C91.3480648,59.7233679 90.0827495,59.7233679 89.3023194,60.1759471 L85.632905,62.3044228 C84.8524749,62.757002 84.8524749,63.4908089 85.632905,63.9436175" id="Fill-110"></path>
                            <path d="M78.4191645,59.8341471 L82.088579,61.9626228 C82.869009,62.4152021 84.1343244,62.4152021 84.9147544,61.9626228 L88.5843973,59.8341471 C89.3648273,59.3815679 89.3648273,58.6477611 88.5843973,58.1949525 L84.9147544,56.0667062 C84.1343244,55.6141269 82.869009,55.6141269 82.088579,56.0667062 L78.4191645,58.1949525 C77.6387344,58.6477611 77.6387344,59.3815679 78.4191645,59.8341471" id="Fill-112"></path>
                            <path d="M71.4115191,55.7249636 L75.0810881,57.8532099 C75.8615024,58.3060185 77.1267922,58.3060185 77.9069782,57.8532099 L81.5767755,55.7249636 C82.3571898,55.272155 82.3571898,54.5383481 81.5767755,54.0857689 L77.9069782,51.9572932 C77.1267922,51.5049434 75.8615024,51.5049434 75.0810881,51.9572932 L71.4115191,54.0857689 C70.6311048,54.5383481 70.6311048,55.272155 71.4115191,55.7249636" id="Fill-114"></path>
                            <path d="M64.1977905,51.6157872 L67.8672049,53.7439778 C68.647635,54.1967746 69.9129503,54.1967746 70.6933804,53.7439778 L74.3630232,51.6157872 C75.1434533,51.1629904 75.1434533,50.4292028 74.3630232,49.9766354 L70.6933804,47.8482154 C69.9129503,47.395648 68.647635,47.395648 67.8672049,47.8482154 L64.1977905,49.9766354 C63.4173604,50.4292028 63.4173604,51.1629904 64.1977905,51.6157872" id="Fill-116"></path>
                            <path d="M56.9840382,47.5064243 L60.6533787,49.6349 C61.4337931,50.0874792 62.6990829,50.0874792 63.4794972,49.6349 L67.1492946,47.5064243 C67.9297089,47.0538451 67.9297089,46.3200383 67.1492946,45.8672297 L63.4794972,43.7389834 C62.6990829,43.2864041 61.4337931,43.2864041 60.6533787,43.7389834 L56.9840382,45.8672297 C56.2036239,46.3200383 56.2036239,47.0538451 56.9840382,47.5064243" id="Fill-118"></path>
                            <path d="M49.7701353,43.3972192 L53.4397597,45.5254841 C54.2201858,45.9782966 55.4854948,45.9782966 56.2659209,45.5254841 L59.9355453,43.3972192 C60.7159714,42.944636 60.7159714,42.2108228 59.9355453,41.7580102 L56.2659209,39.6297454 C55.4854948,39.1771622 54.2201858,39.1771622 53.4397597,39.6297454 L49.7701353,41.7580102 C48.9899376,42.2108228 48.9899376,42.944636 49.7701353,43.3972192" id="Fill-120"></path>
                            <path d="M42.5565691,39.2881718 L46.2259836,41.4164182 C47.0064136,41.8689974 48.2717289,41.8689974 49.052159,41.4164182 L52.7218019,39.2881718 C53.5022319,38.8353632 53.5022319,38.1015564 52.7218019,37.6489772 L49.052159,35.5205015 C48.2717289,35.0679223 47.0064136,35.0679223 46.2259836,35.5205015 L42.5565691,37.6489772 C41.776139,38.1015564 41.776139,38.8353632 42.5565691,39.2881718" id="Fill-122"></path>
                            <path d="M35.5489237,35.1787015 L39.2184926,37.3071772 C39.998907,37.7597564 41.2639684,37.7597564 42.0443827,37.3071772 L45.7141801,35.1787015 C46.4945944,34.7261223 46.4945944,33.9923155 45.7141801,33.5395068 L42.0443827,31.4112605 C41.2639684,30.9586813 39.9986786,30.9586813 39.2184926,31.4112605 L35.5489237,33.5395068 C34.7685094,33.9923155 34.7685094,34.7261223 35.5489237,35.1787015" id="Fill-124"></path>
                            <path d="M28.335195,31.06969 L32.0046095,33.1979363 C32.7850396,33.6505155 34.0503549,33.6505155 34.8307849,33.1979363 L38.5004278,31.06969 C39.2808579,30.6168814 39.2808579,29.8830745 38.5004278,29.4304953 L34.8307849,27.3020196 C34.0503549,26.8494404 32.7850396,26.8494404 32.0046095,27.3020196 L28.335195,29.4304953 C27.554765,29.8830745 27.554765,30.6168814 28.335195,31.06969" id="Fill-126"></path>
                            <path d="M31.632905,22.2392555 C30.8524749,22.6918328 30.8524749,23.4256364 31.632905,23.8784431 L35.3023194,26.0066801 C36.0827495,26.4594867 37.3480648,26.4592573 38.1284949,26.0066801 L41.7981377,23.8784431 C42.5785678,23.4256364 42.5785678,22.6918328 41.7981377,22.2392555 L38.1284949,20.1110185 C37.3480648,19.6582119 36.0827495,19.6582119 35.3023194,20.1110185 L31.632905,22.2392555 Z" id="Fill-128"></path>
                            <path d="M38.8464712,26.5537973 C38.0662734,27.0066059 38.0662734,27.7404127 38.8464712,28.1929919 L42.5160956,30.3214676 C43.2965217,30.7740468 44.5618306,30.7740468 45.3422568,30.3214676 L49.0118811,28.1929919 C49.7923073,27.7404127 49.7923073,27.0066059 49.0118811,26.5537973 L45.3422568,24.4255509 C44.5618306,23.9729717 43.2965217,23.9729717 42.5160956,24.4255509 L38.8464712,26.5537973 Z" id="Fill-130"></path>
                            <path d="M46.0603741,32.302387 L49.7297146,34.430624 C50.510129,34.8834306 51.7754188,34.8832013 52.5558331,34.430624 L56.2256304,32.302387 C57.0060448,31.8495804 57.0060448,31.1157767 56.2256304,30.6631995 L52.5558331,28.5349624 C51.7754188,28.0821558 50.510129,28.0821558 49.7297146,28.5349624 L46.0603741,30.6631995 C45.2799598,31.1157767 45.2799598,31.8495804 46.0603741,32.302387" id="Fill-132"></path>
                            <path d="M53.0680195,36.4114738 L56.7374339,38.5399495 C57.517864,38.9925287 58.7831793,38.9925287 59.5636094,38.5399495 L63.2332522,36.4114738 C64.0136823,35.9588946 64.0136823,35.2250877 63.2332522,34.7722791 L59.5636094,32.6440328 C58.7831793,32.1914536 57.517864,32.1914536 56.7374339,32.6440328 L53.0680195,34.7722791 C52.2875894,35.2250877 52.2875894,35.9588946 53.0680195,36.4114738" id="Fill-134"></path>
                            <path d="M60.2817481,40.5207828 L63.9513171,42.6490199 C64.7317314,43.1018265 65.9970212,43.1018265 66.7774356,42.6490199 L70.4470045,40.5207828 C71.2274188,40.0682056 71.2274188,39.334402 70.4470045,38.8815953 L66.7774356,36.7533583 C65.9970212,36.3007811 64.7317314,36.3005517 63.9513171,36.7533583 L60.2817481,38.8815953 C59.5013338,39.3341726 59.5013338,40.0682056 60.2817481,40.5207828" id="Fill-136"></path>
                            <path d="M67.4954886,44.6299557 L71.1648291,46.7584314 C71.9452435,47.2110106 73.2105333,47.2110106 73.9909476,46.7584314 L77.660745,44.6299557 C78.4411593,44.1773765 78.4411593,43.4435696 77.660745,42.990761 L73.9909476,40.8625147 C73.2105333,40.4099355 71.9452435,40.4099355 71.1648291,40.8625147 L67.4954886,42.990761 C66.7150743,43.4435696 66.7150743,44.1773765 67.4954886,44.6299557" id="Fill-138"></path>
                            <path d="M74.7092408,48.7392647 L78.3786553,50.8675018 C79.1590854,51.3203084 80.4244007,51.3203084 81.2048308,50.8675018 L84.8744736,48.7392647 C85.6549037,48.2864581 85.6549037,47.5526544 84.8744736,47.1000772 L81.2048308,44.9718402 C80.4244007,44.5192629 79.1590854,44.5190335 78.3786553,44.9718402 L74.7092408,47.1000772 C73.9288108,47.5526544 73.9288108,48.2864581 74.7092408,48.7392647" id="Fill-140"></path>
                            <path d="M81.7168626,52.8484376 L85.3864316,54.9769132 C86.1668459,55.4294925 87.4321357,55.4294925 88.2123217,54.9769132 L91.882119,52.8484376 C92.6625333,52.3958583 92.6625333,51.6620515 91.882119,51.2092429 L88.2123217,49.0809966 C87.4321357,48.6284174 86.1668459,48.6284174 85.3864316,49.0809966 L81.7168626,51.2092429 C80.9364483,51.6620515 80.9364483,52.3958583 81.7168626,52.8484376" id="Fill-142"></path>
                            <path d="M88.9306149,56.9579079 L92.6000294,59.0861542 C93.3804594,59.5387334 94.6457747,59.5387334 95.4262048,59.0861542 L99.0958477,56.9579079 C99.8762777,56.5050993 99.8762777,55.7712924 99.0958477,55.3187132 L95.4262048,53.1902375 C94.6457747,52.7376583 93.3804594,52.7376583 92.6000294,53.1902375 L88.9306149,55.3187132 C88.1501848,55.7712924 88.1501848,56.5050993 88.9306149,56.9579079" id="Fill-144"></path>
                            <path d="M96.1443553,61.0669768 L99.8137698,63.1952231 C100.5942,63.6480317 101.859515,63.6480317 102.639945,63.1952231 L106.309588,61.0669768 C107.090018,60.6141682 107.090018,59.8803613 106.309588,59.4277821 L102.639945,57.2993064 C101.859515,56.8469566 100.5942,56.8469566 99.8137698,57.2993064 L96.1443553,59.4277821 C95.3639253,59.8803613 95.3639253,60.6141682 96.1443553,61.0669768" id="Fill-146"></path>
                            <path d="M109.853686,67.3044699 L113.523329,65.1762608 C114.303759,64.7236894 114.303759,63.989666 113.523329,63.5370947 L109.853686,61.4088855 C109.073256,60.9560848 107.80794,60.9560848 107.027739,61.4088855 L103.358096,63.5370947 C102.577666,63.989666 102.577666,64.7236894 103.358096,65.1762608 L107.027739,67.3044699 C107.80794,67.7572707 109.073256,67.7572707 109.853686,67.3044699" id="Fill-148"></path>
                            <path d="M125.060772,70.1539853 L116.916261,65.5144839 C116.129776,65.0665399 114.854643,65.0665399 114.068157,65.5144839 L110.370271,67.6211604 C109.583785,68.0691044 109.583785,68.7956228 110.370271,69.2433398 L118.514781,73.8830682 C119.301267,74.3307852 120.5764,74.3307852 121.362886,73.8830682 L125.060772,71.7763918 C125.847257,71.3284478 125.847257,70.6021564 125.060772,70.1539853" id="Fill-150"></path>
                            <path d="M17.212701,15.6819753 L28.0005436,21.8956915 C28.7906763,22.3507136 30.0717225,22.3507136 30.8618551,21.8956915 L34.5771203,19.7557266 C35.367253,19.3007045 35.367253,18.5629367 34.5771203,18.1079145 L23.7890465,11.8941983 C22.9989138,11.4391761 21.7178676,11.4391761 20.927735,11.8941983 L17.212701,14.0339325 C16.4225683,14.4891853 16.4225683,15.2269531 17.212701,15.6819753" id="Fill-152"></path>
                            <path d="M117.433407,74.6642801 L106.42188,68.3917542 C105.633513,67.9427413 104.35533,67.9427413 103.566963,68.3917542 L99.8602316,70.5034576 C99.0718647,70.9522429 99.0718647,71.6807225 99.8602316,72.1295079 L110.871758,78.4022613 C111.660125,78.8512742 112.938308,78.8512742 113.726675,78.4022613 L117.433407,76.290558 C118.221773,75.8415451 118.221773,75.1135206 117.433407,74.6642801" id="Fill-154"></path>
                            <path d="M89.7122048,68.96715 L79.266981,62.9325002 C78.483933,62.4801823 77.2143731,62.4801823 76.4313251,62.9325002 L72.7493723,65.0597469 C71.9663242,65.5120648 71.9663242,66.245448 72.7493723,66.6979951 L83.1948252,72.7324158 C83.9778732,73.1849629 85.2474331,73.1849629 86.0304811,72.7324158 L89.7122048,70.6053983 C90.4952528,70.1530804 90.4952528,69.4194679 89.7122048,68.96715" id="Fill-156"></path>
                            <path d="M96.9279205,72.868554 L93.2583516,70.7403355 C92.4779373,70.2877622 91.2128758,70.2875328 90.4324615,70.7403355 L86.7626642,72.868554 C85.9822498,73.3213567 85.9822498,74.0551539 86.7626642,74.5077272 L90.4324615,76.636175 C91.2128758,77.0887483 92.4779373,77.0887483 93.2583516,76.636175 L96.9279205,74.5077272 C97.7083349,74.0551539 97.7083349,73.3213567 96.9279205,72.868554" id="Fill-158"></path>
                            <path d="M109.086627,79.8398211 L100.491439,74.850684 C99.7088923,74.3965193 98.4401454,74.3965193 97.6575988,74.850684 L93.9780038,76.9863864 C93.1954572,77.4407814 93.1954572,78.177159 93.9780038,78.6313238 L102.573421,83.620691 C103.355967,84.0748558 104.624714,84.0748558 105.407261,83.620691 L109.086627,81.4847585 C109.869173,81.0305937 109.869173,80.294216 109.086627,79.8398211" id="Fill-160"></path>
                            <path d="M75.9446168,60.4103477 L43.501121,41.8343977 C42.712434,41.3828942 41.4339624,41.3828942 40.6452754,41.8343977 L36.9368076,43.9575857 C36.1481206,44.4093181 36.1481206,45.1413809 36.9368076,45.5928844 L69.3803034,64.1690633 C70.1689904,64.620338 71.4476928,64.620338 72.2363798,64.1690633 L75.9446168,62.0456464 C76.7333038,61.5941429 76.7333038,60.8620801 75.9446168,60.4103477" id="Fill-162"></path>
                            <path d="M40.1723578,41.2581484 C40.9525555,40.8053398 40.9525555,40.071533 40.1723578,39.6189537 L36.5027334,37.490478 C35.7223073,37.0381282 34.4569983,37.0381282 33.6765722,37.490478 L30.0069478,39.6189537 C29.2265217,40.071533 29.2265217,40.8053398 30.0069478,41.2581484 L33.6765722,43.3863947 C34.4569983,43.8392033 35.7223073,43.8392033 36.5027334,43.3863947 L40.1723578,41.2581484 Z" id="Fill-164"></path>
                            <path d="M32.9584549,35.5096555 L29.2891143,33.3814092 C28.5087,32.9288299 27.2434102,32.9288299 26.4629958,33.3814092 L22.7931985,35.5096555 C22.0127842,35.9624641 22.0127842,36.6962709 22.7931985,37.1488501 L26.4629958,39.2773258 C27.2434102,39.729905 28.5087,39.729905 29.2891143,39.2773258 L32.9584549,37.1488501 C33.7388692,36.6962709 33.7388692,35.9624641 32.9584549,35.5096555" id="Fill-166"></path>
                            <path d="M8.85293928,25.2068602 L4.0760772,22.535717 C3.57442091,22.2551111 2.76143172,22.2551111 2.26000725,22.535717 L1.15469431,23.1537233 C0.653269836,23.4341047 0.653269836,23.8886862 1.15469431,24.169292 L5.93155639,26.8404353 C6.43321268,27.1210411 7.24620187,27.1210411 7.74785816,26.8404353 L8.85293928,26.2224289 C9.35436375,25.9420476 9.35436375,25.4874661 8.85293928,25.2068602" id="Fill-168"></path>
                            <path d="M16.0665033,29.3161012 L11.2898403,26.6449579 C10.7881805,26.3643521 9.97518577,26.3643521 9.47352604,26.6449579 L8.36843735,27.2629642 C7.86700943,27.5433456 7.86700943,27.9979271 8.36843735,28.278533 L13.1453322,30.9496762 C13.6467601,31.2302821 14.4599867,31.2302821 14.9614146,30.9496762 L16.0665033,30.3316699 C16.568163,30.0512885 16.568163,29.596707 16.0665033,29.3161012" id="Fill-170"></path>
                            <path d="M12.977534,24.5901641 L11.8722438,25.2081557 C11.3708297,25.4885304 11.3708297,25.9433256 11.8722438,26.2237003 L16.6492394,28.8952291 C17.1506536,29.1756038 17.9638579,29.1756038 18.4655038,28.8952291 L19.5703304,28.2772374 C20.0719764,27.9966382 20.0719764,27.5418431 19.5703304,27.2612439 L14.7935666,24.5901641 C14.2921525,24.3097894 13.4789482,24.3097894 12.977534,24.5901641" id="Fill-172"></path>
                            <path d="M23.2804176,33.4254667 L18.5037546,30.7540355 C18.001863,30.4736474 17.1888683,30.4736474 16.6874404,30.7540355 L15.5823517,31.3720565 C15.0806919,31.6524445 15.0806919,32.1072613 15.5823517,32.3876493 L20.3590147,35.0590805 C20.8606744,35.3394685 21.6736692,35.3394685 22.1753289,35.0590805 L23.2804176,34.4410595 C23.7818455,34.160447 23.7818455,33.7058547 23.2804176,33.4254667" id="Fill-174"></path>
                        </g>
                        <mask id="mask-12" fill="white">
                            <use xlink:href="#path-11"></use>
                        </mask>
                        <use id="Screen" fill="#34A853" xlink:href="#path-11"></use>
                        <polygon id="Rectangle" fill="#5BB974" mask="url(#mask-12)" points="85 4 211 77 211 169 85 10"></polygon>
                    </g>
                </g>
                <g id="Terminal" transform="translate(196.000000, 14.000000)" filter="url(#filter-13)">
                    <path d="M97.0036554,-0.956422873 C97.5974965,-0.964461657 98.1301871,-0.783477344 98.5769247,-0.442420137 C99.2941096,0.10510717 99.8297177,1.1313792 99.8297177,2.62112286 L99.8297177,2.62112286 L99.8297177,81.4498641 C99.8297177,83.9403893 98.2752594,86.8393414 96.4080493,87.9558827 L96.4080493,87.9558827 L3.95918928,143.237807 C3.38949759,143.578467 2.84338366,143.730641 2.3503268,143.743816 C1.74837254,143.759901 1.2080641,143.576896 0.755100627,143.223062 C0.0457373528,142.668942 -0.488911174,141.619584 -0.488911174,140.086957 L-0.488911174,140.086957 L-0.488911174,58.1236287 C-0.488911174,56.8540132 -0.122138601,55.4924348 0.481636535,54.3198631 C1.11135954,53.0968988 1.99843179,52.0912043 2.9554193,51.5524756 L2.9554193,51.5524756 L95.4042793,-0.490894812 C95.9706969,-0.809755252 96.5131371,-0.949782763 97.0036554,-0.956422873 Z" id="Rectangle" stroke="#DADCE0" stroke-width="2" fill="#202124"></path>
                    <mask id="mask-15" fill="white">
                        <use xlink:href="#path-14"></use>
                    </mask>
                    <path stroke="#DADCE0" stroke-width="2" d="M97.0036554,-0.956422873 C97.5974965,-0.964461657 98.1301871,-0.783477344 98.5769247,-0.442420137 C99.2941096,0.10510717 99.8297177,1.1313792 99.8297177,2.62112286 L99.8297177,2.62112286 L99.8297177,81.4498641 C99.8297177,83.9403893 98.2752594,86.8393414 96.4080493,87.9558827 L96.4080493,87.9558827 L3.95918928,143.237807 C3.38949759,143.578467 2.84338366,143.730641 2.3503268,143.743816 C1.74837254,143.759901 1.2080641,143.576896 0.755100627,143.223062 C0.0457373528,142.668942 -0.488911174,141.619584 -0.488911174,140.086957 L-0.488911174,140.086957 L-0.488911174,58.1236287 C-0.488911174,56.8540132 -0.122138601,55.4924348 0.481636535,54.3198631 C1.11135954,53.0968988 1.99843179,52.0912043 2.9554193,51.5524756 L2.9554193,51.5524756 L95.4042793,-0.490894812 C95.9706969,-0.809755252 96.5131371,-0.949782763 97.0036554,-0.956422873 Z"></path>
                    <g id="code" mask="url(#mask-15)">
                        <g transform="translate(6.088608, 33.782609)">
                            <path d="M4.06139241,30.0949953 L42.7613924,8.45732642 C43.9488046,7.79342895 44.9113924,8.55454058 44.9113924,10.1573168 C44.9113924,11.7600931 43.9488046,13.5994767 42.7613924,14.2656951 L4.06139241,35.9790083 C2.87398019,36.6452267 1.91139241,35.8671816 1.91139241,34.2411958 C1.91139241,32.61521 2.87398019,30.7588928 4.06139241,30.0949953 Z" id="Rectangle" fill="#EE675C"></path>
                            <path d="M4.06139241,50.9309013 L42.7613924,28.4691724 C43.9488046,27.7799907 44.9113924,28.5542451 44.9113924,30.1985181 C44.9113924,31.8427911 43.9488046,33.7363601 42.7613924,34.4279228 L4.06139241,56.9672545 C2.87398019,57.6588172 1.91139241,56.8671908 1.91139241,55.1991073 C1.91139241,53.5310239 2.87398019,51.6200829 4.06139241,50.9309013 Z" id="Rectangle-Copy-4" fill="#4285F4"></path>
                            <path d="M4.03639241,40.9231352 L16.7863924,33.4649574 C17.9599975,32.7784511 18.9113924,33.5686809 18.9113924,35.2299851 C18.9113924,36.8912893 17.9599975,38.7964992 16.7863924,39.4853905 L4.03639241,46.9694786 C2.86278731,47.6583699 1.91139241,46.8623399 1.91139241,45.1914957 C1.91139241,43.5206516 2.86278731,41.6096415 4.03639241,40.9231352 Z" id="Rectangle-Copy" fill="#34A853"></path>
                            <path d="M4.03639241,80.997893 L16.7863924,73.4724256 C17.9599975,72.7797255 18.9113924,73.546625 18.9113924,75.1853437 C18.9113924,76.8240624 17.9599975,78.715958 16.7863924,79.4110107 L4.03639241,86.9620362 C2.86278731,87.6570889 1.91139241,86.884468 1.91139241,85.236339 C1.91139241,83.5882101 2.86278731,81.6905932 4.03639241,80.997893 Z" id="Rectangle-Copy-14" fill="#34A853"></path>
                            <path d="M24.0363924,29.9449112 L36.7863924,22.4671193 C37.9599975,21.7788076 38.9113924,22.5621985 38.9113924,24.2168719 C38.9113924,25.8715453 37.9599975,27.7728486 36.7863924,28.4635515 L24.0363924,35.967322 C22.8627873,36.6580249 21.9113924,35.8688185 21.9113924,34.2045801 C21.9113924,32.5403416 22.8627873,30.6332229 24.0363924,29.9449112 Z" id="Rectangle-Copy-2" fill="#FCC934"></path>
                            <path d="M24.0363924,69.0195593 L36.7863924,61.4746362 C37.9599975,60.7801452 38.9113924,61.540232 38.9113924,63.1723375 C38.9113924,64.804443 37.9599975,66.6924343 36.7863924,67.3892839 L24.0363924,74.9598313 C22.8627873,75.6566809 21.9113924,74.8908579 21.9113924,73.2493178 C21.9113924,71.6077777 22.8627873,69.7140503 24.0363924,69.0195593 Z" id="Rectangle-Copy-15" fill="#FCC934"></path>
                            <path d="M45.0988924,17.2291435 L75.7238924,0.460287313 C76.9320153,-0.201225799 77.9113924,0.534897481 77.9113924,2.10446468 C77.9113924,3.67403187 76.9320153,5.48454284 75.7238924,6.14835411 L45.0988924,22.9754669 C43.8907695,23.6392782 42.9113924,22.8901137 42.9113924,21.3021612 C42.9113924,19.7142088 43.8907695,17.8906566 45.0988924,17.2291435 Z" id="Rectangle-Copy-3" fill="#FFFFFF"></path>
                            <path d="M45.0780591,56.0577582 L66.7447257,43.4771504 C67.9413427,42.7823426 68.9113924,43.5293856 68.9113924,45.1457176 C68.9113924,46.7620495 67.9413427,48.6375114 66.7447257,49.3346789 L45.0780591,61.9580133 C43.8814421,62.6551808 42.9113924,61.8985732 42.9113924,60.2680829 C42.9113924,58.6375926 43.8814421,56.752566 45.0780591,56.0577582 Z" id="Rectangle-Copy-16" fill="#FFFFFF"></path>
                            <path d="M3.09889241,60.9556391 L33.7238924,43.4699332 C34.9320153,42.7801411 35.9113924,43.5519739 35.9113924,45.19387 C35.9113924,46.835766 34.9320153,48.727894 33.7238924,49.4200561 L3.09889241,66.9658411 C1.89076951,67.6580032 0.911392405,66.8727213 0.911392405,65.2118648 C0.911392405,63.5510083 1.89076951,61.6454312 3.09889241,60.9556391 Z" id="Rectangle-Copy-5" fill="#FFFFFF"></path>
                        </g>
                    </g>
                </g>
                <mask id="mask-17" fill="white">
                    <use xlink:href="#path-16"></use>
                </mask>
                <g id="Rectangle-Copy-8">
                    <use fill="black" fill-opacity="1" filter="url(#filter-18)" xlink:href="#path-16"></use>
                    <path stroke="#FFFFFF" stroke-width="2" d="M532.469259,9.00059213 C533.027824,9.01139909 533.64439,9.17162596 534.288751,9.52538044 L534.288751,9.52538044 L669.188751,83.5856064 C670.316369,84.2046699 671.353931,85.3354068 672.095008,86.6898718 C672.818993,88.0130975 673.257505,89.5393221 673.257505,90.9505159 L673.257505,90.9505159 L673.257505,184.007617 C673.257505,185.683839 672.646257,186.842139 671.807184,187.454406 C671.30703,187.819366 670.710848,188.012276 670.045751,187.999408 C669.487185,187.988601 668.870619,187.828374 668.226258,187.47462 L668.226258,187.47462 L533.326258,113.414394 C532.19864,112.79533 531.161079,111.664593 530.420001,110.310128 C529.696016,108.986903 529.257505,107.460678 529.257505,106.049484 L529.257505,106.049484 L529.257505,12.9923834 C529.257505,11.3161615 529.868753,10.1578613 530.707825,9.54559442 C531.207979,9.18063437 531.804162,8.98772402 532.469259,9.00059213 Z" fill="#FBBC04" fill-rule="evenodd"></path>
                </g>
                <g id="Rectangle-Copy-6">
                    <use fill="black" fill-opacity="1" filter="url(#filter-20)" xlink:href="#path-19"></use>
                    <path stroke="#FFFFFF" stroke-width="2" d="M502.469259,19.0005921 C503.027824,19.0113991 503.64439,19.171626 504.288751,19.5253804 L504.288751,19.5253804 L639.188751,93.5856064 C640.316369,94.2046699 641.353931,95.3354068 642.095008,96.6898718 C642.818993,98.0130975 643.257505,99.5393221 643.257505,100.950516 L643.257505,100.950516 L643.257505,194.007617 C643.257505,195.683839 642.646257,196.842139 641.807184,197.454406 C641.30703,197.819366 640.710848,198.012276 640.045751,197.999408 C639.487185,197.988601 638.870619,197.828374 638.226258,197.47462 L638.226258,197.47462 L503.326258,123.414394 C502.19864,122.79533 501.161079,121.664593 500.420001,120.310128 C499.696016,118.986903 499.257505,117.460678 499.257505,116.049484 L499.257505,116.049484 L499.257505,22.9923834 C499.257505,21.3161615 499.868753,20.1578613 500.707825,19.5455944 C501.207979,19.1806344 501.804162,18.987724 502.469259,19.0005921 Z" fill="#34A853" fill-rule="evenodd"></path>
                </g>
                <mask id="mask-22" fill="white">
                    <use xlink:href="#path-21"></use>
                </mask>
                <g id="Mask">
                    <use fill="black" fill-opacity="1" filter="url(#filter-23)" xlink:href="#path-21"></use>
                    <path stroke="#FFFFFF" stroke-width="2" d="M475.469259,28.0005921 C476.027824,28.0113991 476.64439,28.171626 477.288751,28.5253804 L477.288751,28.5253804 L612.188751,102.585606 C613.316369,103.20467 614.353931,104.335407 615.095008,105.689872 C615.818993,107.013097 616.257505,108.539322 616.257505,109.950516 L616.257505,109.950516 L616.257505,203.007617 C616.257505,204.683839 615.646257,205.842139 614.807184,206.454406 C614.30703,206.819366 613.710848,207.012276 613.045751,206.999408 C612.487185,206.988601 611.870619,206.828374 611.226258,206.47462 L611.226258,206.47462 L476.326258,132.414394 C475.19864,131.79533 474.161079,130.664593 473.420001,129.310128 C472.696016,127.986903 472.257505,126.460678 472.257505,125.049484 L472.257505,125.049484 L472.257505,31.9923834 C472.257505,30.3161615 472.868753,29.1578613 473.707825,28.5455944 C474.207979,28.1806344 474.804162,27.987724 475.469259,28.0005921 Z" fill="#EA4335" fill-rule="evenodd"></path>
                </g>
                <g id="Group" filter="url(#filter-24)" transform="translate(445.257505, 38.000000)">
                    <g id="browser-windows" filter="url(#filter-25)" transform="translate(0.742495, 0.000000)">
                        <g id="browser">
                            <path d="M2.7541449,-0.246233598 C3.31081452,-0.235492383 3.92526265,-0.0762247281 4.567423,0.275370383 L4.567423,0.275370383 L138.944021,73.8491355 C140.068058,74.4645671 141.102269,75.5886498 141.840991,76.9351647 C142.562874,78.2509881 143,79.7686996 143,81.1719745 L143,81.1719745 L143,173.617834 C143,175.286163 142.389971,176.438725 141.552674,177.048047 C141.054101,177.410872 140.459821,177.602767 139.796805,177.589974 C139.240135,177.579233 138.625687,177.419965 137.983527,177.06837 L137.983527,177.06837 L3.60692853,103.494605 C2.48289185,102.879173 1.44868039,101.755091 0.709958921,100.408576 C-0.0119246799,99.0927523 -0.449050496,97.5750408 -0.449050496,96.1717658 L-0.449050496,96.1717658 L-0.449050496,3.72590598 C-0.449050496,2.0575777 0.160978246,0.905015816 0.998275019,0.295693509 C1.4968489,-0.0671314718 2.09112893,-0.259026818 2.7541449,-0.246233598 Z" id="Rectangle" stroke="#FFFFFF" stroke-width="2" fill="#1A73E8"></path>
                            <mask id="mask-27" fill="white">
                                <use xlink:href="#path-26"></use>
                            </mask>
                            <path stroke="#FFFFFF" stroke-width="2" d="M2.7541449,-0.246233598 C3.31081452,-0.235492383 3.92526265,-0.0762247281 4.567423,0.275370383 L4.567423,0.275370383 L138.944021,73.8491355 C140.068058,74.4645671 141.102269,75.5886498 141.840991,76.9351647 C142.562874,78.2509881 143,79.7686996 143,81.1719745 L143,81.1719745 L143,173.617834 C143,175.286163 142.389971,176.438725 141.552674,177.048047 C141.054101,177.410872 140.459821,177.602767 139.796805,177.589974 C139.240135,177.579233 138.625687,177.419965 137.983527,177.06837 L137.983527,177.06837 L3.60692853,103.494605 C2.48289185,102.879173 1.44868039,101.755091 0.709958921,100.408576 C-0.0119246799,99.0927523 -0.449050496,97.5750408 -0.449050496,96.1717658 L-0.449050496,96.1717658 L-0.449050496,3.72590598 C-0.449050496,2.0575777 0.160978246,0.905015816 0.998275019,0.295693509 C1.4968489,-0.0671314718 2.09112893,-0.259026818 2.7541449,-0.246233598 Z"></path>
                            <g id="navigation/refresh_24px-copy" mask="url(#mask-27)">
                                <g transform="translate(124.960000, 73.280255)">
                                    <mask id="mask-29" fill="white">
                                        <use xlink:href="#path-28"></use>
                                    </mask>
                                    <use id="ic_search_24px" stroke="none" fill="#FFFFFF" fill-rule="nonzero" xlink:href="#path-28"></use>
                                </g>
                            </g>
                            <polygon id="Rectangle" fill="#669DF6" mask="url(#mask-27)" points="0.550949504 18.2410334 142 95.6871019 142 179.712779 0.550949504 102.26671"></polygon>
                            <polygon id="Rectangle-Copy-5" fill="#1A73E8" mask="url(#mask-27)" points="5.53593807 83.5933203 137.015011 155.580635 137.015011 205.520424 5.53593807 133.533109"></polygon>
                            <path d="M9.42746,8.93717371 L116.03111,67.8971749 C117.963098,68.9657131 119.529285,71.8494786 119.529285,74.3382456 C119.529285,76.8270126 117.963098,77.9783356 116.03111,76.9097975 L9.42746,17.9497962 C7.4954712,16.8812581 5.92928482,13.9974925 5.92928482,11.5087256 C5.92928482,9.01995858 7.4954712,7.8686356 9.42746,8.93717371 Z" id="Rectangle" fill="#FFFFFF" mask="url(#mask-27)"></path>
                            <polygon id="Rectangle" fill="#1A73E8" mask="url(#mask-27)" points="72.8332837 64.1585584 137.015011 99.2992856 137.015011 149.239075 72.8332837 114.098347"></polygon>
                            <path d="M8.33314829,28.843497 L66.297332,60.5799995 C67.8421886,61.4258381 69.0945423,63.7085833 69.0945423,65.6786536 C69.0945423,67.6487238 67.8421886,68.5600937 66.297332,67.7142551 L8.33314829,35.9777526 C6.78829174,35.131914 5.53593807,32.8491688 5.53593807,30.8790985 C5.53593807,28.9090282 6.78829174,27.9976584 8.33314829,28.843497 Z" id="Rectangle-Copy" fill="#1A73E8" mask="url(#mask-27)"></path>
                            <path d="M8.33314829,43.1120081 L66.297332,74.8485107 C67.8421886,75.6943493 69.0945423,77.9770944 69.0945423,79.9471647 C69.0945423,81.917235 67.8421886,82.8286048 66.297332,81.9827662 L8.33314829,50.2462637 C6.78829174,49.4004251 5.53593807,47.11768 5.53593807,45.1476097 C5.53593807,43.1775394 6.78829174,42.2661695 8.33314829,43.1120081 Z" id="Rectangle-Copy-2" fill="#1A73E8" mask="url(#mask-27)"></path>
                            <path d="M8.33314829,57.3805193 L66.297332,89.1170218 C67.8421886,89.9628604 69.0945423,92.2456056 69.0945423,94.2156758 C69.0945423,96.1857461 67.8421886,97.097116 66.297332,96.2512774 L8.33314829,64.5147749 C6.78829174,63.6689363 5.53593807,61.3861911 5.53593807,59.4161208 C5.53593807,57.4460505 6.78829174,56.5346807 8.33314829,57.3805193 Z" id="Rectangle-Copy-3" fill="#1A73E8" mask="url(#mask-27)"></path>
                            <path d="M8.33314829,71.6490304 L66.297332,103.385533 C67.8421886,104.231372 69.0945423,106.514117 69.0945423,108.484187 C69.0945423,110.454257 67.8421886,111.365627 66.297332,110.519789 L8.33314829,78.783286 C6.78829174,77.9374474 5.53593807,75.6547022 5.53593807,73.684632 C5.53593807,71.7145617 6.78829174,70.8031918 8.33314829,71.6490304 Z" id="Rectangle-Copy-4" fill="#1A73E8" mask="url(#mask-27)"></path>
                        </g>
                    </g>
                </g>
            </g>
        </g>
    </g>
</svg>