<?xml version="1.0" encoding="utf-8"?>
<!-- Generator: Adobe Illustrator 24.1.2, SVG Export Plug-In . SVG Version: 6.00 Build 0)  -->
<svg version="1.1" id="Layer_1" xmlns="http://www.w3.org/2000/svg" xmlns:xlink="http://www.w3.org/1999/xlink" x="0px" y="0px"
	 viewBox="0 0 107.6 107.6" style="enable-background:new 0 0 107.6 107.6;" xml:space="preserve">
<style type="text/css">
	.st0{clip-path:url(#SVGID_2_);}
	.st1{fill:#DB4437;}
	.st2{fill:url(#SVGID_3_);}
	.st3{clip-path:url(#SVGID_5_);}
	.st4{fill:#3E2723;fill-opacity:0.15;}
	.st5{clip-path:url(#SVGID_7_);}
	.st6{fill:#0F9D58;}
	.st7{fill:url(#SVGID_8_);}
	.st8{fill:#263238;fill-opacity:0.15;}
	.st9{clip-path:url(#SVGID_10_);}
	.st10{clip-path:url(#SVGID_12_);}
	.st11{fill:#FFCD40;}
	.st12{fill:url(#SVGID_13_);}
	.st13{clip-path:url(#SVGID_15_);}
	.st14{fill:url(#SVGID_16_);}
	.st15{clip-path:url(#SVGID_18_);}
	.st16{clip-path:url(#SVGID_20_);}
	.st17{fill:url(#SVGID_21_);}
	.st18{fill:url(#SVGID_22_);}
	.st19{clip-path:url(#SVGID_24_);}
	.st20{clip-path:url(#SVGID_26_);}
	.st21{fill:url(#SVGID_27_);}
	.st22{fill:url(#SVGID_28_);}
	.st23{fill:url(#SVGID_29_);}
	.st24{clip-path:url(#SVGID_31_);}
	.st25{fill:#F1F1F1;}
	.st26{fill:#4285F4;}
	.st27{clip-path:url(#SVGID_33_);}
	.st28{fill:none;}
	.st29{clip-path:url(#SVGID_35_);}
	.st30{fill:url(#SVGID_36_);}
	.st31{clip-path:url(#SVGID_38_);}
	.st32{fill:#424242;}
	.st33{fill:#FFFFFF;}
</style>
<g>
	<g>
		<defs>
			<circle id="SVGID_1_" cx="53.7" cy="53.8" r="43.1"/>
		</defs>
		<clipPath id="SVGID_2_">
			<use xlink:href="#SVGID_1_"  style="overflow:visible;"/>
		</clipPath>
		<g class="st0">
			<path class="st1" d="M17.5,10.8v52.8h19.3l17-29.4h43V10.8H17.5z"/>
			
				<linearGradient id="SVGID_3_" gradientUnits="userSpaceOnUse" x1="1767.0493" y1="3040.7317" x2="1776.6793" y2="3035.1018" gradientTransform="matrix(2.67 0 0 2.67 -4696.4731 -8075.4907)">
				<stop  offset="0" style="stop-color:#A52714;stop-opacity:0.6"/>
				<stop  offset="0.66" style="stop-color:#A52714;stop-opacity:0"/>
			</linearGradient>
			<path class="st2" d="M17.5,10.8v52.8h19.3l17-29.4h43V10.8H17.5z"/>
		</g>
	</g>
</g>
<g>
	<g>
		<defs>
			<circle id="SVGID_4_" cx="53.7" cy="53.8" r="43.1"/>
		</defs>
		<clipPath id="SVGID_5_">
			<use xlink:href="#SVGID_4_"  style="overflow:visible;"/>
		</clipPath>
		<g class="st3">
			<path class="st4" d="M37.2,63.5L17.7,30l-0.3,0.5l19.4,33.2L37.2,63.5z"/>
		</g>
	</g>
</g>
<g>
	<g>
		<defs>
			<circle id="SVGID_6_" cx="53.7" cy="53.8" r="43.1"/>
		</defs>
		<clipPath id="SVGID_7_">
			<use xlink:href="#SVGID_6_"  style="overflow:visible;"/>
		</clipPath>
		<g class="st5">
			<path class="st6" d="M10.6,96.9h41l19-19V63.5H36.7L10.6,18.8V96.9z"/>
			
				<linearGradient id="SVGID_8_" gradientUnits="userSpaceOnUse" x1="1785.031" y1="3059.0952" x2="1774.3309" y2="3052.8352" gradientTransform="matrix(2.67 0 0 2.67 -4696.4731 -8075.4907)">
				<stop  offset="0" style="stop-color:#055524;stop-opacity:0.4"/>
				<stop  offset="0.33" style="stop-color:#055524;stop-opacity:0"/>
			</linearGradient>
			<path class="st7" d="M10.6,96.9h41l19-19V63.5H36.7L10.6,18.8V96.9z"/>
		</g>
	</g>
</g>
<path class="st8" d="M70.3,64.3L69.9,64L51.1,96.9h0.6L70.3,64.3L70.3,64.3z"/>
<g>
	<g>
		<defs>
			<circle id="SVGID_9_" cx="53.7" cy="53.8" r="43.1"/>
		</defs>
		<clipPath id="SVGID_10_">
			<use xlink:href="#SVGID_9_"  style="overflow:visible;"/>
		</clipPath>
		<g class="st9">
			<g>
				<g>
					<defs>
						<polygon id="SVGID_11_" points="10.6,96.9 51.6,96.9 70.7,77.9 70.7,63.5 36.7,63.5 10.6,18.8 						"/>
					</defs>
					<clipPath id="SVGID_12_">
						<use xlink:href="#SVGID_11_"  style="overflow:visible;"/>
					</clipPath>
					<g class="st10">
						<path class="st11" d="M53.7,34.2l16.9,29.4L51.6,97h45.1V34.2H53.7z"/>
						
							<linearGradient id="SVGID_13_" gradientUnits="userSpaceOnUse" x1="1784.6738" y1="3039.9885" x2="1787.3638" y2="3051.7886" gradientTransform="matrix(2.67 0 0 2.67 -4696.4731 -8075.4907)">
							<stop  offset="0" style="stop-color:#EA6100;stop-opacity:0.3"/>
							<stop  offset="0.66" style="stop-color:#EA6100;stop-opacity:0"/>
						</linearGradient>
						<path class="st12" d="M53.7,34.2l16.9,29.4L51.6,97h45.1V34.2H53.7z"/>
					</g>
				</g>
			</g>
			<g>
				<g>
					<defs>
						<circle id="SVGID_14_" cx="53.7" cy="53.8" r="43.1"/>
					</defs>
					<clipPath id="SVGID_15_">
						<use xlink:href="#SVGID_14_"  style="overflow:visible;"/>
					</clipPath>
					<g class="st13">
						<path class="st11" d="M53.7,34.2l16.9,29.4L51.6,97h45.1V34.2H53.7z"/>
						
							<linearGradient id="SVGID_16_" gradientUnits="userSpaceOnUse" x1="1784.6738" y1="3039.9885" x2="1787.3638" y2="3051.7886" gradientTransform="matrix(2.67 0 0 2.67 -4696.4731 -8075.4907)">
							<stop  offset="0" style="stop-color:#EA6100;stop-opacity:0.3"/>
							<stop  offset="0.66" style="stop-color:#EA6100;stop-opacity:0"/>
						</linearGradient>
						<path class="st14" d="M53.7,34.2l16.9,29.4L51.6,97h45.1V34.2H53.7z"/>
					</g>
				</g>
			</g>
			<g>
				<g>
					<defs>
						<circle id="SVGID_17_" cx="53.7" cy="53.8" r="43.1"/>
					</defs>
					<clipPath id="SVGID_18_">
						<use xlink:href="#SVGID_17_"  style="overflow:visible;"/>
					</clipPath>
					<g class="st15">
						<g>
							<g>
								<defs>
									<polygon id="SVGID_19_" points="53.7,34.2 70.7,63.5 51.6,96.9 96.8,96.9 96.8,34.2 									"/>
								</defs>
								<clipPath id="SVGID_20_">
									<use xlink:href="#SVGID_19_"  style="overflow:visible;"/>
								</clipPath>
								<g class="st16">
									<path class="st1" d="M17.5,10.8v52.8h19.3l17-29.4h43V10.8H17.5z"/>
									
										<linearGradient id="SVGID_21_" gradientUnits="userSpaceOnUse" x1="1767.0493" y1="3040.7317" x2="1776.6793" y2="3035.1018" gradientTransform="matrix(2.67 0 0 2.67 -4696.4731 -8075.4907)">
										<stop  offset="0" style="stop-color:#A52714;stop-opacity:0.6"/>
										<stop  offset="0.66" style="stop-color:#A52714;stop-opacity:0"/>
									</linearGradient>
									<path class="st17" d="M17.5,10.8v52.8h19.3l17-29.4h43V10.8H17.5z"/>
								</g>
							</g>
						</g>
						
							<radialGradient id="SVGID_22_" cx="2356.6611" cy="3040.7947" r="15.43" gradientTransform="matrix(2.67 0 0 2.67 -6232.4731 -8075.4907)" gradientUnits="userSpaceOnUse">
							<stop  offset="0" style="stop-color:#3E2723;stop-opacity:0.2"/>
							<stop  offset="1" style="stop-color:#3E2723;stop-opacity:0"/>
						</radialGradient>
						<path class="st18" d="M53.7,34.2v10.3l38.4-10.3H53.7z"/>
						<g>
							<g>
								<defs>
									<circle id="SVGID_23_" cx="53.7" cy="53.8" r="43.1"/>
								</defs>
								<clipPath id="SVGID_24_">
									<use xlink:href="#SVGID_23_"  style="overflow:visible;"/>
								</clipPath>
								<g class="st19">
									<g>
										<g>
											<defs>
												<polygon id="SVGID_25_" points="17.5,10.8 17.5,30.5 36.7,63.5 53.7,34.2 96.8,34.2 96.8,10.8 												"/>
											</defs>
											<clipPath id="SVGID_26_">
												<use xlink:href="#SVGID_25_"  style="overflow:visible;"/>
											</clipPath>
											<g class="st20">
												<path class="st6" d="M10.6,96.9h41l19-19V63.5H36.7L10.6,18.8V96.9z"/>
												
													<linearGradient id="SVGID_27_" gradientUnits="userSpaceOnUse" x1="1785.031" y1="3059.0952" x2="1774.3309" y2="3052.8352" gradientTransform="matrix(2.67 0 0 2.67 -4696.4731 -8075.4907)">
													<stop  offset="0" style="stop-color:#055524;stop-opacity:0.4"/>
													<stop  offset="0.33" style="stop-color:#055524;stop-opacity:0"/>
												</linearGradient>
												<path class="st21" d="M10.6,96.9h41l19-19V63.5H36.7L10.6,18.8V96.9z"/>
											</g>
										</g>
									</g>
									
										<radialGradient id="SVGID_28_" cx="2388.1663" cy="2941.8298" r="14.32" gradientTransform="matrix(1 0 0 -1 3.91 183.81)" gradientUnits="userSpaceOnUse">
										<stop  offset="0" style="stop-color:#3E2723;stop-opacity:0.2"/>
										<stop  offset="1" style="stop-color:#3E2723;stop-opacity:0"/>
									</radialGradient>
									<path class="st22" d="M17.5,30.6l28,28l-8.7,5L17.5,30.6z"/>
									
										<radialGradient id="SVGID_29_" cx="2357.3311" cy="3048.1646" r="16.12" gradientTransform="matrix(2.67 0 0 2.67 -6232.4731 -8075.4907)" gradientUnits="userSpaceOnUse">
										<stop  offset="0" style="stop-color:#263238;stop-opacity:0.2"/>
										<stop  offset="1" style="stop-color:#263238;stop-opacity:0"/>
									</radialGradient>
									<path class="st23" d="M51.6,96.8l10.3-38.3l8.7,5L51.6,96.8z"/>
									<g>
										<g>
											<defs>
												<circle id="SVGID_30_" cx="53.7" cy="53.8" r="43.1"/>
											</defs>
											<clipPath id="SVGID_31_">
												<use xlink:href="#SVGID_30_"  style="overflow:visible;"/>
											</clipPath>
											<g class="st24">
												<circle class="st25" cx="53.7" cy="53.8" r="19.6"/>
												<circle class="st26" cx="53.7" cy="53.8" r="15.7"/>
											</g>
										</g>
									</g>
									<g>
										<g>
											<defs>
												<circle id="SVGID_32_" cx="53.7" cy="53.8" r="43.1"/>
											</defs>
											<clipPath id="SVGID_33_">
												<use xlink:href="#SVGID_32_"  style="overflow:visible;"/>
											</clipPath>
											<g class="st27">
												<path class="st28" d="M53.7,410.8"/>
												<path class="st28" d="M53.7,410.8"/>
												<path class="st28" d="M53.7,410.8"/>
												<path class="st28" d="M53.7,410.8"/>
											</g>
										</g>
									</g>
									<g>
										<g>
											<defs>
												<circle id="SVGID_34_" cx="53.7" cy="53.8" r="43.1"/>
											</defs>
											<clipPath id="SVGID_35_">
												<use xlink:href="#SVGID_34_"  style="overflow:visible;"/>
											</clipPath>
											<g class="st29">
												<path class="st28" d="M53.7,410.8"/>
												<path class="st28" d="M53.7,410.8"/>
											</g>
										</g>
									</g>
									
										<radialGradient id="SVGID_36_" cx="1770.041" cy="3036.3945" r="32.43" gradientTransform="matrix(2.67 0 0 2.67 -4696.4727 -8075.4902)" gradientUnits="userSpaceOnUse">
										<stop  offset="0" style="stop-color:#FFFFFF;stop-opacity:0.1"/>
										<stop  offset="1" style="stop-color:#FFFFFF;stop-opacity:0"/>
									</radialGradient>
									<circle class="st30" cx="53.7" cy="53.8" r="43.1"/>
								</g>
							</g>
						</g>
						<path class="st28" d="M6.7,6.9h93.9v93.9H6.7V6.9z"/>
					</g>
				</g>
			</g>
		</g>
	</g>
</g>
<g>
	<g>
		<defs>
			<circle id="SVGID_37_" cx="53.7" cy="53.8" r="43"/>
		</defs>
		<clipPath id="SVGID_38_">
			<use xlink:href="#SVGID_37_"  style="overflow:visible;"/>
		</clipPath>
		<g class="st31">
			<rect x="10.6" y="61" class="st32" width="86.2" height="35.9"/>
		</g>
	</g>
</g>
<path class="st33" d="M53,80.1c-2.4,2.4-6.3,2.4-8.7,0c-2.3-2.5-2.3-6.3,0-8.8c2.4-2.4,6.3-2.4,8.7,0l0,0
	C55.4,73.8,55.4,77.7,53,80.1L53,80.1z M45.5,79.1c1.8,1.8,4.7,1.8,6.5,0c1.7-1.9,1.7-4.9,0-6.8c-1.8-1.8-4.7-1.8-6.4,0l0,0
	C43.7,74.3,43.7,77.2,45.5,79.1z"/>
<path class="st33" d="M60,81.9c-0.9,0-1.8-0.3-2.5-0.8c-0.8-0.5-1.4-1.4-1.6-2.3l1.4-0.6c0.2,0.6,0.5,1.2,1,1.7
	c0.5,0.4,1.1,0.7,1.7,0.7c0.6,0,1.2-0.2,1.7-0.6c0.5-0.3,0.7-0.9,0.7-1.4c0-0.6-0.2-1.2-0.7-1.5c-0.7-0.5-1.4-0.8-2.2-1
	c-0.9-0.2-1.7-0.7-2.4-1.2c-0.5-0.5-0.8-1.2-0.8-2s0.4-1.7,1-2.2c0.7-0.6,1.7-1,2.6-0.9c0.9,0,1.8,0.2,2.5,0.8c0.6,0.4,1,1,1.2,1.7
	l-1.4,0.6c-0.1-0.4-0.4-0.7-0.7-1c-0.4-0.3-1-0.5-1.5-0.5s-1.1,0.2-1.5,0.5s-0.6,0.7-0.6,1.2c0,0.4,0.2,0.9,0.6,1.1
	c0.5,0.4,1.1,0.6,1.7,0.8c0.5,0.2,1,0.3,1.5,0.5c0.4,0.2,0.8,0.4,1.2,0.7c0.4,0.3,0.7,0.7,0.9,1.1c0.2,0.5,0.3,1,0.3,1.5
	s-0.1,1.1-0.4,1.5c-0.2,0.4-0.5,0.7-0.9,1s-0.8,0.5-1.3,0.6C60.9,81.9,60.4,82,60,81.9z"/>
</svg>
