<svg xmlns="http://www.w3.org/2000/svg" xmlns:xlink="http://www.w3.org/1999/xlink" viewBox="0 0 93.95 93.95"><defs><style>.a{fill:none;}.b{clip-path:url(#a);}.c{fill:#db4437;}.d{fill:url(#b);}.e{fill:#3e2723;}.e,.h{fill-opacity:0.15;}.f{fill:#0f9d58;}.g{fill:url(#e);}.h{fill:#263238;}.i{clip-path:url(#g);}.j{fill:#ffcd40;}.k{fill:url(#h);}.l{clip-path:url(#l);}.m{fill:url(#n);}.n{clip-path:url(#p);}.o{fill:url(#r);}.p{fill:url(#s);}.q{fill:#f1f1f1;}.r{fill:#4285f4;}.s{fill:url(#w);}.t{clip-path:url(#x);}.u{fill:#424242;isolation:isolate;}.v{fill:#fff;}</style><clipPath id="a" transform="translate(3.91 3.91)"><circle class="a" cx="43.06" cy="43.06" r="43.06"/></clipPath><linearGradient id="b" x1="1707.16" y1="3072.48" x2="1716.79" y2="3066.85" gradientTransform="translate(-4547.2 -8170.97) scale(2.67)" gradientUnits="userSpaceOnUse"><stop offset="0" stop-color="#a52714" stop-opacity="0.6"/><stop offset="0.66" stop-color="#a52714" stop-opacity="0"/></linearGradient><linearGradient id="e" x1="1725.14" y1="3090.84" x2="1714.44" y2="3084.58" gradientTransform="translate(-4547.2 -8170.97) scale(2.67)" gradientUnits="userSpaceOnUse"><stop offset="0" stop-color="#055524" stop-opacity="0.4"/><stop offset="0.33" stop-color="#055524" stop-opacity="0"/></linearGradient><clipPath id="g" transform="translate(3.91 3.91)"><polygon class="a" points="0 86.12 40.99 86.12 60.02 67.1 60.02 52.85 26.11 52.85 0 8.06 0 86.12"/></clipPath><linearGradient id="h" x1="1724.8" y1="3071.73" x2="1727.49" y2="3083.53" gradientTransform="translate(-4547.2 -8170.97) scale(2.67)" gradientUnits="userSpaceOnUse"><stop offset="0" stop-color="#ea6100" stop-opacity="0.3"/><stop offset="0.66" stop-color="#ea6100" stop-opacity="0"/></linearGradient><clipPath id="l" transform="translate(3.91 3.91)"><polygon class="a" points="43.06 23.49 60.02 52.85 40.99 86.12 86.12 86.12 86.12 23.49 43.06 23.49"/></clipPath><radialGradient id="n" cx="2296.77" cy="3072.54" r="15.43" gradientTransform="translate(-6083.2 -8170.97) scale(2.67)" gradientUnits="userSpaceOnUse"><stop offset="0" stop-color="#3e2723" stop-opacity="0.2"/><stop offset="1" stop-color="#3e2723" stop-opacity="0"/></radialGradient><clipPath id="p" transform="translate(3.91 3.91)"><polygon class="a" points="6.84 0 6.84 19.74 26.11 52.85 43.06 23.49 86.12 23.49 86.12 0 6.84 0"/></clipPath><radialGradient id="r" cx="2381.44" cy="2856.74" r="14.32" gradientTransform="matrix(1, 0, 0, -1, 0, 88)" xlink:href="#n"/><radialGradient id="s" cx="2297.44" cy="3079.91" r="16.12" gradientTransform="translate(-6083.2 -8170.97) scale(2.67)" gradientUnits="userSpaceOnUse"><stop offset="0" stop-color="#263238" stop-opacity="0.2"/><stop offset="1" stop-color="#263238" stop-opacity="0"/></radialGradient><radialGradient id="w" cx="1710.15" cy="3068.14" r="32.43" gradientTransform="translate(-4543.29 -8167.06) scale(2.67)" gradientUnits="userSpaceOnUse"><stop offset="0" stop-color="#fff" stop-opacity="0.1"/><stop offset="1" stop-color="#fff" stop-opacity="0"/></radialGradient><clipPath id="x" transform="translate(3.91 3.91)"><circle class="a" cx="43.06" cy="43.07" r="43.05"/></clipPath></defs><title>chromeOS_favicon</title><g class="b"><path class="c" d="M6.84,0V52.85H26.11l17-29.36H86.12V0Z" transform="translate(3.91 3.91)"/><path class="d" d="M6.84,0V52.85H26.11l17-29.36H86.12V0Z" transform="translate(3.91 3.91)"/></g><g class="b"><path class="e" d="M26.58,52.68,7.09,19.25l-.29.49L26.15,52.92Z" transform="translate(3.91 3.91)"/></g><g class="b"><path class="f" d="M0,86.12H41l19-19V52.85H26.11L0,8.06Z" transform="translate(3.91 3.91)"/><path class="g" d="M0,86.12H41l19-19V52.85H26.11L0,8.06Z" transform="translate(3.91 3.91)"/></g><path class="h" d="M59.62,53.5l-.4-.23L40.43,86.12H41L59.64,53.51Z" transform="translate(3.91 3.91)"/><g class="b"><g class="i"><path class="j" d="M43.06,23.49,60,52.85,41,86.12H86.12V23.49Z" transform="translate(3.91 3.91)"/><path class="k" d="M43.06,23.49,60,52.85,41,86.12H86.12V23.49Z" transform="translate(3.91 3.91)"/></g><g class="b"><path class="j" d="M43.06,23.49,60,52.85,41,86.12H86.12V23.49Z" transform="translate(3.91 3.91)"/><path class="k" d="M43.06,23.49,60,52.85,41,86.12H86.12V23.49Z" transform="translate(3.91 3.91)"/></g><g class="b"><g class="l"><path class="c" d="M6.84,0V52.85H26.11l17-29.36H86.12V0Z" transform="translate(3.91 3.91)"/><path class="d" d="M6.84,0V52.85H26.11l17-29.36H86.12V0Z" transform="translate(3.91 3.91)"/></g><path class="m" d="M43.06,23.49V33.74L81.43,23.49Z" transform="translate(3.91 3.91)"/><g class="b"><g class="n"><path class="f" d="M0,86.12H41l19-19V52.85H26.11L0,8.06Z" transform="translate(3.91 3.91)"/><path class="g" d="M0,86.12H41l19-19V52.85H26.11L0,8.06Z" transform="translate(3.91 3.91)"/></g><path class="o" d="M6.84,19.79l28,28-8.74,5.05Z" transform="translate(3.91 3.91)"/><path class="p" d="M41,86.07,51.28,47.8,60,52.85Z" transform="translate(3.91 3.91)"/><g class="b"><circle class="q" cx="46.97" cy="46.97" r="19.57"/><circle class="r" cx="46.97" cy="46.97" r="15.66"/></g><g class="b"><path class="a" d="M43.06,400" transform="translate(3.91 3.91)"/><path class="a" d="M43.06,400" transform="translate(3.91 3.91)"/><path class="a" d="M43.06,400" transform="translate(3.91 3.91)"/><path class="a" d="M43.06,400" transform="translate(3.91 3.91)"/></g><g class="b"><path class="a" d="M43.06,400" transform="translate(3.91 3.91)"/><path class="a" d="M43.06,400" transform="translate(3.91 3.91)"/></g><circle class="s" cx="46.97" cy="46.97" r="43.06"/></g><path class="a" d="M-3.91-3.91H90V90H-3.91Z" transform="translate(3.91 3.91)"/></g></g><g class="t"><rect class="u" x="3.85" y="48.37" width="86.17" height="41.67"/></g><path class="v" d="M31.36,76.75a13.64,13.64,0,0,1-5.46-1.07,13.44,13.44,0,0,1-4.34-2.94,13.2,13.2,0,0,1-2.89-4.4,14.75,14.75,0,0,1,0-10.83,13.53,13.53,0,0,1,7.23-7.36,14.41,14.41,0,0,1,10.9,0,13.51,13.51,0,0,1,4.37,3,13.76,13.76,0,0,1,2.88,4.4,14.62,14.62,0,0,1,0,10.83,13.28,13.28,0,0,1-7.25,7.34A13.65,13.65,0,0,1,31.36,76.75Zm0-4a9.74,9.74,0,0,0,3.7-.7,8.9,8.9,0,0,0,3-2,9.37,9.37,0,0,0,2-3.11,11.37,11.37,0,0,0,0-8.07,9.43,9.43,0,0,0-2-3.1,8.76,8.76,0,0,0-3-2,10.13,10.13,0,0,0-7.4,0,8.72,8.72,0,0,0-3,2,9.45,9.45,0,0,0-2,3.1,11.37,11.37,0,0,0,0,8.07,9.4,9.4,0,0,0,2,3.11,8.86,8.86,0,0,0,3,2A9.74,9.74,0,0,0,31.36,72.76Z" transform="translate(3.91 3.91)"/><path class="v" d="M56.19,76.75a10.37,10.37,0,0,1-3.09-.46,9.64,9.64,0,0,1-2.78-1.38,9.77,9.77,0,0,1-2.23-2.3,10.13,10.13,0,0,1-1.48-3.18l4-1.63a8,8,0,0,0,.76,1.94,6.17,6.17,0,0,0,1.22,1.58,5.69,5.69,0,0,0,1.63,1.05,5.05,5.05,0,0,0,2,.39A6.52,6.52,0,0,0,58,72.52a4.35,4.35,0,0,0,1.48-.72,3.78,3.78,0,0,0,1-1.19A3.29,3.29,0,0,0,60.89,69a3.43,3.43,0,0,0-1.22-2.71,7.29,7.29,0,0,0-1.67-1c-.69-.33-1.52-.67-2.48-1l-1.66-.59a14.45,14.45,0,0,1-2.2-1,9.42,9.42,0,0,1-2-1.48,7.13,7.13,0,0,1-1.48-2,6.36,6.36,0,0,1-.57-2.78,6.46,6.46,0,0,1,.61-2.79,7.06,7.06,0,0,1,1.72-2.32,8.45,8.45,0,0,1,2.64-1.57,10.63,10.63,0,0,1,6.78,0A8.25,8.25,0,0,1,61.78,51a7.49,7.49,0,0,1,1.61,1.79,9.91,9.91,0,0,1,.9,1.83l-3.77,1.59A5.78,5.78,0,0,0,60,55.05a3.92,3.92,0,0,0-.9-1,4.93,4.93,0,0,0-1.32-.74A4.73,4.73,0,0,0,56,53a5.6,5.6,0,0,0-1.66.24,4.1,4.1,0,0,0-1.35.69,3.42,3.42,0,0,0-.91,1,2.64,2.64,0,0,0-.33,1.3,2.72,2.72,0,0,0,1.16,2.27,12.9,12.9,0,0,0,3.43,1.65l1.66.59A17.7,17.7,0,0,1,60.85,62a9.4,9.4,0,0,1,2.26,1.69A7.13,7.13,0,0,1,64.61,66a7.92,7.92,0,0,1,.53,3,7,7,0,0,1-.83,3.53,7.81,7.81,0,0,1-2.13,2.43,8.77,8.77,0,0,1-2.88,1.4A11.39,11.39,0,0,1,56.19,76.75Z" transform="translate(3.91 3.91)"/></svg>