<?xml version="1.0" encoding="UTF-8"?>
<svg xmlns="http://www.w3.org/2000/svg" viewBox="0 0 1600 732"><defs><style>.cls-1{fill:#ffba00;}.cls-2,.cls-4{opacity:0.37;}.cls-3,.cls-4{fill:#bdc1c6;}.cls-5{fill:#cdcdcd;}.cls-11,.cls-6{fill:#fff;}.cls-7{fill:#9ba1a6;}.cls-8{fill:#fe2c25;}.cls-9{fill:none;stroke:#f0f0f0;stroke-width:3.07px;}.cls-11,.cls-9{stroke-miterlimit:10;}.cls-10{fill:#a8cbfe;opacity:0.4;}.cls-11{stroke:#bdc1c6;stroke-width:5.29px;}.cls-12,.cls-17{fill:#00a748;}.cls-13{font-size:93.14px;}.cls-13,.cls-17{font-family:GoogleSans-Bold, Google Sans;font-weight:700;}.cls-14{letter-spacing:-0.03em;}.cls-15{letter-spacing:-0.02em;}.cls-16{letter-spacing:-0.03em;}.cls-17{font-size:36.97px;}.cls-18{letter-spacing:-0.02em;}.cls-19{letter-spacing:-0.01em;}.cls-20{letter-spacing:-0.02em;}</style></defs><path class="cls-1" d="M359.62,398.07,410,458.21a5.94,5.94,0,0,1-1.56,9A45.85,45.85,0,0,1,350.51,398,6,6,0,0,1,359.62,398.07Z"/><g class="cls-2"><circle class="cls-3" cx="1200.35" cy="328.59" r="7.95"/><circle class="cls-3" cx="1243.5" cy="328.59" r="7.95"/><circle class="cls-3" cx="1286.65" cy="328.59" r="7.95"/><circle class="cls-3" cx="1329.8" cy="328.59" r="7.95"/><circle class="cls-3" cx="1372.95" cy="328.59" r="7.95"/><circle class="cls-3" cx="1416.1" cy="328.59" r="7.95"/><circle class="cls-3" cx="1459.25" cy="328.59" r="7.95"/><circle class="cls-3" cx="1200.35" cy="372.88" r="7.95"/><circle class="cls-3" cx="1243.5" cy="372.88" r="7.95"/><circle class="cls-3" cx="1286.65" cy="372.88" r="7.95"/><circle class="cls-3" cx="1329.8" cy="372.88" r="7.95"/><circle class="cls-3" cx="1372.95" cy="372.88" r="7.95"/><circle class="cls-3" cx="1416.1" cy="372.88" r="7.95"/><circle class="cls-3" cx="1459.25" cy="372.88" r="7.95"/><circle class="cls-3" cx="1200.35" cy="417.16" r="7.95"/><circle class="cls-3" cx="1243.5" cy="417.16" r="7.95"/><circle class="cls-3" cx="1286.65" cy="417.16" r="7.95"/><circle class="cls-3" cx="1329.8" cy="417.16" r="7.95"/><circle class="cls-3" cx="1372.95" cy="417.16" r="7.95"/><circle class="cls-3" cx="1416.1" cy="417.16" r="7.95"/><circle class="cls-3" cx="1459.25" cy="417.16" r="7.95"/><circle class="cls-3" cx="1200.35" cy="461.45" r="7.95"/><circle class="cls-3" cx="1243.5" cy="461.45" r="7.95"/><circle class="cls-3" cx="1286.65" cy="461.45" r="7.95"/><circle class="cls-3" cx="1329.8" cy="461.45" r="7.95"/><circle class="cls-3" cx="1372.95" cy="461.45" r="7.95"/><circle class="cls-3" cx="1416.1" cy="461.45" r="7.95"/><circle class="cls-3" cx="1459.25" cy="461.45" r="7.95"/></g><g class="cls-2"><circle class="cls-3" cx="1501.56" cy="328.59" r="7.95"/><circle class="cls-3" cx="1544.71" cy="328.59" r="7.95"/><circle class="cls-3" cx="1587.86" cy="328.59" r="7.95"/><circle class="cls-3" cx="1501.56" cy="372.88" r="7.95"/><circle class="cls-3" cx="1544.71" cy="372.88" r="7.95"/><circle class="cls-3" cx="1587.86" cy="372.88" r="7.95"/><circle class="cls-3" cx="1501.56" cy="417.16" r="7.95"/><circle class="cls-3" cx="1544.71" cy="417.16" r="7.95"/><circle class="cls-3" cx="1587.86" cy="417.16" r="7.95"/><circle class="cls-3" cx="1501.56" cy="461.45" r="7.95"/><circle class="cls-3" cx="1544.71" cy="461.45" r="7.95"/><circle class="cls-3" cx="1587.86" cy="461.45" r="7.95"/></g><rect class="cls-4" y="616.58" width="1600" height="125.82"/><path class="cls-5" d="M420.11,96.12h771.53a26.15,26.15,0,0,1,26.15,26.15V593.15a0,0,0,0,1,0,0H394a0,0,0,0,1,0,0V122.27A26.15,26.15,0,0,1,420.11,96.12Z"/><path class="cls-3" d="M326.91,591.37h940.6a0,0,0,0,1,0,0v12.29a25.74,25.74,0,0,1-25.74,25.74H352.66a25.74,25.74,0,0,1-25.74-25.74V591.37a0,0,0,0,1,0,0Z"/><rect class="cls-6" x="421.53" y="128.99" width="768.68" height="446.46" rx="10.48"/><rect class="cls-7" x="681.42" y="591.37" width="231.6" height="5.65"/><g class="cls-2"><circle class="cls-3" cx="29.22" cy="303.95" r="7.95"/><circle class="cls-3" cx="72.37" cy="303.95" r="7.95"/><circle class="cls-3" cx="115.52" cy="303.95" r="7.95"/><circle class="cls-3" cx="158.66" cy="303.95" r="7.95"/><circle class="cls-3" cx="201.81" cy="303.95" r="7.95"/><circle class="cls-3" cx="244.96" cy="303.95" r="7.95"/><circle class="cls-3" cx="29.22" cy="348.24" r="7.95"/><circle class="cls-3" cx="72.37" cy="348.24" r="7.95"/><circle class="cls-3" cx="115.52" cy="348.24" r="7.95"/><circle class="cls-3" cx="158.66" cy="348.24" r="7.95"/><circle class="cls-3" cx="201.81" cy="348.24" r="7.95"/><circle class="cls-3" cx="244.96" cy="348.24" r="7.95"/><circle class="cls-3" cx="29.22" cy="392.52" r="7.95"/><circle class="cls-3" cx="72.37" cy="392.52" r="7.95"/><circle class="cls-3" cx="115.52" cy="392.52" r="7.95"/><circle class="cls-3" cx="158.66" cy="392.52" r="7.95"/><circle class="cls-3" cx="201.81" cy="392.52" r="7.95"/><circle class="cls-3" cx="244.96" cy="392.52" r="7.95"/><circle class="cls-3" cx="29.22" cy="436.81" r="7.95"/><circle class="cls-3" cx="72.37" cy="436.81" r="7.95"/><circle class="cls-3" cx="115.52" cy="436.81" r="7.95"/><circle class="cls-3" cx="158.66" cy="436.81" r="7.95"/><circle class="cls-3" cx="201.81" cy="436.81" r="7.95"/><circle class="cls-3" cx="244.96" cy="436.81" r="7.95"/></g><g class="cls-2"><circle class="cls-3" cx="29.22" cy="129.89" r="7.95"/><circle class="cls-3" cx="72.37" cy="129.89" r="7.95"/><circle class="cls-3" cx="115.52" cy="129.89" r="7.95"/><circle class="cls-3" cx="158.66" cy="129.89" r="7.95"/><circle class="cls-3" cx="201.81" cy="129.89" r="7.95"/><circle class="cls-3" cx="244.96" cy="129.89" r="7.95"/><circle class="cls-3" cx="29.22" cy="174.17" r="7.95"/><circle class="cls-3" cx="72.37" cy="174.17" r="7.95"/><circle class="cls-3" cx="115.52" cy="174.17" r="7.95"/><circle class="cls-3" cx="158.66" cy="174.17" r="7.95"/><circle class="cls-3" cx="201.81" cy="174.17" r="7.95"/><circle class="cls-3" cx="244.96" cy="174.17" r="7.95"/><circle class="cls-3" cx="29.22" cy="218.46" r="7.95"/><circle class="cls-3" cx="72.37" cy="218.46" r="7.95"/><circle class="cls-3" cx="115.52" cy="218.46" r="7.95"/><circle class="cls-3" cx="158.66" cy="218.46" r="7.95"/><circle class="cls-3" cx="201.81" cy="218.46" r="7.95"/><circle class="cls-3" cx="244.96" cy="218.46" r="7.95"/><circle class="cls-3" cx="29.22" cy="262.74" r="7.95"/><circle class="cls-3" cx="72.37" cy="262.74" r="7.95"/><circle class="cls-3" cx="115.52" cy="262.74" r="7.95"/><circle class="cls-3" cx="158.66" cy="262.74" r="7.95"/><circle class="cls-3" cx="201.81" cy="262.74" r="7.95"/><circle class="cls-3" cx="244.96" cy="262.74" r="7.95"/></g><rect class="cls-8" x="1211.46" y="134.14" width="39.01" height="39.01" rx="8.09" transform="translate(469.18 -825.42) rotate(45)"/><circle class="cls-9" cx="297.26" cy="497.42" r="21.37"/><circle class="cls-9" cx="1325.44" cy="533.38" r="21.37"/><path class="cls-10" d="M1364.64,236.91l-4-1.64a2.73,2.73,0,0,1,.06-5.08l4-1.54a2.74,2.74,0,0,0,1.68-3.23l-2-7.65a2.73,2.73,0,0,0-3-2l-4.24.55a2.73,2.73,0,0,1-2.48-4.43l2.69-3.33a2.73,2.73,0,0,0-.17-3.63l-5.51-5.66a2.75,2.75,0,0,0-3.63-.26l-3.39,2.6a2.74,2.74,0,0,1-4.37-2.6l.67-4.22a2.73,2.73,0,0,0-2-3.06l-7.6-2.15a2.74,2.74,0,0,0-3.27,1.59l-1.64,4a2.74,2.74,0,0,1-5.09-.07l-1.53-4a2.75,2.75,0,0,0-3.23-1.67l-7.65,1.94a2.74,2.74,0,0,0-2,3l.56,4.24a2.74,2.74,0,0,1-4.44,2.48l-3.32-2.68a2.72,2.72,0,0,0-3.63.16l-5.66,5.51a2.74,2.74,0,0,0-.26,3.63l2.6,3.39a2.74,2.74,0,0,1-2.6,4.37l-4.22-.66a2.74,2.74,0,0,0-3.07,2l-2.14,7.6a2.74,2.74,0,0,0,1.59,3.27l3.94,1.64a2.73,2.73,0,0,1-.06,5.08l-4,1.54a2.72,2.72,0,0,0-1.67,3.22l1.94,7.66a2.74,2.74,0,0,0,3,2l4.24-.56a2.74,2.74,0,0,1,2.48,4.44l-2.69,3.32a2.75,2.75,0,0,0,.17,3.64l5.51,5.65a2.74,2.74,0,0,0,3.63.27l3.39-2.6a2.74,2.74,0,0,1,4.37,2.6l-.67,4.22a2.75,2.75,0,0,0,2,3.06l7.61,2.14a2.73,2.73,0,0,0,3.27-1.58l1.64-4a2.74,2.74,0,0,1,5.08.07l1.53,4a2.75,2.75,0,0,0,3.23,1.67l7.66-1.95a2.73,2.73,0,0,0,2-3l-.56-4.24a2.74,2.74,0,0,1,4.44-2.49l3.32,2.69a2.73,2.73,0,0,0,3.63-.17l5.66-5.51a2.73,2.73,0,0,0,.26-3.62l-2.6-3.4a2.74,2.74,0,0,1,2.6-4.37l4.23.67a2.73,2.73,0,0,0,3.06-2l2.14-7.6A2.73,2.73,0,0,0,1364.64,236.91Zm-41.11,15.48a20.15,20.15,0,1,1,20.15-20.15A20.16,20.16,0,0,1,1323.53,252.39Z"/><circle class="cls-1" cx="1464.33" cy="130.94" r="12.11"/><circle class="cls-10" cx="239.09" cy="555.84" r="12.11"/><circle class="cls-11" cx="406.11" cy="251.98" r="85.73"/><rect class="cls-12" x="609.69" y="208.4" width="97.05" height="367.64"/><rect class="cls-3" x="488.72" y="331.2" width="97.05" height="244.85"/><path d="M760.53,383.43a16.21,16.21,0,0,1-6.11-6.16,18.24,18.24,0,0,1,0-17.44,16.21,16.21,0,0,1,6.11-6.16,17,17,0,0,1,8.66-2.25,15.93,15.93,0,0,1,6.71,1.4,15.63,15.63,0,0,1,5.29,4l-2.8,2.7a12.24,12.24,0,0,0-4.1-3.29,11.65,11.65,0,0,0-5.1-1.06,13.19,13.19,0,0,0-6.55,1.67,12.42,12.42,0,0,0-4.74,4.72,14.92,14.92,0,0,0,0,14.06,12.42,12.42,0,0,0,4.74,4.72,13.19,13.19,0,0,0,6.55,1.67,12.85,12.85,0,0,0,10.12-4.9l2.84,2.75a16.75,16.75,0,0,1-5.63,4.28,17.79,17.79,0,0,1-16-.67Z"/><path d="M785.72,352.15h3.9v9.67l-.19,3.2h.19a7.57,7.57,0,0,1,3-3,9,9,0,0,1,4.56-1.19,8.3,8.3,0,0,1,6.5,2.49A9.52,9.52,0,0,1,806,370v15h-3.9V370.56a6.15,6.15,0,0,0-1.6-4.67,5.87,5.87,0,0,0-4.17-1.51,5.65,5.65,0,0,0-3.36,1.1,7.7,7.7,0,0,0-2.43,2.84,7.78,7.78,0,0,0-.89,3.62v13h-3.9Z"/><path d="M810.94,361.59h3.71v3.75h.18a6.33,6.33,0,0,1,2.66-3.2,7.37,7.37,0,0,1,4.12-1.28,6.76,6.76,0,0,1,2.75.5v4.17a7.28,7.28,0,0,0-3.3-.74,5.48,5.48,0,0,0-3.12,1,7,7,0,0,0-2.26,2.59,7.46,7.46,0,0,0-.85,3.51v13.08h-3.89Z"/><path d="M831.39,384a11.62,11.62,0,0,1-4.28-4.49,13.63,13.63,0,0,1,0-12.55,11.62,11.62,0,0,1,4.28-4.49,12.48,12.48,0,0,1,12.37,0A11.55,11.55,0,0,1,848,367a13.63,13.63,0,0,1,0,12.55,11.55,11.55,0,0,1-4.28,4.49,12.42,12.42,0,0,1-12.37,0Zm10.19-3a7.85,7.85,0,0,0,3-3.09,10.48,10.48,0,0,0,0-9.43,8,8,0,0,0-3-3.09,7.8,7.8,0,0,0-4-1.08,8,8,0,0,0-7,4.17,10.48,10.48,0,0,0,0,9.43,7.77,7.77,0,0,0,3,3.09,7.93,7.93,0,0,0,4,1.08A7.8,7.8,0,0,0,841.58,381.07Z"/><path d="M853.47,361.59h3.71V365h.18a8.08,8.08,0,0,1,3-3,8.17,8.17,0,0,1,4.26-1.19,8,8,0,0,1,4.46,1.23,7,7,0,0,1,2.73,3.3,9.56,9.56,0,0,1,3.27-3.3,9,9,0,0,1,4.74-1.23c2.69,0,4.71.81,6.07,2.45a10.08,10.08,0,0,1,2,6.66v15h-3.85V370.56c0-2.16-.44-3.74-1.33-4.71a5,5,0,0,0-3.94-1.47,5.36,5.36,0,0,0-3.16,1,6.88,6.88,0,0,0-2.22,2.7,8.53,8.53,0,0,0-.8,3.67v13.18h-3.89V370.61c0-2.2-.45-3.79-1.33-4.76a5,5,0,0,0-3.89-1.47,5.29,5.29,0,0,0-3.16,1,6.94,6.94,0,0,0-2.22,2.75,8.54,8.54,0,0,0-.81,3.69v13.09h-3.89Z"/><path d="M897.34,384.07a11,11,0,0,1-4.14-4.42,13.36,13.36,0,0,1-1.49-6.34,14,14,0,0,1,1.4-6.23,11.3,11.3,0,0,1,4-4.53,10.53,10.53,0,0,1,5.95-1.69,11.21,11.21,0,0,1,6,1.53,10.2,10.2,0,0,1,3.88,4.24,13.77,13.77,0,0,1,1.35,6.18,4.63,4.63,0,0,1-.14,1.19H895.6a9.16,9.16,0,0,0,1.29,4.49,7.45,7.45,0,0,0,2.9,2.74,7.82,7.82,0,0,0,3.69.92,7.58,7.58,0,0,0,6.91-4.21l3.3,1.6a11.78,11.78,0,0,1-4.1,4.49,12.32,12.32,0,0,1-12.25,0Zm12.73-13.28a7.57,7.57,0,0,0-.82-2.93,6.32,6.32,0,0,0-2.31-2.47,7.28,7.28,0,0,0-4-1,6.55,6.55,0,0,0-4.65,1.77,8.46,8.46,0,0,0-2.5,4.64Z"/><path d="M925.17,384.46a8.63,8.63,0,0,1-3.19-2.95h-.18v3.43h-3.71V352.15H922v9.67l-.18,3.25H922a8.5,8.5,0,0,1,3.19-3,9.46,9.46,0,0,1,4.78-1.21,10.48,10.48,0,0,1,5.68,1.6,11.18,11.18,0,0,1,4,4.44,14.56,14.56,0,0,1,0,12.75,11.12,11.12,0,0,1-4,4.42,10.49,10.49,0,0,1-5.68,1.61A9.47,9.47,0,0,1,925.17,384.46Zm8.13-3.41a7.93,7.93,0,0,0,2.86-3.14,10.62,10.62,0,0,0,0-9.29,7.93,7.93,0,0,0-2.86-3.14,7.13,7.13,0,0,0-7.61,0,7.82,7.82,0,0,0-2.84,3.12,10.91,10.91,0,0,0,0,9.34,7.86,7.86,0,0,0,2.84,3.11,7.13,7.13,0,0,0,7.61,0Z"/><path d="M949.62,384a11.55,11.55,0,0,1-4.28-4.49,13.63,13.63,0,0,1,0-12.55,11.55,11.55,0,0,1,4.28-4.49,12.48,12.48,0,0,1,12.37,0,11.62,11.62,0,0,1,4.28,4.49,13.63,13.63,0,0,1,0,12.55A11.62,11.62,0,0,1,962,384a12.42,12.42,0,0,1-12.37,0Zm10.19-3a7.85,7.85,0,0,0,3-3.09,10.48,10.48,0,0,0,0-9.43,8,8,0,0,0-3-3.09,7.83,7.83,0,0,0-4-1.08,8,8,0,0,0-7,4.17,10.48,10.48,0,0,0,0,9.43,7.83,7.83,0,0,0,3,3.09,8,8,0,0,0,4,1.08A7.83,7.83,0,0,0,959.81,381.07Z"/><path d="M976.27,384a11.55,11.55,0,0,1-4.28-4.49A13.63,13.63,0,0,1,972,367a11.55,11.55,0,0,1,4.28-4.49,12.48,12.48,0,0,1,12.37,0,11.55,11.55,0,0,1,4.28,4.49,13.63,13.63,0,0,1,0,12.55,11.55,11.55,0,0,1-4.28,4.49,12.42,12.42,0,0,1-12.37,0Zm10.19-3a7.85,7.85,0,0,0,3-3.09,10.48,10.48,0,0,0,0-9.43,8,8,0,0,0-3-3.09,7.8,7.8,0,0,0-4-1.08,7.93,7.93,0,0,0-4,1.08,7.83,7.83,0,0,0-3,3.09,10.4,10.4,0,0,0,0,9.43,7.7,7.7,0,0,0,3,3.09,7.93,7.93,0,0,0,4,1.08A7.8,7.8,0,0,0,986.46,381.07Z"/><path d="M998.35,352.15h3.89v20.61l11-11.17h4.95v.18L1009,371l9.38,13.74v.18h-4.62l-7.51-11.22-4,4v7.19h-3.89Z"/><path d="M1033.77,383.2a10,10,0,0,1-2.22-6.91v-14.7h3.89v14.1c0,2.23.5,3.87,1.51,4.9a5.42,5.42,0,0,0,4.08,1.56,6,6,0,0,0,3.5-1,7.12,7.12,0,0,0,2.38-2.75,7.82,7.82,0,0,0,.85-3.57V361.59h3.89v23.35h-3.71v-3.38h-.18a7.77,7.77,0,0,1-3.07,2.93,9,9,0,0,1-4.49,1.19A8.19,8.19,0,0,1,1033.77,383.2Z"/><path d="M1058.68,383.91a9.66,9.66,0,0,1-3.58-4.51l3.48-1.55a7.08,7.08,0,0,0,2.59,3.25,6.72,6.72,0,0,0,3.78,1.14,7.46,7.46,0,0,0,3.75-.89,2.79,2.79,0,0,0,1.56-2.54,2.76,2.76,0,0,0-1.24-2.36,11.34,11.34,0,0,0-3.89-1.54l-2.84-.73a10.21,10.21,0,0,1-4.58-2.33,5.91,5.91,0,0,1-.57-7.81,7.83,7.83,0,0,1,3.23-2.36,11.34,11.34,0,0,1,4.35-.82,11.15,11.15,0,0,1,5.47,1.32,7.52,7.52,0,0,1,3.41,3.71l-3.38,1.56c-1-2.08-2.89-3.11-5.55-3.11a6.2,6.2,0,0,0-3.36.89,2.62,2.62,0,0,0-1.44,2.27,2.53,2.53,0,0,0,1,2.08,8.14,8.14,0,0,0,3,1.31l3.38.87a11.19,11.19,0,0,1,5.18,2.58,5.67,5.67,0,0,1,1.74,4.19,6,6,0,0,1-1.24,3.78,7.81,7.81,0,0,1-3.34,2.5,12.1,12.1,0,0,1-4.67.87A10.62,10.62,0,0,1,1058.68,383.91Z"/><path d="M1082.14,384.07a11,11,0,0,1-4.14-4.42,13.25,13.25,0,0,1-1.49-6.34,14,14,0,0,1,1.39-6.23,11.4,11.4,0,0,1,4-4.53,10.51,10.51,0,0,1,6-1.69,11.23,11.23,0,0,1,6,1.53,10.12,10.12,0,0,1,3.87,4.24,13.64,13.64,0,0,1,1.35,6.18,4.22,4.22,0,0,1-.14,1.19H1080.4a9.26,9.26,0,0,0,1.28,4.49,7.41,7.41,0,0,0,2.91,2.74,7.79,7.79,0,0,0,3.69.92,7.59,7.59,0,0,0,6.91-4.21l3.3,1.6a11.86,11.86,0,0,1-4.1,4.49,12.32,12.32,0,0,1-12.25,0Zm12.73-13.28a7.75,7.75,0,0,0-.82-2.93,6.27,6.27,0,0,0-2.32-2.47,7.23,7.23,0,0,0-4-1,6.58,6.58,0,0,0-4.65,1.77,8.51,8.51,0,0,0-2.49,4.64Z"/><path d="M1102.89,361.59h3.71v3.75h.18a6.33,6.33,0,0,1,2.66-3.2,7.37,7.37,0,0,1,4.12-1.28,6.76,6.76,0,0,1,2.75.5v4.17a7.28,7.28,0,0,0-3.3-.74,5.48,5.48,0,0,0-3.12,1,7,7,0,0,0-2.26,2.59,7.46,7.46,0,0,0-.85,3.51v13.08h-3.89Z"/><path d="M1121.44,383.91a9.58,9.58,0,0,1-3.57-4.51l3.48-1.55a7,7,0,0,0,2.59,3.25,6.66,6.66,0,0,0,3.77,1.14,7.5,7.5,0,0,0,3.76-.89,2.86,2.86,0,0,0,.32-4.9,11.34,11.34,0,0,0-3.89-1.54l-2.84-.73a10.16,10.16,0,0,1-4.58-2.33,5.88,5.88,0,0,1-.57-7.81,7.73,7.73,0,0,1,3.22-2.36,11.42,11.42,0,0,1,4.35-.82,11.22,11.22,0,0,1,5.48,1.32,7.56,7.56,0,0,1,3.41,3.71l-3.39,1.56c-1-2.08-2.88-3.11-5.54-3.11a6.24,6.24,0,0,0-3.37.89,2.62,2.62,0,0,0-1.44,2.27,2.54,2.54,0,0,0,1,2.08,8.15,8.15,0,0,0,3,1.31l3.39.87a11.15,11.15,0,0,1,5.17,2.58,5.67,5.67,0,0,1,1.74,4.19,6.08,6.08,0,0,1-1.23,3.78,7.87,7.87,0,0,1-3.34,2.5,12.19,12.19,0,0,1-4.68.87A10.64,10.64,0,0,1,1121.44,383.91Z"/><path d="M757.42,439a11.26,11.26,0,0,1-4.15-4.42,13.38,13.38,0,0,1-1.48-6.34,13.92,13.92,0,0,1,1.39-6.23,11.26,11.26,0,0,1,4-4.54,10.57,10.57,0,0,1,6-1.69,11.23,11.23,0,0,1,5.95,1.53,10.24,10.24,0,0,1,3.87,4.24,13.64,13.64,0,0,1,1.35,6.18,4.57,4.57,0,0,1-.14,1.19H755.68a9.26,9.26,0,0,0,1.28,4.49,7.44,7.44,0,0,0,2.91,2.75,7.87,7.87,0,0,0,3.69.91,7.59,7.59,0,0,0,6.91-4.21l3.3,1.6a11.78,11.78,0,0,1-4.1,4.49,12.35,12.35,0,0,1-12.25,0Zm12.73-13.28a7.5,7.5,0,0,0-.83-2.93,6.13,6.13,0,0,0-2.31-2.48,7.23,7.23,0,0,0-4-1,6.57,6.57,0,0,0-4.65,1.76,8.44,8.44,0,0,0-2.49,4.65Z"/><path d="M778.17,416.54h3.71V420h.18a7.83,7.83,0,0,1,3.07-3,8.82,8.82,0,0,1,4.49-1.21,8.24,8.24,0,0,1,6.43,2.45,9.54,9.54,0,0,1,2.22,6.66v15h-3.89V425.52q0-3.25-1.56-4.72a6,6,0,0,0-4.26-1.46,5.68,5.68,0,0,0-3.36,1.05,7,7,0,0,0-2.32,2.77,8.31,8.31,0,0,0-.82,3.59V439.9h-3.89Z"/><path d="M806.72,448.6a9.37,9.37,0,0,1-3.59-4.63l3.52-1.51a7,7,0,0,0,2.59,3.28,7.35,7.35,0,0,0,4.28,1.26,7.56,7.56,0,0,0,5.61-2,7.87,7.87,0,0,0,2-5.77V436.6h-.18a8.55,8.55,0,0,1-3.23,2.91,9.82,9.82,0,0,1-4.74,1.12,10.25,10.25,0,0,1-5.52-1.57,11.21,11.21,0,0,1-4-4.4,14.87,14.87,0,0,1,0-12.85,11.16,11.16,0,0,1,4-4.43,10.16,10.16,0,0,1,5.52-1.57,9.82,9.82,0,0,1,4.74,1.12,8.4,8.4,0,0,1,3.23,2.95h.18v-3.34h3.71V439q0,5.64-3.11,8.59a12.93,12.93,0,0,1-15,1ZM817.34,436a7.56,7.56,0,0,0,2.75-3.07,10.17,10.17,0,0,0,1-4.74,10.3,10.3,0,0,0-1-4.79,7.5,7.5,0,0,0-2.75-3.05,7.16,7.16,0,0,0-3.82-1,7.24,7.24,0,0,0-3.85,1.06,7.62,7.62,0,0,0-2.77,3.08,10.29,10.29,0,0,0-1,4.74,10.48,10.48,0,0,0,1,4.77,7.41,7.41,0,0,0,2.77,3.07,7.32,7.32,0,0,0,3.85,1A7,7,0,0,0,817.34,436Z"/><path d="M832.85,439.62a7.32,7.32,0,0,1-4.22-6.78,6.8,6.8,0,0,1,2.8-5.79,11.45,11.45,0,0,1,7.05-2.08,15.64,15.64,0,0,1,3.91.46,9.8,9.8,0,0,1,2.77,1.05v-1.42a5.26,5.26,0,0,0-1.83-4.19,6.83,6.83,0,0,0-4.62-1.58,7.73,7.73,0,0,0-3.62.85,6.6,6.6,0,0,0-2.61,2.35l-2.93-2.19a9.22,9.22,0,0,1,3.78-3.3,11.89,11.89,0,0,1,5.33-1.19,10.64,10.64,0,0,1,7.49,2.5,8.78,8.78,0,0,1,2.72,6.8V439.9h-3.71v-3.35H845a8.33,8.33,0,0,1-3,2.89,8.82,8.82,0,0,1-4.54,1.19A10.07,10.07,0,0,1,832.85,439.62Zm8.6-3.43a7.7,7.7,0,0,0,2.71-2.7,7.15,7.15,0,0,0,1-3.71,9.36,9.36,0,0,0-2.7-1.19,12.12,12.12,0,0,0-3.39-.46,7.48,7.48,0,0,0-4.83,1.33,4.23,4.23,0,0,0-1.62,3.43,3.8,3.8,0,0,0,1.46,3.11,5.66,5.66,0,0,0,3.71,1.19A7,7,0,0,0,841.45,436.19Z"/><path d="M857.21,448.6a9.42,9.42,0,0,1-3.59-4.63l3.52-1.51a7,7,0,0,0,2.59,3.28A7.37,7.37,0,0,0,864,447a7.56,7.56,0,0,0,5.61-2,7.87,7.87,0,0,0,2-5.77V436.6h-.18a8.55,8.55,0,0,1-3.23,2.91,9.82,9.82,0,0,1-4.74,1.12,10.25,10.25,0,0,1-5.52-1.57,11.21,11.21,0,0,1-4-4.4,14.87,14.87,0,0,1,0-12.85,11.16,11.16,0,0,1,4-4.43,10.16,10.16,0,0,1,5.52-1.57,9.82,9.82,0,0,1,4.74,1.12,8.4,8.4,0,0,1,3.23,2.95h.18v-3.34h3.71V439c0,3.76-1,6.62-3.11,8.59a12.93,12.93,0,0,1-15,1ZM867.84,436a7.54,7.54,0,0,0,2.74-3.07,10.17,10.17,0,0,0,1-4.74,10.3,10.3,0,0,0-1-4.79,7.48,7.48,0,0,0-2.74-3.05,7.53,7.53,0,0,0-7.67,0,7.65,7.65,0,0,0-2.78,3.08,10.29,10.29,0,0,0-1,4.74,10.48,10.48,0,0,0,1,4.77,7.43,7.43,0,0,0,2.78,3.07,7.28,7.28,0,0,0,3.84,1A7,7,0,0,0,867.84,436Z"/><path d="M880.63,411.46a2.7,2.7,0,0,1-.83-2,2.64,2.64,0,0,1,.83-1.95,2.81,2.81,0,0,1,3.93,0,2.64,2.64,0,0,1,.83,1.95,2.75,2.75,0,0,1-.8,2,2.8,2.8,0,0,1-4,0Zm0,5.08h3.85V439.9h-3.85Z"/><path d="M889.8,416.54h3.71V420h.19a7.87,7.87,0,0,1,3.06-3,8.85,8.85,0,0,1,4.49-1.21,8.26,8.26,0,0,1,6.44,2.45,9.54,9.54,0,0,1,2.22,6.66v15H906V425.52q0-3.25-1.56-4.72a6,6,0,0,0-4.26-1.46,5.71,5.71,0,0,0-3.37,1.05,7,7,0,0,0-2.31,2.77,8.17,8.17,0,0,0-.82,3.59V439.9h-3.9Z"/><path d="M918.36,448.6a9.39,9.39,0,0,1-3.6-4.63l3.53-1.51a7,7,0,0,0,2.58,3.28,7.41,7.41,0,0,0,4.29,1.26,7.56,7.56,0,0,0,5.61-2,7.91,7.91,0,0,0,2-5.77V436.6h-.19a8.59,8.59,0,0,1-3.22,2.91,9.82,9.82,0,0,1-4.74,1.12,10.2,10.2,0,0,1-5.52-1.57,11.06,11.06,0,0,1-4-4.4,14.78,14.78,0,0,1,0-12.85,11,11,0,0,1,4-4.43,10.11,10.11,0,0,1,5.52-1.57,9.82,9.82,0,0,1,4.74,1.12,8.44,8.44,0,0,1,3.22,2.95h.19v-3.34h3.71V439q0,5.64-3.12,8.59a12.91,12.91,0,0,1-15,1ZM929,436a7.63,7.63,0,0,0,2.75-3.07,10.29,10.29,0,0,0,1-4.74,10.42,10.42,0,0,0-1-4.79,7.57,7.57,0,0,0-2.75-3.05,7.53,7.53,0,0,0-7.67,0,7.62,7.62,0,0,0-2.77,3.08,10.17,10.17,0,0,0-1,4.74,10.35,10.35,0,0,0,1,4.77,7.41,7.41,0,0,0,2.77,3.07,7.29,7.29,0,0,0,3.85,1A7,7,0,0,0,929,436Z"/><path d="M949.93,416.54h4L959.5,435h0l5.86-18.46h4L975.35,435h0l5.54-18.41h3.94l-7.55,23.36h-3.94l-6-18.64-6,18.64h-3.89Z"/><path d="M987.63,411.46a2.69,2.69,0,0,1-.82-2,2.63,2.63,0,0,1,.82-1.95,2.83,2.83,0,0,1,3.94,0,2.64,2.64,0,0,1,.83,1.95,2.72,2.72,0,0,1-.81,2,2.64,2.64,0,0,1-2,.82A2.69,2.69,0,0,1,987.63,411.46Zm0,5.08h3.85V439.9h-3.85Z"/><path d="M1002.71,440.16a6,6,0,0,1-2-1.26,5.65,5.65,0,0,1-1.37-2,7.65,7.65,0,0,1-.46-2.84V420.07h-4.08v-3.53h4.08V410h3.89v6.59h5.68v3.53h-5.68v13a4.67,4.67,0,0,0,.73,2.9,3.1,3.1,0,0,0,2.52,1,4.76,4.76,0,0,0,2.57-.78V440a5.74,5.74,0,0,1-1.4.46,9.92,9.92,0,0,1-1.81.14A7.27,7.27,0,0,1,1002.71,440.16Z"/><path d="M1011.83,407.11h3.89v9.66l-.18,3.21h.18a7.62,7.62,0,0,1,3-3,9.06,9.06,0,0,1,4.55-1.19,8.3,8.3,0,0,1,6.51,2.5,9.52,9.52,0,0,1,2.24,6.61v15h-3.89V425.52a6.15,6.15,0,0,0-1.6-4.67,5.82,5.82,0,0,0-4.17-1.51,5.67,5.67,0,0,0-3.37,1.09,8.15,8.15,0,0,0-3.32,6.46v13h-3.89Z"/><path d="M763.23,462.06h4.4l12.46,32.79h-4.26l-3.3-9H758.38l-3.3,9h-4.26Zm8,20.11-4.35-11.82-1.33-3.53h-.18l-1.28,3.53-4.35,11.82Z"/><path d="M783.08,471.5h3.71v3.43H787A7.81,7.81,0,0,1,790,472a8.83,8.83,0,0,1,4.49-1.22,8.26,8.26,0,0,1,6.43,2.45,9.58,9.58,0,0,1,2.22,6.67v15h-3.89V480.47q0-3.25-1.56-4.72a6,6,0,0,0-4.26-1.46,5.68,5.68,0,0,0-3.36,1,7.12,7.12,0,0,0-2.32,2.77,8.24,8.24,0,0,0-.82,3.6v13.14h-3.89Z"/><path d="M812.41,494a11.22,11.22,0,0,1-4-4.42,14.56,14.56,0,0,1,0-12.75,11.21,11.21,0,0,1,4-4.44,10.36,10.36,0,0,1,5.65-1.61,9.45,9.45,0,0,1,4.81,1.22,8.88,8.88,0,0,1,3.21,3h.18l-.18-3.25v-9.67H830v32.79h-3.71v-3.43h-.18a9,9,0,0,1-3.21,2.95,9.44,9.44,0,0,1-4.81,1.21A10.36,10.36,0,0,1,812.41,494Zm9.94-3a8,8,0,0,0,2.83-3.12,10.64,10.64,0,0,0,0-9.34,8,8,0,0,0-2.83-3.11,7.17,7.17,0,0,0-7.63,0,7.9,7.9,0,0,0-2.86,3.13,10.55,10.55,0,0,0,0,9.3,7.86,7.86,0,0,0,2.86,3.14,7.17,7.17,0,0,0,7.63,0Z"/><path d="M835.09,471.5h3.71v3.75H839a6.31,6.31,0,0,1,2.65-3.2,7.41,7.41,0,0,1,4.12-1.29,6.72,6.72,0,0,1,2.75.51v4.16a7.41,7.41,0,0,0-3.3-.73,5.37,5.37,0,0,0-3.11,1,6.9,6.9,0,0,0-2.27,2.59,7.54,7.54,0,0,0-.84,3.51v13.08h-3.9Z"/><path d="M855.55,493.94a11.55,11.55,0,0,1-4.28-4.49,13.55,13.55,0,0,1,0-12.55,11.55,11.55,0,0,1,4.28-4.49,12.42,12.42,0,0,1,12.37,0,11.62,11.62,0,0,1,4.28,4.49,13.63,13.63,0,0,1,0,12.55,11.62,11.62,0,0,1-4.28,4.49,12.48,12.48,0,0,1-12.37,0Zm10.19-3a8,8,0,0,0,3-3.09,10.48,10.48,0,0,0,0-9.43,7.91,7.91,0,0,0-7-4.17,8,8,0,0,0-4,1.08,7.83,7.83,0,0,0-3,3.09,10.48,10.48,0,0,0,0,9.43,8,8,0,0,0,7,4.17A7.83,7.83,0,0,0,865.74,491Z"/><path d="M877.56,466.41a2.68,2.68,0,0,1-.83-2,2.6,2.6,0,0,1,.83-1.94,2.81,2.81,0,0,1,3.93,0,2.6,2.6,0,0,1,.83,1.94,2.73,2.73,0,0,1-.8,2,2.78,2.78,0,0,1-4,0Zm0,5.09h3.85v23.35H877.6Z"/><path d="M890.92,494a11.19,11.19,0,0,1-4-4.42,14.56,14.56,0,0,1,0-12.75,11.18,11.18,0,0,1,4-4.44,10.4,10.4,0,0,1,5.66-1.61,9.48,9.48,0,0,1,4.81,1.22,8.85,8.85,0,0,1,3.2,3h.18l-.18-3.25v-9.67h3.89v32.79h-3.71v-3.43h-.18a9,9,0,0,1-3.2,2.95,9.47,9.47,0,0,1-4.81,1.21A10.39,10.39,0,0,1,890.92,494Zm9.94-3a8,8,0,0,0,2.84-3.12,10.73,10.73,0,0,0,0-9.34,8.09,8.09,0,0,0-2.84-3.11,7.17,7.17,0,0,0-7.63,0,8,8,0,0,0-2.86,3.13,10.64,10.64,0,0,0,0,9.3,7.93,7.93,0,0,0,2.86,3.14,7.17,7.17,0,0,0,7.63,0Z"/><path d="M927.4,494.58a7.66,7.66,0,0,1-3.12-2.77,7.48,7.48,0,0,1-1.1-4A6.8,6.8,0,0,1,926,482a11.46,11.46,0,0,1,7-2.09,15.64,15.64,0,0,1,3.91.46,10.68,10.68,0,0,1,2.78,1.05V480a5.28,5.28,0,0,0-1.84-4.19,6.83,6.83,0,0,0-4.62-1.58,7.85,7.85,0,0,0-3.62.85,6.62,6.62,0,0,0-2.61,2.36l-2.93-2.2a9.43,9.43,0,0,1,3.78-3.3,11.89,11.89,0,0,1,5.33-1.19,10.69,10.69,0,0,1,7.49,2.5,8.74,8.74,0,0,1,2.72,6.8v14.79h-3.7v-3.34h-.19a8.31,8.31,0,0,1-3,2.88,8.68,8.68,0,0,1-4.53,1.19A10.11,10.11,0,0,1,927.4,494.58Zm8.61-3.44a7.59,7.59,0,0,0,2.7-2.7,7.16,7.16,0,0,0,1-3.71,9.84,9.84,0,0,0-2.71-1.19,12.12,12.12,0,0,0-3.39-.46,7.5,7.5,0,0,0-4.83,1.33,4.24,4.24,0,0,0-1.62,3.43,3.84,3.84,0,0,0,1.46,3.12,5.73,5.73,0,0,0,3.71,1.19A7.09,7.09,0,0,0,936,491.14Z"/><path d="M948.23,471.5h3.71V475h.18a8.4,8.4,0,0,1,3.18-3,9.51,9.51,0,0,1,4.79-1.22,10.51,10.51,0,0,1,5.68,1.61,11.18,11.18,0,0,1,4,4.44,14.65,14.65,0,0,1,0,12.75,11.19,11.19,0,0,1-4,4.42,10.51,10.51,0,0,1-5.68,1.6,9.5,9.5,0,0,1-4.79-1.21,8.52,8.52,0,0,1-3.18-2.95h-.18l.18,3.2v10.12h-3.89ZM963.43,491a7.86,7.86,0,0,0,2.86-3.14,10.55,10.55,0,0,0,0-9.3,7.9,7.9,0,0,0-2.86-3.13,7.11,7.11,0,0,0-7.6,0A7.79,7.79,0,0,0,953,478.5a10.91,10.91,0,0,0,0,9.34,7.75,7.75,0,0,0,2.84,3.12,7.11,7.11,0,0,0,7.6,0Z"/><path d="M975.1,471.5h3.71V475H979a8.4,8.4,0,0,1,3.18-3,9.51,9.51,0,0,1,4.79-1.22,10.51,10.51,0,0,1,5.68,1.61,11.25,11.25,0,0,1,4,4.44,14.65,14.65,0,0,1,0,12.75,11.26,11.26,0,0,1-4,4.42,10.51,10.51,0,0,1-5.68,1.6,9.5,9.5,0,0,1-4.79-1.21,8.52,8.52,0,0,1-3.18-2.95h-.18l.18,3.2v10.12H975.1ZM990.3,491a7.93,7.93,0,0,0,2.86-3.14,10.55,10.55,0,0,0,0-9.3,8,8,0,0,0-2.86-3.13,7.11,7.11,0,0,0-7.6,0,7.79,7.79,0,0,0-2.84,3.11,10.91,10.91,0,0,0,0,9.34A7.75,7.75,0,0,0,982.7,491a7.11,7.11,0,0,0,7.6,0Z"/><path d="M1003.68,493.82a9.58,9.58,0,0,1-3.57-4.51l3.48-1.56a6.92,6.92,0,0,0,2.59,3.25,6.59,6.59,0,0,0,3.77,1.15,7.5,7.5,0,0,0,3.76-.89,2.81,2.81,0,0,0,1.56-2.55,2.78,2.78,0,0,0-1.24-2.35,11.34,11.34,0,0,0-3.89-1.54l-2.84-.73a10.17,10.17,0,0,1-4.58-2.34,5.87,5.87,0,0,1-.57-7.8,7.65,7.65,0,0,1,3.22-2.36,11.42,11.42,0,0,1,4.35-.83,11.22,11.22,0,0,1,5.48,1.33,7.52,7.52,0,0,1,3.41,3.71l-3.39,1.56c-1-2.08-2.88-3.12-5.54-3.12a6.24,6.24,0,0,0-3.37.9,2.61,2.61,0,0,0-1.44,2.26,2.56,2.56,0,0,0,1,2.09,8,8,0,0,0,3,1.3l3.39.87a11.16,11.16,0,0,1,5.17,2.59,5.65,5.65,0,0,1,1.74,4.19,6.1,6.1,0,0,1-1.23,3.78,7.93,7.93,0,0,1-3.34,2.49,12.19,12.19,0,0,1-4.68.87A10.64,10.64,0,0,1,1003.68,493.82Z"/><path d="M1042.6,479.69l-11.08-17.63h4.54l8.38,13.74h.18l8.24-13.74h4.54l-10.9,17.63v15.16h-3.9Z"/><path d="M1065.11,493.29a16.42,16.42,0,0,1-6-6.2,18,18,0,0,1,0-17.24,16.9,16.9,0,0,1,23.17-6.23,16.65,16.65,0,0,1,6.07,6.23,17.92,17.92,0,0,1,0,17.24,17,17,0,0,1-23.22,6.2Zm15.05-3.13a12.59,12.59,0,0,0,4.67-4.77,14.92,14.92,0,0,0,0-13.87,12.76,12.76,0,0,0-22.28,0,14.61,14.61,0,0,0,0,13.83,12.89,12.89,0,0,0,17.61,4.79Z"/><path d="M1101,479.69l-11.08-17.63h4.53l8.38,13.74h.18l8.25-13.74h4.53l-10.9,17.63v15.16H1101Z"/><text class="cls-13" transform="translate(750.14 319.15)"><tspan class="cls-14">+</tspan><tspan class="cls-15" x="51.68" y="0">5</tspan><tspan class="cls-16" x="104.08" y="0">0</tspan><tspan x="164.23" y="0">%</tspan></text><text class="cls-17" transform="translate(608.14 197.26)"><tspan class="cls-18">+</tspan><tspan class="cls-19" x="20.94" y="0">5</tspan><tspan class="cls-20" x="42.15" y="0">0</tspan><tspan x="66.46" y="0">%</tspan></text><path class="cls-12" d="M349.81,273.89q0-.84,0-1.71a45.05,45.05,0,0,1,1.39-11.12c3.5-13.79,13.37-25.43,26.71-32.35l-8.65-16a2,2,0,1,1,3.56-1.94L381.55,227a62.86,62.86,0,0,1,49.16-.07l8.72-16.09a2,2,0,0,1,3.57,1.94l-8.61,15.88c14,7.19,24.2,19.58,27.29,34.21a46.75,46.75,0,0,1,.77,5v6Z"/><path class="cls-6" d="M426.48,248.64a5.31,5.31,0,1,0,5.3-5.3A5.31,5.31,0,0,0,426.48,248.64Z"/><path class="cls-6" d="M375.14,248.64a5.3,5.3,0,1,0,5.3-5.3A5.3,5.3,0,0,0,375.14,248.64Z"/></svg>