<svg xmlns="http://www.w3.org/2000/svg" xmlns:xlink="http://www.w3.org/1999/xlink" xml:space="preserve" viewBox="0 0 100 100"><style>.st3{fill:#fff}</style><linearGradient id="SVGID_1_" x1="54.227" x2="19.608" y1="783.547" y2="723.593" gradientTransform="translate(0 -696)" gradientUnits="userSpaceOnUse"><stop offset="0" stop-color="#1e8e3e"/><stop offset="1" stop-color="#34a853"/></linearGradient><path fill="url(#SVGID_1_)" d="M50 70c-7 0-13.6-3.7-17.2-9.7-.1-.2-.2-.3-.3-.5L15.4 30C4.4 49.1 10.9 73.6 30 84.6c6.1 3.5 13 5.4 20 5.4l17.1-29.7c-3.5 6-10 9.7-17.1 9.7z"/><linearGradient id="SVGID_2_" x1="45.699" x2="80.307" y1="783.473" y2="723.529" gradientTransform="translate(0 -696)" gradientUnits="userSpaceOnUse"><stop offset="0" stop-color="#fcc934"/><stop offset="1" stop-color="#fbbc04"/></linearGradient><path fill="url(#SVGID_2_)" d="M84.6 30H50c11 0 20 8.9 20 20 0 3.4-.9 6.8-2.5 9.8l-.3.5L50 90c22.1 0 40-17.9 40-40 0-7-1.9-13.9-5.4-20z"/><linearGradient id="SVGID_3_" x1="15.398" x2="84.611" y1="730.884" y2="730.884" gradientTransform="translate(0 -696)" gradientUnits="userSpaceOnUse"><stop offset="0" stop-color="#d93025"/><stop offset="1" stop-color="#ea4335"/></linearGradient><path fill="url(#SVGID_3_)" d="M84.6 30C73.6 10.9 49.1 4.3 30 15.4c-6 3.5-11.1 8.5-14.6 14.6l17.2 29.7c-5.4-9.6-1.9-21.8 7.7-27.2 3-1.7 6.4-2.5 9.8-2.5h34.5z"/><path d="M70 50c0-11-8.9-20-20-20s-20 8.9-20 20c0 3.4.9 6.8 2.5 9.8l.3.5c5.6 9.5 17.9 12.6 27.4 7 2.9-1.7 5.3-4.1 7-7l.3-.5c1.6-3 2.5-6.4 2.5-9.8z" class="st3"/><path fill="#1a73e8" d="M66.4 50c0-9.1-7.3-16.4-16.3-16.4-9.1 0-16.4 7.3-16.4 16.3 0 2.8.7 5.6 2.1 8.1l.2.4c4.6 7.8 14.7 10.3 22.5 5.7 2.4-1.4 4.3-3.4 5.7-5.7l.2-.4c1.3-2.4 2-5.2 2-8z"/><defs><circle id="SVGID_4_" cx="50" cy="50" r="40"/></defs><clipPath id="SVGID_5_"><use xlink:href="#SVGID_4_" overflow="visible"/></clipPath><g clip-path="url(#SVGID_5_)"><path fill="#424242" d="M9.9 56.6H90V90H9.9V56.6z"/></g><path d="M49.4 74.4c-2.2 2.2-5.8 2.2-8.1 0-2.2-2.3-2.2-5.9 0-8.2 2.2-2.2 5.8-2.2 8.1 0 2.1 2.4 2.1 5.9 0 8.2zm-7-.9c1.7 1.6 4.3 1.6 6 0 1.6-1.8 1.6-4.5 0-6.3-1.7-1.7-4.3-1.7-6 0-1.7 1.8-1.7 4.5 0 6.3zm13.4 2.6c-.8 0-1.7-.3-2.4-.8-.8-.5-1.3-1.3-1.5-2.2l1.3-.5c.1.6.5 1.1.9 1.5.4.4 1 .6 1.6.6.6 0 1.1-.2 1.6-.5.4-.3.7-.8.7-1.3 0-.6-.2-1.1-.7-1.4-.6-.4-1.3-.7-2.1-.9-.8-.2-1.6-.6-2.2-1.2-.5-.5-.8-1.2-.8-1.9 0-.8.3-1.5.9-2.1.7-.6 1.6-.9 2.5-.9.8 0 1.6.2 2.3.7.5.4.9.9 1.1 1.5l-1.3.5c-.1-.4-.4-.7-.7-.9-.4-.3-.9-.5-1.4-.4-.5 0-1 .2-1.4.5-.4.3-.6.7-.6 1.2 0 .4.2.8.5 1 .5.3 1 .6 1.6.8.5.1.9.3 1.4.5.4.2.8.4 1.1.7.4.3.7.6.8 1 .2.4.3.9.3 1.4 0 .5-.1 1-.3 1.4-.2.4-.5.7-.9.9l-1.2.6c-.2.2-.6.2-1.1.2z" class="st3"/></svg>